<svg xmlns="http://www.w3.org/2000/svg" width="82" height="78" fill="none">
  <path
    fill="#E02E64"
    d="M46.449 39.1c0 3.086-2.521 5.587-5.63 5.587-3.11 0-5.63-2.501-5.63-5.586 0-3.085 2.52-5.586 5.63-5.586 3.109 0 5.63 2.5 5.63 5.586ZM26.274 39.1c0 3.086-2.52 5.587-5.63 5.587s-5.63-2.501-5.63-5.586c0-3.085 2.52-5.586 5.63-5.586s5.63 2.5 5.63 5.586ZM60.993 44.687c3.11 0 5.63-2.501 5.63-5.586 0-3.085-2.52-5.586-5.63-5.586s-5.63 2.5-5.63 5.586c0 3.085 2.52 5.586 5.63 5.586Z"/><path fill="#E02E64" fill-rule="evenodd" d="M1.877 0A1.87 1.87 0 0 0 0 1.862v29.791c4.146 0 7.507 3.334 7.507 7.448 0 4.113-3.361 7.447-7.507 7.447v29.59A1.87 1.87 0 0 0 1.877 78h78.246A1.87 1.87 0 0 0 82 76.138v-29.59c-4.097-.056-7.4-3.369-7.4-7.447 0-4.078 3.303-7.391 7.4-7.447V1.862A1.87 1.87 0 0 0 80.123 0H1.877Zm38.941 46.548c4.146 0 7.507-3.334 7.507-7.447 0-4.114-3.36-7.448-7.507-7.448-4.145 0-7.506 3.334-7.506 7.448 0 4.113 3.36 7.447 7.506 7.447Zm-20.174 0c4.146 0 7.507-3.334 7.507-7.447 0-4.114-3.361-7.448-7.507-7.448-4.146 0-7.507 3.334-7.507 7.448 0 4.113 3.36 7.447 7.507 7.447ZM68.5 39.101c0 4.113-3.361 7.447-7.507 7.447-4.146 0-7.507-3.334-7.507-7.447 0-4.114 3.361-7.448 7.507-7.448 4.146 0 7.507 3.334 7.507 7.448Z" clip-rule="evenodd"/><path fill="#E02E64" d="M82 33.516c-3.06.056-5.524 2.535-5.524 5.585S78.939 44.63 82 44.686v-11.17ZM5.63 39.1c0-3.084-2.52-5.585-5.63-5.585v11.172c3.11 0 5.63-2.501 5.63-5.586Z"
  />
</svg>
