<svg width="512" height="512" viewBox="0 0 512 512" fill="none" xmlns="http://www.w3.org/2000/svg">
<rect y="176" width="512" height="160" fill="#F5F8E6"/>
<path fill-rule="evenodd" clip-rule="evenodd" d="M11.718 8C5.24632 8 0 13.301 0 19.84V209.281C25.8866 209.281 46.8719 230.485 46.8719 256.641C46.8719 282.797 25.8866 304.001 0 304.001V492.16C0 498.699 5.2463 504 11.718 504H500.282C506.754 504 512 498.699 512 492.16V303.996C486.418 303.639 465.79 282.574 465.79 256.641C465.79 230.708 486.418 209.643 512 209.285V19.84C512 13.301 506.754 8 500.282 8H11.718ZM254.866 304.001C280.753 304.001 301.738 282.797 301.738 256.641C301.738 230.485 280.753 209.281 254.866 209.281C228.979 209.281 207.994 230.485 207.994 256.641C207.994 282.797 228.979 304.001 254.866 304.001ZM128.898 304.001C154.784 304.001 175.77 282.797 175.77 256.641C175.77 230.485 154.784 209.281 128.898 209.281C103.011 209.281 82.0258 230.485 82.0258 256.641C82.0258 282.797 103.011 304.001 128.898 304.001ZM427.706 256.641C427.706 282.797 406.721 304.001 380.834 304.001C354.948 304.001 333.962 282.797 333.962 256.641C333.962 230.485 354.948 209.281 380.834 209.281C406.721 209.281 427.706 230.485 427.706 256.641Z" fill="#E02E64"/>
<path d="M512 221.127C492.89 221.483 477.508 237.247 477.508 256.641C477.508 276.035 492.89 291.798 512 292.155V221.127Z" fill="#E02E64"/>
<path d="M35.1539 256.641C35.1539 237.024 19.415 221.121 0 221.121V292.161C19.415 292.161 35.1539 276.258 35.1539 256.641Z" fill="#E02E64"/>
<path d="M132.154 255.568C132.154 257.665 130.464 259.364 128.378 259.364C126.293 259.364 124.602 257.665 124.602 255.568C124.602 253.472 126.293 251.773 128.378 251.773C130.464 251.773 132.154 253.472 132.154 255.568Z" fill="#E02E64"/>
<path d="M118.623 255.568C118.623 257.665 116.932 259.364 114.846 259.364C112.761 259.364 111.07 257.665 111.07 255.568C111.07 253.472 112.761 251.773 114.846 251.773C116.932 251.773 118.623 253.472 118.623 255.568Z" fill="#E02E64"/>
<path d="M141.91 259.364C143.996 259.364 145.686 257.665 145.686 255.568C145.686 253.472 143.996 251.773 141.91 251.773C139.824 251.773 138.134 253.472 138.134 255.568C138.134 257.665 139.824 259.364 141.91 259.364Z" fill="#E02E64"/>
<path fill-rule="evenodd" clip-rule="evenodd" d="M102.259 229C101.564 229 101 229.566 101 230.265V250.508C103.781 250.508 106.035 252.774 106.035 255.568C106.035 258.363 103.781 260.629 101 260.629V280.735C101 281.434 101.564 282 102.259 282H154.741C155.436 282 156 281.434 156 280.735V260.629C153.252 260.59 151.036 258.34 151.036 255.568C151.036 252.797 153.252 250.547 156 250.508V230.265C156 229.566 155.436 229 154.741 229H102.259ZM128.378 260.629C131.159 260.629 133.413 258.363 133.413 255.568C133.413 252.774 131.159 250.508 128.378 250.508C125.597 250.508 123.343 252.774 123.343 255.568C123.343 258.363 125.597 260.629 128.378 260.629ZM114.846 260.629C117.627 260.629 119.882 258.363 119.882 255.568C119.882 252.774 117.627 250.508 114.846 250.508C112.066 250.508 109.811 252.774 109.811 255.568C109.811 258.363 112.066 260.629 114.846 260.629ZM146.945 255.568C146.945 258.363 144.691 260.629 141.91 260.629C139.129 260.629 136.875 258.363 136.875 255.568C136.875 252.774 139.129 250.508 141.91 250.508C144.691 250.508 146.945 252.774 146.945 255.568Z" fill="#E02E64"/>
<path d="M156 251.774C153.947 251.812 152.295 253.496 152.295 255.568C152.295 257.641 153.947 259.325 156 259.363V251.774Z" fill="#E02E64"/>
<path d="M104.776 255.568C104.776 253.472 103.086 251.773 101 251.773V259.364C103.086 259.364 104.776 257.665 104.776 255.568Z" fill="#E02E64"/>
<path fill-rule="evenodd" clip-rule="evenodd" d="M382.316 272.436C382.316 279.927 388.407 286 395.921 286C405.974 286 412.258 275.149 407.231 266.469L384.753 227.653C384.085 226.5 382.316 226.972 382.316 228.304V259.859C384.814 260.25 386.724 262.404 386.724 265.004C386.724 267.604 384.814 269.758 382.316 270.149V272.436ZM395.866 279.978C399.653 279.978 402.722 276.917 402.722 273.142C402.722 269.367 399.653 266.306 395.866 266.306C392.079 266.306 389.009 269.367 389.009 273.142C389.009 276.917 392.079 279.978 395.866 279.978Z" fill="#6767F4"/>
<path fill-rule="evenodd" clip-rule="evenodd" d="M380.684 228.304V259.859C378.186 260.25 376.276 262.404 376.276 265.004C376.276 267.604 378.186 269.758 380.684 270.149V272.436C380.684 279.927 374.593 286 367.079 286C357.026 286 350.742 275.149 355.769 266.469L378.247 227.653C378.915 226.5 380.684 226.972 380.684 228.304ZM373.991 273.142C373.991 276.917 370.921 279.978 367.134 279.978C363.347 279.978 360.278 276.917 360.278 273.142C360.278 269.367 363.347 266.306 367.134 266.306C370.921 266.306 373.991 269.367 373.991 273.142Z" fill="#6767F4"/>
<path d="M377.597 265.352C377.75 267.074 379.022 268.474 380.684 268.825C380.947 268.881 381.22 268.91 381.5 268.91C381.78 268.91 382.053 268.881 382.316 268.825C384.088 268.451 385.418 266.882 385.418 265.004C385.418 263.126 384.088 261.557 382.316 261.183C382.053 261.127 381.78 261.098 381.5 261.098C381.22 261.098 380.947 261.127 380.684 261.183C378.912 261.557 377.582 263.126 377.582 265.004C377.582 265.121 377.587 265.238 377.597 265.352Z" fill="#6767F4"/>
<path d="M251.168 227.376C252.2 227.235 253.236 227.122 254.275 227.035C255.317 227.004 256.36 226.999 257.403 227.022C258.445 227.1 259.484 227.205 260.521 227.338C261.55 227.525 262.574 227.738 263.593 227.979C264.599 228.273 265.597 228.594 266.587 228.94C267.559 229.339 268.52 229.763 269.471 230.212C270.398 230.711 271.312 231.234 272.213 231.782C272.4 231.909 272.576 232.027 272.748 232.141C273.399 232.576 273.977 232.963 274.777 233.627C277.737 236.086 279.715 237.282 281.105 237.858C281.804 238.148 282.356 238.283 282.81 238.342C283.184 238.391 283.488 238.387 283.714 238.385C283.738 238.385 283.762 238.384 283.784 238.384C283.803 238.384 283.822 238.384 283.84 238.384C284.114 238.384 284.337 238.158 284.337 237.88C284.337 237.602 284.114 237.376 283.84 237.376C283.789 237.376 283.739 237.377 283.689 237.377C283.466 237.379 283.237 237.382 282.937 237.343C282.576 237.295 282.107 237.185 281.482 236.926C280.222 236.403 278.332 235.277 275.407 232.847C274.564 232.147 273.938 231.729 273.28 231.29C273.11 231.176 272.936 231.06 272.757 230.938L272.746 230.931L272.735 230.924C271.812 230.363 270.876 229.827 269.926 229.316L269.915 229.31L269.903 229.304C268.929 228.844 267.944 228.41 266.948 228.001L266.936 227.996L266.924 227.992C265.91 227.637 264.887 227.309 263.856 227.007L263.844 227.004L263.831 227.001C262.787 226.754 261.738 226.535 260.683 226.343L260.671 226.341L260.658 226.339C259.595 226.204 258.531 226.096 257.464 226.016L257.451 226.015L257.438 226.015C256.369 225.991 255.3 225.996 254.232 226.028L254.219 226.029L254.206 226.03C253.142 226.118 252.081 226.235 251.023 226.379L251.01 226.38L250.997 226.383C249.949 226.582 248.907 226.809 247.871 227.063L247.858 227.066L247.846 227.07C246.825 227.378 245.812 227.712 244.809 228.073L244.797 228.077L244.785 228.082C243.802 228.495 242.831 228.933 241.871 229.396L241.859 229.402L241.848 229.408C240.913 229.921 239.993 230.458 239.087 231.019L239.076 231.026L239.065 231.033C238.189 231.641 237.33 232.27 236.487 232.922L236.477 232.93L236.467 232.939C235.659 233.634 234.869 234.349 234.098 235.085L234.089 235.094L234.08 235.104C233.348 235.879 232.637 236.672 231.946 237.484L231.937 237.494L231.929 237.505C231.281 238.351 230.656 239.214 230.052 240.093L230.045 240.103L230.038 240.114C229.481 241.023 228.947 241.946 228.437 242.882L228.431 242.893L228.425 242.905C227.964 243.866 227.528 244.839 227.117 245.822L227.112 245.834L227.108 245.846C226.748 246.849 226.414 247.861 226.106 248.881L226.102 248.893L226.099 248.906C225.844 249.94 225.615 250.98 225.413 252.025L225.41 252.038L225.409 252.051C225.26 253.105 225.139 254.161 225.045 255.221L225.044 255.234L225.044 255.247C225.004 256.309 224.991 257.372 225.006 258.434L225.006 258.447L225.007 258.46C225.076 259.52 225.172 260.576 225.294 261.63L225.296 261.643L225.298 261.656C225.474 262.701 225.677 263.741 225.907 264.775L225.91 264.788L225.913 264.8C226.195 265.82 226.502 266.832 226.836 267.835L226.84 267.847L226.845 267.859C227.229 268.843 227.637 269.815 228.071 270.777L228.076 270.788L228.082 270.8C228.563 271.737 229.068 272.66 229.597 273.57L229.604 273.581L229.611 273.592C230.185 274.472 230.78 275.336 231.398 276.184L231.406 276.195L231.414 276.205C232.074 277.019 232.754 277.815 233.454 278.593L233.463 278.603L233.472 278.612C234.21 279.352 234.967 280.071 235.742 280.771L235.751 280.779L235.761 280.788C236.57 281.445 237.395 282.08 238.236 282.694L238.246 282.702L238.257 282.709C239.128 283.277 240.012 283.822 240.91 284.344L240.921 284.35L240.933 284.356C241.855 284.829 242.789 285.278 243.734 285.702L243.746 285.707L243.758 285.712C244.723 286.086 245.696 286.433 246.678 286.756L246.691 286.76L246.703 286.763C247.699 287.033 248.702 287.277 249.71 287.494L249.723 287.497L249.735 287.499C250.753 287.663 251.773 287.8 252.797 287.91L252.81 287.911L252.823 287.912C253.85 287.968 254.878 287.998 255.906 288L255.919 288L255.932 287.999C256.958 287.948 257.982 287.869 259.003 287.764L259.016 287.762L259.029 287.76C260.043 287.602 261.052 287.417 262.056 287.205L262.068 287.202L262.081 287.199C263.072 286.935 264.055 286.645 265.031 286.33L265.043 286.326L265.055 286.321C266.013 285.956 266.96 285.565 267.897 285.149L267.909 285.144L267.92 285.138C268.834 284.675 269.735 284.187 270.623 283.677L270.635 283.67L270.646 283.663C271.506 283.107 272.351 282.529 273.182 281.928L273.192 281.921L273.202 281.913C274 281.27 274.781 280.607 275.545 279.924L275.554 279.915L275.564 279.906C276.291 279.184 276.999 278.443 277.688 277.685L277.696 277.675L277.705 277.665C278.353 276.872 278.981 276.062 279.588 275.237L279.596 275.226L279.603 275.215C280.166 274.359 280.707 273.49 281.226 272.606L281.232 272.595L281.238 272.583C281.711 271.674 282.16 270.753 282.585 269.821L282.59 269.809L282.595 269.797C282.971 268.845 283.323 267.883 283.65 266.913L283.655 266.9L283.658 266.888C283.935 265.902 284.186 264.91 284.413 263.912L284.415 263.899L284.418 263.886C284.592 262.878 284.741 261.867 284.864 260.852L284.865 260.839L284.866 260.826C284.937 259.806 284.981 258.786 285 257.765L285 257.752L285 257.739C284.966 256.718 284.906 255.7 284.82 254.684L284.819 254.671L284.817 254.658C284.68 253.648 284.517 252.643 284.328 251.643L284.325 251.63L284.322 251.617C284.083 250.629 283.818 249.647 283.529 248.673L283.525 248.661L283.521 248.649C283.182 247.692 282.819 246.745 282.432 245.808L282.427 245.795L282.422 245.784C281.988 244.869 281.531 243.966 281.051 243.076L281.045 243.064L281.038 243.053C280.513 242.19 279.967 241.341 279.4 240.507L279.393 240.496L279.385 240.486C278.776 239.683 278.147 238.897 277.499 238.128L277.49 238.118L277.481 238.109C276.795 237.375 276.09 236.66 275.367 235.964L275.358 235.955L275.348 235.947C274.591 235.29 273.819 234.654 273.03 234.038L273.02 234.03L273.009 234.023C272.19 233.45 271.358 232.899 270.511 232.37L270.501 232.363L270.489 232.357C269.618 231.873 268.735 231.413 267.84 230.976L267.828 230.971L267.817 230.966C266.902 230.577 265.977 230.212 265.044 229.872L265.032 229.868L265.02 229.864C264.071 229.573 263.116 229.308 262.155 229.068L262.143 229.065L262.13 229.062C261.158 228.873 260.182 228.709 259.203 228.571L259.19 228.57L259.177 228.569C258.193 228.482 257.207 228.422 256.22 228.388L256.207 228.387L256.194 228.387C255.208 228.405 254.222 228.448 253.239 228.517L253.226 228.518L253.213 228.52C252.235 228.64 251.261 228.787 250.29 228.958L250.278 228.961L250.265 228.963C249.306 229.186 248.353 229.433 247.407 229.705L247.395 229.709L247.382 229.713C246.452 230.034 245.531 230.379 244.619 230.749L244.607 230.754L244.595 230.759C243.704 231.175 242.824 231.615 241.956 232.077L241.945 232.083L241.934 232.09C241.091 232.597 240.262 233.126 239.447 233.676L239.436 233.683L239.426 233.691C238.64 234.283 237.871 234.894 237.117 235.526L237.107 235.534L237.098 235.543C236.378 236.213 235.676 236.902 234.992 237.608L234.983 237.617L234.974 237.627C234.328 238.368 233.7 239.125 233.093 239.899L233.085 239.909L233.077 239.919C232.511 240.723 231.965 241.541 231.441 242.372L231.434 242.383L231.427 242.395C230.946 243.252 230.488 244.122 230.051 245.003L230.046 245.014L230.04 245.026C229.65 245.928 229.283 246.84 228.94 247.761L228.935 247.773L228.931 247.785C228.636 248.722 228.364 249.666 228.117 250.616L228.114 250.629L228.111 250.642C227.913 251.603 227.739 252.569 227.591 253.539L227.589 253.552L227.587 253.565C227.488 254.541 227.415 255.518 227.366 256.497L227.365 256.51L227.365 256.523C227.367 257.503 227.393 258.481 227.444 259.459L227.445 259.472L227.446 259.485C227.547 260.457 227.673 261.427 227.824 262.392L227.826 262.405L227.829 262.418C228.028 263.373 228.252 264.323 228.5 265.266L228.504 265.279L228.507 265.291C228.803 266.219 229.122 267.139 229.465 268.05L229.469 268.062L229.475 268.074C229.863 268.965 230.274 269.845 230.707 270.714L230.713 270.725L230.719 270.737C231.196 271.581 231.693 272.412 232.212 273.229L232.219 273.24L232.226 273.251C232.786 274.04 233.365 274.813 233.963 275.571L233.971 275.581L233.98 275.591C234.616 276.315 235.27 277.023 235.942 277.713L235.951 277.722L235.96 277.731C236.666 278.384 237.387 279.018 238.125 279.633L238.135 279.641L238.145 279.649C238.913 280.224 239.694 280.778 240.489 281.312L240.5 281.319L240.511 281.326C241.332 281.817 242.164 282.285 243.009 282.732L243.02 282.738L243.032 282.743C243.897 283.145 244.772 283.523 245.656 283.878L245.668 283.883L245.68 283.887C246.58 284.195 247.488 284.48 248.402 284.74L248.414 284.743L248.427 284.746C249.353 284.958 250.283 285.145 251.217 285.308L251.23 285.31L251.243 285.312C252.184 285.425 253.127 285.514 254.072 285.578L254.085 285.579L254.097 285.579C255.044 285.593 255.989 285.582 256.934 285.547L256.947 285.546L256.96 285.545C257.901 285.46 258.839 285.35 259.774 285.216L259.787 285.214L259.799 285.212C260.725 285.029 261.646 284.822 262.561 284.59L262.573 284.587L262.586 284.583C263.487 284.305 264.38 284.002 265.265 283.677L265.277 283.673L265.289 283.668C266.155 283.296 267.012 282.903 267.858 282.487L267.869 282.481L267.88 282.475C268.703 282.015 269.514 281.535 270.311 281.033L270.322 281.026L270.333 281.019C271.103 280.476 271.859 279.914 272.6 279.333L272.611 279.325L272.62 279.316C273.33 278.697 274.024 278.059 274.7 277.404L274.71 277.395L274.719 277.385C275.361 276.696 275.984 275.99 276.59 275.268L276.598 275.258L276.606 275.248C277.173 274.496 277.721 273.73 278.248 272.949L278.255 272.939L278.262 272.927C278.749 272.121 279.215 271.303 279.659 270.473L279.665 270.461L279.671 270.449C280.072 269.597 280.451 268.736 280.808 267.865L280.813 267.853L280.817 267.841C281.129 266.953 281.418 266.057 281.683 265.155L281.687 265.142L281.69 265.129C281.909 264.215 282.104 263.295 282.276 262.371L282.279 262.358L282.28 262.345C282.405 261.414 282.505 260.481 282.581 259.545L282.582 259.532L282.583 259.519C282.611 258.581 282.616 257.643 282.596 256.705L282.596 256.692L282.595 256.679C282.528 255.745 282.437 254.813 282.322 253.884L282.32 253.871L282.318 253.858C282.156 252.937 281.97 252.021 281.761 251.11L281.759 251.097L281.755 251.085C281.5 250.187 281.222 249.297 280.922 248.414L280.918 248.402L280.913 248.39C280.568 247.525 280.202 246.67 279.814 245.824L279.808 245.813L279.802 245.801C279.372 244.978 278.921 244.167 278.449 243.368L278.442 243.357L278.435 243.346C277.924 242.574 277.393 241.816 276.843 241.072L276.835 241.061L276.827 241.051C276.24 240.338 275.636 239.641 275.014 238.959L275.005 238.95L274.996 238.941C274.34 238.293 273.669 237.664 272.982 237.053L272.972 237.044L272.962 237.036C272.245 236.462 271.514 235.907 270.769 235.372L270.759 235.364L270.748 235.357C269.977 234.862 269.195 234.388 268.401 233.934L268.389 233.927L268.378 233.922C267.562 233.511 266.737 233.121 265.902 232.754L265.89 232.749L265.878 232.744C265.025 232.421 264.166 232.121 263.299 231.844L263.287 231.84L263.274 231.836C262.395 231.605 261.511 231.397 260.622 231.212L260.609 231.209L260.596 231.207C259.7 231.07 258.8 230.956 257.898 230.865L257.886 230.864L257.873 230.863C256.968 230.82 256.063 230.801 255.158 230.806L255.145 230.806L255.132 230.806C254.23 230.859 253.329 230.934 252.431 231.034L252.418 231.035L252.405 231.037C251.514 231.183 250.627 231.353 249.745 231.545L249.732 231.548L249.72 231.552C248.85 231.79 247.986 232.051 247.13 232.335L247.118 232.339L247.106 232.344C246.266 232.672 245.435 233.022 244.613 233.393L244.601 233.398L244.59 233.404C243.789 233.818 243 234.252 242.222 234.707L242.211 234.714L242.2 234.721C241.447 235.216 240.707 235.73 239.98 236.263L239.97 236.271L239.96 236.279C239.262 236.849 238.58 237.437 237.913 238.042L237.904 238.051L237.894 238.06C237.26 238.7 236.642 239.355 236.041 240.026L236.033 240.036L236.025 240.046C235.46 240.748 234.913 241.463 234.385 242.193L234.377 242.203L234.37 242.214C233.88 242.97 233.41 243.738 232.96 244.517L232.954 244.529L232.948 244.54C232.539 245.342 232.15 246.154 231.783 246.975L231.777 246.987L231.773 246.999C231.448 247.839 231.145 248.685 230.864 249.54L230.86 249.552L230.856 249.565C230.619 250.432 230.405 251.305 230.212 252.183L230.21 252.196L230.207 252.209C230.06 253.095 229.936 253.984 229.835 254.876L229.833 254.889L229.833 254.902C229.777 255.797 229.744 256.694 229.735 257.59L229.734 257.603L229.735 257.616C229.771 258.511 229.83 259.405 229.912 260.296L229.913 260.309L229.915 260.322C230.042 261.207 230.191 262.088 230.363 262.965L230.366 262.978L230.369 262.99C230.586 263.856 230.824 264.715 231.084 265.568L231.088 265.58L231.092 265.593C231.396 266.43 231.72 267.258 232.065 268.078L232.07 268.09L232.076 268.101C232.462 268.901 232.869 269.69 233.295 270.468L233.302 270.479L233.308 270.49C233.774 271.244 234.258 271.984 234.761 272.712L234.768 272.723L234.776 272.733C235.315 273.433 235.871 274.118 236.445 274.788L236.453 274.798L236.462 274.807C237.068 275.446 237.691 276.068 238.329 276.673L238.338 276.682L238.348 276.69C239.015 277.261 239.697 277.813 240.392 278.348L240.402 278.356L240.413 278.363C241.134 278.86 241.867 279.337 242.611 279.795L242.622 279.802L242.634 279.808C243.4 280.226 244.177 280.623 244.963 281L244.975 281.006L244.987 281.011C245.791 281.345 246.602 281.659 247.422 281.95L247.434 281.955L247.446 281.958C248.279 282.207 249.117 282.433 249.96 282.637L249.973 282.64L249.985 282.642C250.837 282.802 251.693 282.938 252.551 283.053L252.564 283.054L252.577 283.055C253.439 283.125 254.302 283.171 255.166 283.195L255.179 283.195L255.192 283.195C256.056 283.173 256.918 283.128 257.778 283.062L257.791 283.061L257.804 283.059C258.659 282.947 259.511 282.813 260.358 282.656L260.371 282.654L260.384 282.651C261.221 282.45 262.053 282.227 262.879 281.983L262.892 281.98L262.904 281.975C263.716 281.688 264.519 281.38 265.314 281.051L265.326 281.046L265.338 281.041C266.115 280.671 266.881 280.28 267.637 279.87L267.649 279.864L267.66 279.858C268.393 279.409 269.115 278.941 269.824 278.455L269.835 278.448L269.845 278.44C270.528 277.917 271.197 277.377 271.851 276.82L271.861 276.812L271.871 276.803C272.495 276.212 273.105 275.606 273.698 274.984L273.707 274.975L273.715 274.965C274.276 274.313 274.819 273.648 275.345 272.968L275.352 272.958L275.36 272.947C275.85 272.241 276.321 271.523 276.774 270.793L276.781 270.782L276.787 270.771C277.202 270.019 277.597 269.256 277.972 268.484L277.978 268.472L277.983 268.46C278.318 267.67 278.633 266.872 278.927 266.065L278.931 266.053L278.935 266.041C279.187 265.221 279.418 264.395 279.628 263.563L279.631 263.551L279.634 263.538C279.801 262.697 279.946 261.853 280.069 261.005L280.071 260.992L280.072 260.979C280.152 260.127 280.211 259.274 280.247 258.419L280.247 258.406L280.247 258.393C280.24 257.538 280.211 256.684 280.16 255.832L280.159 255.819L280.157 255.806C280.063 254.958 279.947 254.113 279.809 253.272L279.807 253.259L279.804 253.246C279.624 252.414 279.423 251.588 279.2 250.767L279.197 250.754L279.193 250.742C278.929 249.934 278.645 249.134 278.34 248.342L278.335 248.33L278.33 248.318C277.986 247.544 277.622 246.78 277.239 246.025L277.233 246.013L277.227 246.002C276.806 245.269 276.367 244.548 275.909 243.839L275.902 243.828L275.894 243.818C275.402 243.134 274.892 242.464 274.366 241.808L274.358 241.797L274.349 241.788C273.79 241.16 273.216 240.548 272.626 239.952L272.617 239.943L272.607 239.934C271.989 239.369 271.356 238.822 270.709 238.291L270.699 238.283L270.689 238.275C270.017 237.779 269.333 237.302 268.637 236.842L268.626 236.835L268.615 236.829C267.897 236.407 267.169 236.004 266.431 235.621L266.419 235.615L266.408 235.61C265.652 235.266 264.888 234.942 264.116 234.639L264.104 234.634L264.092 234.63C263.306 234.368 262.514 234.127 261.717 233.906L261.705 233.903L261.692 233.9C260.885 233.722 260.074 233.565 259.26 233.43L259.247 233.428L259.235 233.426C258.415 233.334 257.594 233.263 256.772 233.214L256.759 233.213L256.746 233.213C255.923 233.207 255.101 233.223 254.279 233.26L254.266 233.26L254.253 233.262C253.435 233.342 252.62 233.444 251.808 233.567L251.795 233.568L251.783 233.571C250.979 233.736 250.18 233.923 249.386 234.13L249.373 234.133L249.361 234.137C248.579 234.385 247.805 234.654 247.038 234.943L247.026 234.947L247.014 234.952C246.263 235.281 245.522 235.628 244.789 235.996L244.778 236.001L244.766 236.008C244.054 236.412 243.353 236.835 242.664 237.277L242.653 237.284L242.642 237.291C241.976 237.767 241.323 238.261 240.683 238.771L240.673 238.779L240.664 238.788C240.051 239.331 239.453 239.889 238.869 240.463L238.86 240.472L238.851 240.481C238.299 241.084 237.762 241.701 237.241 242.332L237.232 242.342L237.225 242.353C236.737 243.009 236.267 243.678 235.814 244.359L235.807 244.37L235.8 244.381C235.383 245.084 234.984 245.797 234.603 246.521L234.597 246.533L234.592 246.544C234.249 247.286 233.926 248.036 233.622 248.795L233.617 248.807L233.613 248.819C233.348 249.592 233.104 250.37 232.879 251.155L232.876 251.168L232.873 251.18C232.689 251.975 232.525 252.774 232.382 253.577L232.38 253.589L232.378 253.602C232.277 254.411 232.196 255.221 232.136 256.033L232.135 256.046L232.134 256.059C232.116 256.873 232.118 257.686 232.141 258.498L232.141 258.511L232.143 258.524C232.207 259.334 232.292 260.141 232.398 260.946L232.4 260.959L232.402 260.971C232.548 261.769 232.715 262.561 232.902 263.349L232.905 263.362L232.909 263.374C233.136 264.15 233.382 264.92 233.648 265.682L233.652 265.695L233.657 265.707C233.961 266.454 234.284 267.192 234.626 267.921L234.632 267.933L234.638 267.945C235.016 268.655 235.412 269.354 235.826 270.042L235.833 270.053L235.84 270.064C236.288 270.729 236.752 271.382 237.233 272.023L237.241 272.033L237.249 272.043C237.762 272.657 238.29 273.256 238.833 273.842L238.841 273.851L238.851 273.86C239.422 274.416 240.007 274.956 240.606 275.48L240.616 275.489L240.626 275.497C241.25 275.989 241.886 276.464 242.534 276.922L242.545 276.93L242.556 276.936C243.226 277.36 243.906 277.765 244.596 278.152L244.607 278.158L244.618 278.164C245.327 278.514 246.043 278.845 246.768 279.157L246.78 279.162L246.792 279.166C247.531 279.44 248.276 279.693 249.027 279.927L249.039 279.931L249.052 279.934C249.813 280.129 250.579 280.302 251.349 280.456L251.361 280.459L251.374 280.46C252.15 280.573 252.928 280.666 253.708 280.738L253.721 280.739L253.734 280.74C254.516 280.771 255.298 280.781 256.08 280.771L256.092 280.771L256.105 280.77C256.885 280.719 257.662 280.647 258.438 280.555L258.45 280.554L258.463 280.552C259.232 280.419 259.997 280.267 260.757 280.095L260.769 280.092L260.782 280.088C261.532 279.876 262.275 279.645 263.013 279.394L263.025 279.39L263.037 279.385C263.76 279.096 264.475 278.789 265.181 278.462L265.193 278.457L265.205 278.451C265.893 278.088 266.571 277.708 267.24 277.31L267.251 277.304L267.262 277.297C267.908 276.865 268.543 276.416 269.166 275.951L269.176 275.943L269.186 275.935C269.784 275.438 270.369 274.927 270.94 274.4L270.95 274.391L270.959 274.382C271.502 273.826 272.03 273.257 272.544 272.674L272.552 272.664L272.56 272.654C273.043 272.045 273.509 271.425 273.96 270.792L273.967 270.781L273.974 270.77C274.391 270.116 274.791 269.451 275.174 268.775L275.18 268.764L275.186 268.752C275.534 268.059 275.863 267.357 276.174 266.646L276.179 266.634L276.184 266.622C276.458 265.897 276.714 265.165 276.95 264.427L276.954 264.415L276.957 264.402C277.156 263.653 277.335 262.9 277.494 262.143L277.497 262.13L277.499 262.117C277.62 261.353 277.721 260.586 277.802 259.818L277.803 259.805L277.804 259.792C277.846 259.02 277.868 258.249 277.87 257.477L277.87 257.464L277.87 257.451C277.833 256.68 277.776 255.912 277.7 255.145L277.698 255.132L277.697 255.12C277.581 254.359 277.447 253.602 277.293 252.849L277.29 252.836L277.287 252.823C277.095 252.08 276.884 251.342 276.655 250.611L276.651 250.598L276.646 250.586C276.38 249.868 276.095 249.158 275.793 248.455L275.788 248.444L275.782 248.432C275.444 247.747 275.089 247.072 274.717 246.406L274.711 246.395L274.704 246.384C274.299 245.739 273.878 245.105 273.441 244.483L273.433 244.473L273.425 244.463C272.958 243.865 272.475 243.28 271.978 242.708L271.969 242.699L271.96 242.689C271.435 242.145 270.896 241.615 270.344 241.099L270.334 241.09L270.324 241.082C269.747 240.596 269.158 240.127 268.558 239.672L268.547 239.665L268.537 239.657C267.914 239.236 267.281 238.831 266.639 238.443L266.628 238.436L266.616 238.43C265.955 238.077 265.286 237.741 264.608 237.423L264.597 237.418L264.585 237.413C263.892 237.131 263.194 236.868 262.489 236.623L262.476 236.619L262.464 236.615C261.748 236.408 261.027 236.22 260.302 236.05L260.29 236.048L260.277 236.045C259.545 235.914 258.81 235.803 258.073 235.711L258.061 235.709L258.048 235.708C257.308 235.655 256.567 235.621 255.826 235.607L255.813 235.607L255.8 235.607C255.06 235.632 254.321 235.676 253.584 235.739L253.571 235.741L253.558 235.742C252.826 235.844 252.097 235.965 251.371 236.105L251.359 236.108L251.346 236.111C250.629 236.289 249.918 236.485 249.212 236.7L249.199 236.704L249.187 236.709C248.494 236.96 247.808 237.23 247.129 237.517L247.117 237.522L247.105 237.528C246.442 237.85 245.788 238.19 245.144 238.546L245.132 238.552L245.121 238.559C244.496 238.949 243.881 239.354 243.278 239.775L243.267 239.783L243.257 239.791C242.676 240.243 242.107 240.71 241.55 241.191L241.541 241.2L241.531 241.209C241 241.718 240.483 242.241 239.98 242.778L239.971 242.787L239.963 242.797C239.488 243.359 239.027 243.932 238.582 244.517L238.574 244.528L238.567 244.538C238.153 245.146 237.754 245.763 237.372 246.391L237.365 246.402L237.359 246.413C237.01 247.059 236.677 247.714 236.361 248.377L236.356 248.389L236.351 248.401C236.07 249.079 235.806 249.764 235.561 250.455L235.556 250.467L235.552 250.48C235.342 251.182 235.151 251.89 234.977 252.602L234.974 252.614L234.972 252.627C234.835 253.347 234.717 254.069 234.617 254.794L234.615 254.807L234.614 254.82C234.551 255.549 234.508 256.278 234.483 257.008L234.482 257.021L234.482 257.035C234.495 257.764 234.525 258.493 234.575 259.221L234.576 259.234L234.577 259.247C234.664 259.97 234.769 260.69 234.892 261.408L234.894 261.42L234.897 261.433C235.057 262.142 235.234 262.846 235.43 263.545L235.433 263.558L235.437 263.57C235.668 264.258 235.916 264.938 236.181 265.611L236.186 265.624L236.192 265.635C236.491 266.294 236.806 266.943 237.138 267.584L237.144 267.595L237.151 267.607C237.515 268.229 237.894 268.84 238.289 269.442L238.296 269.453L238.304 269.463C238.729 270.043 239.168 270.61 239.621 271.166L239.629 271.176L239.638 271.186C240.119 271.717 240.613 272.234 241.119 272.738L241.128 272.747L241.138 272.756C241.669 273.233 242.212 273.695 242.767 274.142L242.777 274.151L242.787 274.158C243.363 274.576 243.949 274.978 244.545 275.364L244.556 275.371L244.567 275.377C245.182 275.732 245.804 276.069 246.436 276.39L246.447 276.396L246.459 276.401C247.105 276.689 247.757 276.959 248.417 277.211L248.429 277.216L248.441 277.22C249.112 277.438 249.787 277.637 250.467 277.819L250.479 277.823L250.492 277.825C251.18 277.971 251.871 278.099 252.564 278.208L252.577 278.21L252.59 278.211C253.288 278.284 253.987 278.338 254.686 278.374L254.699 278.375L254.712 278.375C255.412 278.374 256.111 278.355 256.81 278.318L256.823 278.317L256.835 278.315C257.53 278.241 258.222 278.149 258.912 278.039L258.925 278.037L258.937 278.034C259.62 277.888 260.297 277.724 260.97 277.542L260.983 277.539L260.995 277.535C261.658 277.318 262.314 277.084 262.963 276.833L262.975 276.829L262.987 276.824C263.623 276.539 264.25 276.238 264.87 275.921L264.881 275.916L264.892 275.909C265.494 275.56 266.086 275.196 266.669 274.817L266.68 274.809L266.69 274.802C267.252 274.393 267.803 273.969 268.342 273.531L268.353 273.523L268.362 273.515C268.878 273.049 269.382 272.571 269.873 272.08L269.882 272.071L269.891 272.062C270.356 271.546 270.807 271.019 271.244 270.48L271.253 270.47L271.26 270.459C271.669 269.899 272.063 269.328 272.443 268.747L272.45 268.736L272.456 268.725C272.805 268.126 273.138 267.518 273.456 266.902L273.462 266.891L273.467 266.879C273.752 266.247 274.021 265.609 274.273 264.964L274.278 264.952L274.282 264.94C274.501 264.283 274.703 263.622 274.887 262.955L274.891 262.943L274.894 262.93C275.044 262.255 275.177 261.577 275.292 260.896L275.294 260.883L275.296 260.87C275.376 260.185 275.439 259.498 275.484 258.81L275.485 258.797L275.485 258.784C275.495 258.095 275.488 257.407 275.462 256.719L275.462 256.706L275.461 256.693C275.4 256.008 275.323 255.326 275.228 254.646L275.226 254.633L275.223 254.62C275.094 253.947 274.947 253.278 274.783 252.612L274.78 252.6L274.776 252.587C274.579 251.932 274.365 251.283 274.135 250.64L274.13 250.628L274.125 250.616C273.863 249.987 273.584 249.365 273.29 248.751L273.285 248.739L273.278 248.727C272.953 248.13 272.614 247.542 272.259 246.963L272.252 246.952L272.245 246.941C271.862 246.382 271.465 245.834 271.054 245.297L271.046 245.286L271.037 245.276C270.6 244.762 270.15 244.259 269.687 243.768L269.678 243.759L269.669 243.75C269.182 243.285 268.684 242.833 268.175 242.395L268.165 242.386L268.155 242.378C267.624 241.968 267.084 241.571 266.534 241.189L266.523 241.182L266.512 241.175C265.944 240.823 265.367 240.486 264.782 240.164L264.771 240.158L264.759 240.153C264.159 239.863 263.552 239.589 262.939 239.331L262.927 239.326L262.915 239.321C262.289 239.096 261.659 238.888 261.024 238.696L261.012 238.692L260.999 238.689C260.355 238.531 259.709 238.39 259.059 238.266L259.046 238.264L259.033 238.262C258.378 238.172 257.722 238.1 257.064 238.045L257.051 238.044L257.038 238.044C256.379 238.023 255.72 238.02 255.061 238.035L255.049 238.035L255.036 238.036C254.379 238.085 253.725 238.151 253.073 238.234L253.06 238.236L253.047 238.238C252.401 238.355 251.758 238.489 251.119 238.64L251.106 238.643L251.094 238.646C250.464 238.83 249.84 239.031 249.221 239.247L249.209 239.251L249.197 239.256C248.591 239.505 247.991 239.769 247.399 240.049L247.387 240.054L247.376 240.06C246.8 240.37 246.232 240.695 245.672 241.035L245.661 241.042L245.651 241.049C245.11 241.417 244.579 241.799 244.059 242.195L244.048 242.202L244.039 242.211C243.539 242.633 243.052 243.067 242.575 243.514L242.566 243.523L242.557 243.533C242.105 244.004 241.665 244.486 241.237 244.98L241.229 244.99L241.221 245C240.82 245.515 240.433 246.04 240.059 246.575L240.051 246.585L240.044 246.596C239.699 247.149 239.368 247.711 239.051 248.281L239.045 248.292L239.039 248.304C238.753 248.889 238.481 249.481 238.225 250.079L238.22 250.091L238.216 250.104C237.991 250.714 237.782 251.33 237.589 251.951L237.585 251.964L237.582 251.977C237.421 252.606 237.276 253.239 237.148 253.876L237.145 253.889L237.143 253.902C237.047 254.544 236.968 255.187 236.906 255.833L236.905 255.846L236.904 255.859C236.874 256.506 236.862 257.153 236.865 257.8L236.865 257.813L236.866 257.826C236.903 258.471 236.956 259.115 237.025 259.757L237.027 259.77L237.029 259.783C237.131 260.419 237.249 261.053 237.384 261.682L237.387 261.695L237.39 261.708C237.556 262.329 237.738 262.945 237.936 263.556L237.94 263.568L237.944 263.581C238.173 264.18 238.416 264.772 238.675 265.358L238.68 265.37L238.686 265.381C238.973 265.952 239.275 266.515 239.591 267.069L239.598 267.08L239.605 267.091C239.949 267.628 240.306 268.154 240.676 268.671L240.683 268.682L240.691 268.692C241.087 269.189 241.495 269.674 241.915 270.148L241.924 270.158L241.933 270.167C242.376 270.619 242.831 271.058 243.296 271.485L243.306 271.493L243.316 271.502C243.802 271.903 244.297 272.291 244.803 272.666L244.813 272.674L244.824 272.681C245.347 273.029 245.879 273.362 246.418 273.681L246.43 273.688L246.441 273.694C246.996 273.984 247.557 274.259 248.125 274.52L248.137 274.525L248.149 274.53C248.729 274.76 249.315 274.974 249.905 275.173L249.917 275.177L249.93 275.181C250.529 275.348 251.132 275.5 251.738 275.636L251.751 275.638L251.763 275.641C252.375 275.744 252.989 275.831 253.604 275.903L253.617 275.904L253.63 275.905C254.248 275.944 254.866 275.966 255.484 275.972L255.497 275.973L255.51 275.972C256.127 275.946 256.742 275.903 257.356 275.845L257.369 275.844L257.382 275.842C257.992 275.751 258.598 275.645 259.202 275.522L259.214 275.52L259.227 275.517C259.823 275.363 260.414 275.194 261 275.009L261.013 275.005L261.025 275.001C261.601 274.786 262.17 274.556 262.733 274.312L262.745 274.306L262.757 274.301C263.306 274.027 263.848 273.74 264.382 273.438L264.393 273.432L264.404 273.425C264.922 273.096 265.43 272.754 265.929 272.398L265.94 272.391L265.95 272.383C266.43 272.002 266.899 271.61 267.359 271.205L267.369 271.196L267.378 271.187C267.815 270.759 268.241 270.32 268.656 269.87L268.665 269.861L268.673 269.851C269.064 269.38 269.442 268.9 269.808 268.41L269.815 268.4L269.823 268.389C270.162 267.881 270.489 267.365 270.801 266.841L270.808 266.83L270.814 266.818C271.1 266.279 271.371 265.732 271.628 265.179L271.634 265.168L271.638 265.155C271.867 264.59 272.08 264.02 272.279 263.444L272.283 263.431L272.287 263.419C272.456 262.834 272.61 262.246 272.748 261.653L272.751 261.641L272.754 261.628C272.862 261.03 272.954 260.43 273.032 259.827L273.033 259.814L273.034 259.801C273.08 259.196 273.111 258.591 273.127 257.985L273.127 257.972L273.127 257.959C273.111 257.354 273.08 256.75 273.033 256.148L273.032 256.135L273.031 256.122C272.953 255.523 272.861 254.927 272.753 254.333L272.751 254.321L272.748 254.308C272.61 253.722 272.458 253.14 272.291 252.562L272.287 252.55L272.283 252.538C272.086 251.97 271.876 251.409 271.651 250.853L271.646 250.841L271.641 250.829C271.388 250.287 271.122 249.752 270.842 249.224L270.836 249.213L270.829 249.201C270.524 248.69 270.205 248.186 269.874 247.692L269.866 247.681L269.859 247.671C269.503 247.195 269.135 246.729 268.756 246.273L268.748 246.263L268.739 246.253C268.338 245.818 267.925 245.394 267.503 244.981L267.493 244.972L267.484 244.964C267.041 244.574 266.589 244.197 266.127 243.831L266.117 243.823L266.106 243.816C265.627 243.475 265.14 243.148 264.645 242.833L264.634 242.826L264.623 242.82C264.113 242.533 263.596 242.259 263.072 241.999L263.061 241.993L263.049 241.988C262.513 241.756 261.973 241.538 261.427 241.335L261.415 241.33L261.402 241.326C260.847 241.152 260.289 240.993 259.726 240.848L259.714 240.845L259.701 240.842C259.132 240.727 258.562 240.628 257.989 240.543L257.976 240.541L257.963 240.54C257.387 240.485 256.811 240.446 256.234 240.422L256.221 240.422L256.208 240.422C255.631 240.428 255.055 240.449 254.48 240.486L254.467 240.487L254.454 240.488C253.882 240.555 253.313 240.636 252.746 240.733L252.733 240.735L252.721 240.738C252.16 240.863 251.603 241.004 251.051 241.159L251.038 241.162L251.026 241.167C250.482 241.35 249.944 241.548 249.412 241.759L249.4 241.764L249.388 241.77C248.867 242.009 248.353 242.261 247.846 242.527L247.835 242.533L247.824 242.539C247.332 242.831 246.847 243.135 246.371 243.452L246.361 243.459L246.35 243.467C245.891 243.808 245.442 244.16 245.002 244.525L244.992 244.533L244.982 244.542C244.562 244.928 244.152 245.325 243.752 245.732L243.743 245.741L243.735 245.751C243.357 246.178 242.99 246.615 242.635 247.061L242.627 247.071L242.62 247.082C242.288 247.545 241.969 248.017 241.663 248.497L241.655 248.508L241.649 248.519C241.368 249.014 241.099 249.515 240.843 250.023L240.838 250.035L240.832 250.047C240.603 250.567 240.388 251.092 240.186 251.623L240.181 251.636L240.177 251.648C240.003 252.188 239.843 252.732 239.697 253.28L239.694 253.293L239.691 253.305C239.573 253.86 239.47 254.416 239.38 254.975L239.378 254.988L239.377 255.001C239.316 255.563 239.27 256.126 239.239 256.69L239.238 256.703L239.238 256.716C239.235 257.28 239.247 257.844 239.273 258.407L239.274 258.42L239.275 258.433C239.33 258.993 239.399 259.551 239.482 260.106L239.484 260.119L239.487 260.132C239.598 260.682 239.724 261.228 239.863 261.771L239.866 261.784L239.87 261.796C240.037 262.33 240.217 262.859 240.41 263.383L240.415 263.395L240.42 263.407C240.639 263.919 240.872 264.425 241.117 264.925L241.123 264.937L241.129 264.948C241.4 265.433 241.682 265.911 241.976 266.381L241.983 266.392L241.99 266.403C242.308 266.856 242.637 267.3 242.977 267.736L242.985 267.746L242.993 267.756C243.354 268.172 243.726 268.579 244.107 268.976L244.116 268.985L244.126 268.994C244.526 269.369 244.936 269.734 245.355 270.087L245.365 270.096L245.376 270.103C245.812 270.434 246.255 270.753 246.707 271.06L246.718 271.067L246.729 271.074C247.195 271.356 247.668 271.626 248.147 271.883L248.159 271.889L248.17 271.895C248.662 272.126 249.158 272.344 249.66 272.549L249.672 272.554L249.684 272.558C250.195 272.737 250.71 272.901 251.229 273.052L251.241 273.056L251.254 273.059C251.779 273.182 252.307 273.291 252.837 273.387L252.85 273.389L252.862 273.391C253.396 273.458 253.931 273.511 254.466 273.55L254.479 273.551L254.492 273.552C255.028 273.563 255.564 273.56 256.1 273.542L256.112 273.542L256.125 273.541C256.658 273.496 257.19 273.437 257.719 273.364L257.732 273.362L257.745 273.359C258.269 273.259 258.79 273.145 259.308 273.017L259.321 273.014L259.333 273.01C259.843 272.855 260.348 272.687 260.849 272.506L260.861 272.502L260.873 272.497C261.363 272.29 261.847 272.071 262.326 271.839L262.337 271.833L262.349 271.827C262.814 271.57 263.272 271.302 263.723 271.022L263.734 271.015L263.745 271.008C264.18 270.704 264.607 270.39 265.026 270.065L265.036 270.057L265.046 270.049C265.447 269.702 265.839 269.346 266.221 268.98L266.23 268.971L266.239 268.961C266.602 268.576 266.954 268.181 267.296 267.778L267.305 267.768L267.313 267.757C267.633 267.337 267.942 266.909 268.241 266.473L268.248 266.462L268.255 266.451C268.53 266 268.793 265.543 269.044 265.079L269.051 265.068L269.056 265.056C269.283 264.58 269.498 264.099 269.7 263.613L269.705 263.601L269.709 263.588C269.886 263.093 270.05 262.593 270.201 262.089L270.205 262.077L270.208 262.064C270.333 261.554 270.444 261.041 270.543 260.525L270.545 260.512L270.547 260.499C270.619 259.98 270.677 259.46 270.723 258.938L270.724 258.925L270.724 258.912C270.743 258.389 270.748 257.867 270.739 257.344L270.739 257.331L270.738 257.318C270.703 256.798 270.655 256.279 270.593 255.762L270.592 255.749L270.59 255.736C270.502 255.223 270.401 254.714 270.287 254.207L270.285 254.194L270.281 254.182C270.142 253.682 269.99 253.187 269.826 252.697L269.821 252.684L269.817 252.672C269.628 252.191 269.427 251.716 269.214 251.247L269.208 251.235L269.202 251.223C268.966 250.766 268.718 250.316 268.459 249.872L268.452 249.861L268.445 249.85C268.164 249.421 267.872 249 267.57 248.588L267.562 248.577L267.554 248.567C267.231 248.171 266.899 247.784 266.557 247.406L266.548 247.397L266.539 247.387C266.179 247.028 265.81 246.679 265.432 246.34L265.422 246.332L265.412 246.324C265.018 246.005 264.617 245.698 264.208 245.401L264.197 245.393L264.186 245.386C263.763 245.111 263.333 244.848 262.897 244.597L262.886 244.59L262.874 244.584C262.427 244.356 261.974 244.14 261.515 243.936L261.504 243.931L261.491 243.926C261.024 243.747 260.553 243.58 260.077 243.425L260.065 243.421L260.052 243.418C259.571 243.289 259.086 243.173 258.599 243.069L258.586 243.067L258.573 243.065C258.082 242.987 257.59 242.922 257.096 242.871L257.083 242.87L257.07 242.869C256.575 242.843 256.08 242.831 255.585 242.831L255.572 242.831L255.559 242.832C255.065 242.858 254.573 242.898 254.082 242.95L254.069 242.951L254.056 242.953C253.569 243.031 253.085 243.122 252.603 243.225L252.59 243.228L252.578 243.231C252.103 243.359 251.631 243.5 251.164 243.653L251.152 243.657L251.14 243.661C250.681 243.838 250.228 244.027 249.78 244.227L249.768 244.232L249.757 244.238C249.32 244.462 248.89 244.696 248.466 244.942L248.455 244.948L248.444 244.956C248.034 245.223 247.631 245.5 247.236 245.788L247.225 245.796L247.215 245.804C246.835 246.112 246.464 246.43 246.101 246.757L246.091 246.765L246.082 246.775C245.737 247.12 245.401 247.474 245.075 247.836L245.066 247.846L245.058 247.856C244.75 248.234 244.453 248.62 244.166 249.014L244.159 249.024L244.151 249.035C243.885 249.443 243.63 249.857 243.385 250.277L243.379 250.289L243.373 250.3C243.15 250.732 242.939 251.17 242.739 251.612L242.734 251.624L242.729 251.636C242.552 252.088 242.388 252.544 242.234 253.004L242.23 253.016L242.227 253.029C242.098 253.495 241.981 253.965 241.876 254.437L241.873 254.45L241.871 254.462C241.79 254.939 241.722 255.417 241.666 255.896L241.664 255.909L241.663 255.922C241.632 256.403 241.613 256.884 241.606 257.365L241.606 257.378L241.606 257.391C241.624 257.871 241.654 258.35 241.696 258.828L241.698 258.841L241.699 258.854C241.766 259.328 241.845 259.8 241.935 260.27L241.938 260.283L241.941 260.296C242.055 260.759 242.181 261.219 242.319 261.675L242.323 261.688L242.327 261.7C242.488 262.148 242.66 262.591 242.843 263.029L242.848 263.041L242.853 263.052C243.058 263.48 243.274 263.901 243.5 264.316L243.506 264.328L243.513 264.339C243.76 264.741 244.016 265.136 244.283 265.525L244.29 265.535L244.298 265.546C244.584 265.919 244.879 266.284 245.183 266.641L245.191 266.651L245.2 266.66C245.521 267.001 245.851 267.332 246.189 267.654L246.198 267.663L246.208 267.672C246.561 267.975 246.922 268.27 247.29 268.554L247.3 268.562L247.311 268.569C247.692 268.834 248.08 269.087 248.473 269.331L248.484 269.338L248.496 269.344C248.901 269.566 249.311 269.777 249.726 269.978L249.738 269.983L249.75 269.988C250.174 270.166 250.603 270.333 251.035 270.488L251.047 270.493L251.059 270.496C251.498 270.628 251.94 270.749 252.385 270.858L252.397 270.861L252.41 270.863C252.859 270.948 253.309 271.021 253.761 271.083L253.774 271.084L253.786 271.085C254.24 271.123 254.694 271.148 255.149 271.162L255.161 271.162L255.174 271.162C255.628 271.152 256.081 271.129 256.533 271.095L256.546 271.094L256.558 271.093C257.007 271.035 257.454 270.965 257.899 270.884L257.912 270.882L257.924 270.879C258.363 270.775 258.799 270.659 259.232 270.532L259.245 270.529L259.257 270.524C259.682 270.375 260.102 270.215 260.519 270.044L260.53 270.039L260.542 270.033C260.948 269.841 261.349 269.638 261.744 269.425L261.756 269.418L261.767 269.412C262.15 269.178 262.527 268.935 262.897 268.682L262.908 268.675L262.918 268.667C263.274 268.396 263.623 268.115 263.964 267.826L263.974 267.817L263.984 267.808C264.309 267.502 264.627 267.187 264.936 266.865L264.945 266.855L264.953 266.845C265.245 266.507 265.527 266.162 265.801 265.81L265.809 265.8L265.816 265.789C266.071 265.423 266.316 265.051 266.552 264.673L266.559 264.662L266.565 264.651C266.78 264.262 266.985 263.867 267.18 263.468L267.186 263.456L267.191 263.444C267.365 263.036 267.528 262.623 267.681 262.207L267.685 262.195L267.689 262.182C267.82 261.759 267.94 261.333 268.049 260.904L268.052 260.891L268.054 260.879C268.141 260.445 268.217 260.01 268.281 259.574L268.283 259.561L268.284 259.548C268.326 259.109 268.356 258.67 268.375 258.23L268.376 258.217L268.376 258.204C268.373 257.764 268.358 257.326 268.333 256.888L268.332 256.875L268.33 256.862C268.282 256.426 268.223 255.993 268.153 255.561L268.151 255.549L268.148 255.536C268.056 255.109 267.954 254.686 267.84 254.265L267.837 254.252L267.833 254.24C267.698 253.827 267.553 253.417 267.398 253.012L267.393 253L267.388 252.988C267.212 252.592 267.027 252.202 266.832 251.816L266.826 251.805L266.819 251.793C266.605 251.419 266.381 251.052 266.149 250.69L266.142 250.679L266.134 250.668C265.883 250.32 265.624 249.979 265.357 249.644L265.348 249.634L265.34 249.624C265.056 249.305 264.764 248.994 264.465 248.69L264.455 248.681L264.446 248.672C264.132 248.386 263.811 248.107 263.483 247.838L263.473 247.83L263.463 247.822C263.122 247.571 262.776 247.328 262.423 247.095L262.412 247.088L262.401 247.082C262.038 246.868 261.67 246.664 261.297 246.47L261.285 246.464L261.273 246.459C260.891 246.285 260.506 246.121 260.116 245.968L260.104 245.963L260.092 245.959C259.695 245.827 259.296 245.705 258.894 245.593L258.882 245.59L258.869 245.587C258.463 245.497 258.054 245.418 257.645 245.35L257.632 245.348L257.619 245.347C257.207 245.3 256.794 245.264 256.381 245.24L256.368 245.239L256.355 245.239C255.942 245.236 255.529 245.243 255.117 245.262L255.104 245.263L255.091 245.264C254.681 245.304 254.273 245.355 253.866 245.417L253.853 245.418L253.841 245.421C253.438 245.504 253.039 245.597 252.642 245.701L252.629 245.704L252.617 245.708C252.226 245.832 251.84 245.966 251.457 246.11L251.445 246.115L251.433 246.12C251.058 246.284 250.689 246.457 250.324 246.64L250.312 246.646L250.301 246.653C249.946 246.854 249.597 247.065 249.254 247.285L249.243 247.292L249.233 247.299C248.902 247.536 248.578 247.781 248.26 248.035L248.25 248.043L248.24 248.052C247.936 248.321 247.639 248.598 247.35 248.883L247.341 248.892L247.332 248.902C247.058 249.201 246.793 249.506 246.535 249.819L246.527 249.829L246.519 249.839C246.278 250.164 246.046 250.495 245.822 250.832L245.815 250.842L245.808 250.854C245.602 251.201 245.406 251.553 245.218 251.91L245.212 251.922L245.207 251.934C245.038 252.3 244.879 252.669 244.73 253.043L244.725 253.055L244.721 253.067C244.591 253.448 244.471 253.831 244.361 254.217L244.357 254.229L244.354 254.242C244.264 254.633 244.184 255.025 244.115 255.419L244.112 255.432L244.111 255.445C244.061 255.841 244.022 256.238 243.993 256.636L243.992 256.649L243.992 256.662C243.983 257.061 243.985 257.458 243.997 257.856L243.997 257.869L243.998 257.882C244.03 258.278 244.072 258.672 244.124 259.065L244.126 259.077L244.128 259.09C244.2 259.479 244.282 259.865 244.374 260.249L244.377 260.262L244.38 260.274C244.491 260.652 244.612 261.027 244.742 261.397L244.746 261.41L244.751 261.422C244.899 261.785 245.057 262.143 245.224 262.497L245.229 262.509L245.235 262.52C245.419 262.864 245.612 263.203 245.813 263.537L245.82 263.548L245.827 263.559C246.045 263.88 246.27 264.196 246.503 264.505L246.511 264.516L246.519 264.526C246.768 264.822 247.023 265.111 247.286 265.393L247.295 265.403L247.304 265.412C247.581 265.68 247.863 265.94 248.152 266.192L248.162 266.2L248.172 266.208C248.473 266.445 248.78 266.673 249.092 266.893L249.103 266.9L249.114 266.907C249.436 267.11 249.764 267.304 250.095 267.489L250.107 267.495L250.118 267.501C250.459 267.668 250.803 267.826 251.15 267.975L251.162 267.98L251.174 267.984C251.529 268.114 251.886 268.235 252.245 268.346L252.258 268.35L252.27 268.353C252.635 268.445 253.001 268.527 253.369 268.6L253.381 268.602L253.394 268.604C253.764 268.657 254.136 268.7 254.508 268.734L254.52 268.735L254.533 268.735C254.906 268.749 255.278 268.753 255.65 268.747L255.663 268.747L255.676 268.746C256.046 268.721 256.416 268.686 256.784 268.641L256.797 268.639L256.809 268.637C257.174 268.573 257.536 268.5 257.897 268.417L257.909 268.414L257.922 268.411C258.276 268.309 258.628 268.199 258.977 268.079L258.989 268.075L259.001 268.07C259.342 267.932 259.679 267.786 260.013 267.631L260.024 267.626L260.036 267.62C260.36 267.447 260.679 267.267 260.994 267.079L261.005 267.072L261.015 267.065C261.319 266.86 261.617 266.648 261.91 266.429L261.92 266.421L261.93 266.412C262.21 266.178 262.484 265.937 262.751 265.689L262.761 265.68L262.77 265.67C263.023 265.409 263.27 265.141 263.51 264.867L263.518 264.857L263.526 264.847C263.751 264.562 263.968 264.27 264.178 263.974L264.185 263.963L264.192 263.952C264.386 263.646 264.572 263.334 264.749 263.019L264.756 263.007L264.761 262.996C264.922 262.672 265.074 262.344 265.218 262.012L265.223 262L265.228 261.988C265.354 261.65 265.471 261.31 265.58 260.966L265.584 260.954L265.587 260.941C265.678 260.593 265.759 260.243 265.832 259.892L265.835 259.879L265.837 259.866C265.891 259.512 265.936 259.157 265.973 258.801L265.974 258.788L265.975 258.775C265.992 258.418 266.001 258.061 266.001 257.705L266.001 257.692L266 257.678C265.981 257.323 265.954 256.969 265.917 256.616L265.916 256.603L265.914 256.59C265.859 256.24 265.795 255.892 265.723 255.546L265.72 255.533L265.717 255.52C265.627 255.179 265.529 254.841 265.422 254.505L265.418 254.493L265.413 254.481C265.29 254.152 265.158 253.827 265.018 253.506L265.012 253.494L265.007 253.483C264.851 253.17 264.687 252.862 264.515 252.559L264.509 252.547L264.502 252.536C264.316 252.243 264.122 251.955 263.921 251.672L263.914 251.661L263.906 251.651C263.691 251.38 263.47 251.115 263.242 250.856L263.234 250.846L263.225 250.837C262.984 250.591 262.738 250.351 262.486 250.118L262.477 250.109L262.467 250.101C262.204 249.882 261.936 249.671 261.662 249.466L261.652 249.459L261.641 249.451C261.358 249.262 261.071 249.081 260.78 248.907L260.769 248.9L260.757 248.894C260.458 248.736 260.155 248.586 259.848 248.445L259.836 248.439L259.824 248.434C259.512 248.309 259.196 248.193 258.878 248.084L258.866 248.08L258.853 248.077C258.531 247.985 258.207 247.903 257.88 247.829L257.868 247.826L257.855 247.824C257.526 247.767 257.197 247.719 256.866 247.68L256.853 247.678L256.84 247.677C256.509 247.656 256.177 247.643 255.846 247.638L255.833 247.638L255.82 247.639C255.489 247.652 255.16 247.674 254.831 247.704L254.818 247.705L254.805 247.707C254.479 247.755 254.155 247.811 253.832 247.875L253.82 247.878L253.807 247.881C253.489 247.962 253.173 248.052 252.86 248.149L252.848 248.153L252.836 248.158C252.529 248.271 252.226 248.393 251.926 248.522L251.914 248.528L251.902 248.533C251.61 248.678 251.322 248.83 251.038 248.99L251.026 248.996L251.015 249.003C250.74 249.177 250.47 249.358 250.205 249.546L250.195 249.553L250.185 249.561C249.93 249.762 249.681 249.97 249.438 250.183L249.428 250.192L249.419 250.201C249.187 250.427 248.961 250.658 248.742 250.895L248.733 250.905L248.725 250.915C248.519 251.162 248.319 251.415 248.126 251.673L248.118 251.683L248.111 251.694C247.931 251.961 247.759 252.233 247.594 252.508L247.588 252.519L247.581 252.531C247.431 252.814 247.288 253.101 247.153 253.391L247.147 253.403L247.143 253.415C247.023 253.711 246.91 254.01 246.806 254.311L246.801 254.323L246.798 254.336C246.709 254.642 246.628 254.95 246.555 255.259L246.552 255.272L246.55 255.285C246.493 255.597 246.445 255.91 246.404 256.224L246.402 256.237L246.401 256.25C246.377 256.565 246.361 256.88 246.353 257.196L246.352 257.209L246.353 257.222C246.36 257.537 246.376 257.85 246.4 258.164L246.401 258.177L246.403 258.19C246.443 258.5 246.491 258.809 246.546 259.117L246.549 259.13L246.552 259.143C246.623 259.446 246.701 259.747 246.788 260.046L246.792 260.059L246.796 260.071C246.897 260.364 247.006 260.654 247.122 260.941L247.127 260.953L247.132 260.965C247.262 261.244 247.399 261.52 247.543 261.792L247.55 261.804L247.556 261.815C247.714 262.078 247.878 262.337 248.048 262.591L248.055 262.602L248.063 262.612C248.246 262.856 248.434 263.096 248.629 263.329L248.637 263.339L248.646 263.349C248.852 263.572 249.063 263.789 249.279 264L249.288 264.009L249.298 264.018C249.524 264.217 249.755 264.409 249.991 264.596L250.001 264.604L250.012 264.611C250.256 264.785 250.505 264.952 250.757 265.112L250.768 265.118L250.78 265.125C251.039 265.271 251.302 265.41 251.568 265.542L251.58 265.548L251.592 265.553C251.864 265.67 252.138 265.781 252.415 265.884L252.427 265.888L252.44 265.892C252.721 265.98 253.004 266.06 253.289 266.133L253.301 266.136L253.314 266.139C253.601 266.197 253.89 266.247 254.179 266.289L254.192 266.291L254.205 266.292C254.495 266.319 254.786 266.338 255.076 266.35L255.089 266.351L255.102 266.35C255.392 266.347 255.682 266.336 255.971 266.317L255.984 266.316L255.997 266.314C256.284 266.28 256.569 266.239 256.853 266.19L256.866 266.188L256.879 266.185C257.159 266.122 257.438 266.051 257.714 265.973L257.727 265.969L257.739 265.965C258.01 265.873 258.279 265.773 258.544 265.667L258.556 265.662L258.568 265.657C258.827 265.537 259.083 265.411 259.335 265.278L259.347 265.272L259.358 265.265C259.602 265.12 259.842 264.968 260.079 264.81L260.089 264.803L260.1 264.795C260.327 264.625 260.549 264.45 260.767 264.269L260.777 264.261L260.786 264.252C260.994 264.06 261.196 263.863 261.393 263.661L261.402 263.652L261.411 263.642C261.596 263.431 261.777 263.215 261.951 262.994L261.959 262.984L261.967 262.973C262.129 262.745 262.285 262.512 262.435 262.276L262.442 262.265L262.449 262.253C262.586 262.01 262.717 261.763 262.842 261.514L262.848 261.502L262.853 261.49C262.964 261.235 263.069 260.977 263.167 260.717L263.171 260.704L263.175 260.692C263.259 260.428 263.337 260.162 263.407 259.894L263.41 259.881L263.413 259.868C263.469 259.598 263.519 259.327 263.561 259.054L263.563 259.041L263.564 259.028C263.593 258.755 263.614 258.481 263.628 258.207L263.629 258.194L263.629 258.181C263.629 257.907 263.622 257.634 263.608 257.362L263.608 257.349L263.606 257.336C263.578 257.065 263.544 256.795 263.502 256.527L263.5 256.514L263.498 256.501C263.443 256.236 263.381 255.973 263.313 255.712L263.309 255.699L263.305 255.687C263.224 255.43 263.136 255.176 263.042 254.925L263.037 254.912L263.032 254.9C262.925 254.655 262.813 254.413 262.694 254.174L262.688 254.162L262.682 254.151C262.551 253.919 262.415 253.692 262.273 253.468L262.266 253.457L262.258 253.446C262.106 253.23 261.948 253.019 261.784 252.813L261.776 252.802L261.768 252.793C261.595 252.595 261.417 252.403 261.234 252.215L261.225 252.206L261.216 252.197C261.024 252.02 260.829 251.848 260.629 251.682L260.619 251.674L260.609 251.666C260.401 251.511 260.19 251.361 259.976 251.217L259.965 251.21L259.954 251.203C259.733 251.072 259.509 250.946 259.282 250.826L259.271 250.82L259.259 250.814C259.027 250.707 258.792 250.606 258.556 250.511L258.544 250.506L258.531 250.502C258.291 250.42 258.049 250.345 257.805 250.276L257.792 250.272L257.78 250.269C257.534 250.213 257.286 250.164 257.038 250.121L257.025 250.119L257.012 250.117C256.763 250.088 256.513 250.065 256.264 250.048L256.251 250.047L256.238 250.047C255.988 250.044 255.739 250.047 255.49 250.057L255.477 250.058L255.464 250.059C255.217 250.082 254.97 250.111 254.725 250.147L254.712 250.149L254.7 250.152C254.457 250.2 254.217 250.255 253.978 250.316L253.965 250.319L253.953 250.323C253.718 250.397 253.486 250.476 253.256 250.561L253.244 250.566L253.232 250.571C253.007 250.668 252.785 250.771 252.566 250.88L252.555 250.885L252.543 250.892C252.331 251.011 252.122 251.136 251.917 251.266L251.906 251.273L251.895 251.281C251.697 251.421 251.503 251.567 251.313 251.717L251.303 251.725L251.293 251.734C251.112 251.893 250.935 252.057 250.762 252.226L250.753 252.235L250.744 252.245C250.581 252.422 250.423 252.602 250.269 252.787L250.261 252.797L250.253 252.807C250.11 252.999 249.972 253.195 249.839 253.394L249.831 253.404L249.825 253.416C249.702 253.62 249.586 253.828 249.474 254.039L249.468 254.05L249.463 254.062C249.363 254.277 249.268 254.495 249.18 254.715L249.175 254.727L249.171 254.739C249.094 254.962 249.022 255.187 248.957 255.414L248.954 255.427L248.951 255.439C248.897 255.668 248.85 255.898 248.808 256.129L248.806 256.142L248.804 256.155C248.775 256.387 248.751 256.619 248.734 256.852L248.733 256.865L248.733 256.878C248.727 257.111 248.728 257.343 248.734 257.575L248.734 257.588L248.735 257.601C248.754 257.831 248.778 258.061 248.808 258.289L248.809 258.302L248.812 258.315C248.853 258.541 248.9 258.765 248.953 258.988L248.956 259.001L248.96 259.014C249.024 259.233 249.093 259.449 249.168 259.664L249.173 259.677L249.178 259.689C249.263 259.899 249.354 260.106 249.45 260.31L249.455 260.322L249.462 260.334C249.568 260.532 249.678 260.727 249.794 260.92L249.801 260.931L249.808 260.942C249.933 261.127 250.063 261.308 250.197 261.486L250.204 261.496L250.213 261.506C250.355 261.676 250.502 261.842 250.652 262.004L250.661 262.014L250.67 262.023C250.828 262.176 250.99 262.324 251.155 262.468L251.165 262.477L251.175 262.485C251.347 262.62 251.522 262.75 251.7 262.875L251.711 262.883L251.722 262.889C251.905 263.005 252.091 263.115 252.28 263.22L252.292 263.226L252.303 263.232C252.496 263.327 252.692 263.416 252.889 263.5L252.901 263.506L252.913 263.51C253.113 263.583 253.315 263.651 253.519 263.714L253.531 263.718L253.544 263.721C253.75 263.773 253.956 263.819 254.164 263.859L254.176 263.862L254.189 263.863C254.398 263.893 254.607 263.917 254.816 263.935L254.829 263.936L254.842 263.937C255.051 263.944 255.259 263.946 255.468 263.942L255.481 263.942L255.494 263.941C255.701 263.926 255.908 263.906 256.113 263.881L256.126 263.879L256.139 263.877C256.342 263.841 256.544 263.799 256.745 263.753L256.758 263.75L256.77 263.746C256.968 263.689 257.163 263.627 257.356 263.56L257.369 263.556L257.381 263.551C257.57 263.474 257.757 263.392 257.941 263.305L257.953 263.3L257.964 263.294C258.143 263.198 258.319 263.098 258.493 262.993L258.504 262.986L258.515 262.979C258.682 262.865 258.845 262.748 259.006 262.626L259.016 262.618L259.026 262.61C259.18 262.48 259.33 262.347 259.476 262.21L259.485 262.201L259.494 262.192C259.633 262.048 259.767 261.9 259.898 261.75L259.906 261.74L259.914 261.73C260.037 261.573 260.154 261.413 260.268 261.251L260.275 261.24L260.282 261.229C260.387 261.061 260.487 260.891 260.583 260.719L260.589 260.708L260.595 260.696C260.681 260.519 260.763 260.341 260.84 260.161L260.845 260.149L260.849 260.136C260.917 259.953 260.979 259.768 261.037 259.582L261.04 259.57L261.044 259.557C261.091 259.369 261.134 259.18 261.172 258.99L261.175 258.977L261.177 258.964C261.205 258.774 261.228 258.582 261.246 258.391L261.247 258.378L261.248 258.365C261.256 258.174 261.259 257.982 261.257 257.792L261.257 257.778L261.257 257.765C261.245 257.576 261.229 257.387 261.208 257.198L261.206 257.185L261.204 257.172C261.174 256.986 261.139 256.801 261.099 256.617L261.096 256.604L261.092 256.592C261.043 256.411 260.989 256.232 260.931 256.055L260.927 256.042L260.922 256.03C260.856 255.857 260.784 255.686 260.709 255.517L260.703 255.505L260.697 255.493C260.614 255.329 260.526 255.168 260.434 255.009L260.428 254.998L260.421 254.987C260.321 254.834 260.218 254.683 260.111 254.536L260.104 254.526L260.095 254.516C259.982 254.375 259.865 254.237 259.744 254.103L259.736 254.093L259.726 254.084C259.6 253.957 259.47 253.834 259.338 253.714L259.328 253.705L259.318 253.697C259.18 253.585 259.04 253.476 258.897 253.372L258.886 253.364L258.875 253.357C258.728 253.261 258.578 253.169 258.426 253.081L258.415 253.074L258.403 253.068C258.248 252.989 258.091 252.913 257.932 252.842L257.92 252.837L257.908 252.832C257.747 252.77 257.584 252.712 257.42 252.659L257.408 252.655L257.395 252.651C257.23 252.607 257.063 252.567 256.896 252.531L256.883 252.528L256.87 252.526C256.702 252.5 256.534 252.478 256.365 252.46L256.353 252.459L256.34 252.458C256.171 252.449 256.003 252.445 255.835 252.445L255.822 252.446L255.809 252.446C255.642 252.455 255.475 252.469 255.309 252.487L255.296 252.488L255.283 252.49C255.119 252.517 254.957 252.547 254.795 252.582L254.782 252.585L254.77 252.588C254.611 252.632 254.453 252.679 254.297 252.731L254.285 252.735L254.272 252.739C254.12 252.799 253.969 252.862 253.821 252.929L253.809 252.934L253.797 252.94C253.653 253.015 253.511 253.093 253.371 253.175L253.36 253.181L253.349 253.188C253.214 253.277 253.082 253.369 252.952 253.464L252.942 253.472L252.932 253.48C252.808 253.582 252.687 253.686 252.569 253.794L252.559 253.803L252.55 253.812C252.438 253.925 252.33 254.041 252.224 254.159L252.215 254.169L252.207 254.179C252.109 254.302 252.013 254.428 251.921 254.555L251.914 254.566L251.907 254.577C251.822 254.709 251.741 254.843 251.663 254.978L251.656 254.99L251.651 255.001C251.58 255.14 251.514 255.281 251.451 255.422L251.446 255.434L251.441 255.447C251.386 255.591 251.335 255.736 251.288 255.883L251.284 255.895L251.281 255.908C251.241 256.056 251.205 256.204 251.174 256.354L251.171 256.366L251.169 256.379C251.145 256.529 251.125 256.68 251.109 256.83L251.108 256.843L251.107 256.856C251.099 257.007 251.095 257.157 251.094 257.307L251.094 257.32L251.095 257.333C251.102 257.482 251.113 257.63 251.128 257.778L251.129 257.791L251.131 257.804C251.154 257.95 251.18 258.095 251.209 258.24L251.212 258.252L251.215 258.265C251.252 258.407 251.293 258.547 251.337 258.686L251.341 258.698L251.345 258.711C251.396 258.846 251.45 258.98 251.508 259.112L251.513 259.124L251.519 259.136C251.583 259.265 251.65 259.391 251.72 259.515L251.727 259.526L251.734 259.537C251.81 259.657 251.889 259.774 251.97 259.889L251.978 259.9L251.986 259.91C252.073 260.02 252.163 260.128 252.255 260.232L252.264 260.242L252.273 260.252C252.37 260.351 252.47 260.447 252.571 260.54L252.581 260.549L252.591 260.558C252.697 260.645 252.804 260.729 252.914 260.811L252.924 260.818L252.935 260.826C253.048 260.901 253.163 260.972 253.279 261.041L253.29 261.048L253.302 261.054C253.421 261.116 253.541 261.174 253.663 261.23L253.674 261.235L253.687 261.24C253.81 261.288 253.934 261.334 254.06 261.375L254.072 261.379L254.085 261.383C254.211 261.418 254.338 261.449 254.466 261.477L254.478 261.48L254.491 261.482C254.619 261.503 254.747 261.521 254.876 261.535L254.889 261.536L254.902 261.537C255.03 261.544 255.158 261.548 255.286 261.548L255.299 261.548L255.312 261.548C255.439 261.542 255.565 261.532 255.691 261.519L255.704 261.518L255.717 261.516C255.841 261.496 255.964 261.473 256.087 261.447L256.099 261.444L256.112 261.441C256.232 261.409 256.351 261.373 256.469 261.335L256.481 261.331L256.494 261.326C256.608 261.282 256.722 261.235 256.834 261.184L256.846 261.179L256.857 261.173C256.966 261.117 257.073 261.059 257.178 260.998L257.189 260.991L257.2 260.984C257.301 260.918 257.4 260.849 257.497 260.778L257.508 260.77L257.518 260.762C257.61 260.686 257.701 260.608 257.789 260.528L257.799 260.519L257.808 260.51C257.891 260.426 257.972 260.34 258.05 260.252L258.059 260.242L258.067 260.231C258.141 260.14 258.211 260.047 258.279 259.952L258.287 259.941L258.294 259.93C258.357 259.832 258.417 259.733 258.474 259.633L258.481 259.622L258.487 259.61C258.538 259.507 258.587 259.403 258.633 259.299L258.638 259.287L258.643 259.274C258.683 259.168 258.72 259.061 258.755 258.953L258.759 258.941L258.762 258.928C258.791 258.819 258.816 258.71 258.839 258.601L258.842 258.588L258.844 258.575C258.846 258.562 258.848 258.549 258.85 258.536C258.905 258.278 258.934 258.009 258.934 257.734C258.934 255.652 257.269 253.965 255.215 253.965C254.488 253.965 253.809 254.176 253.236 254.542C253.238 254.539 253.241 254.537 253.243 254.534C253.342 254.445 253.443 254.357 253.547 254.272C253.655 254.193 253.766 254.115 253.879 254.041C253.997 253.973 254.116 253.907 254.237 253.844C254.362 253.788 254.489 253.735 254.617 253.685C254.748 253.642 254.881 253.602 255.015 253.565C255.151 253.536 255.289 253.51 255.427 253.487C255.567 253.472 255.708 253.461 255.849 253.453C255.991 253.453 256.134 253.457 256.276 253.464C256.419 253.479 256.562 253.498 256.704 253.52C256.846 253.55 256.987 253.584 257.128 253.622C257.267 253.668 257.405 253.717 257.543 253.77C257.677 253.83 257.811 253.894 257.944 253.962C258.073 254.037 258.2 254.116 258.326 254.197C258.448 254.287 258.568 254.379 258.685 254.475C258.798 254.577 258.909 254.682 259.017 254.791C259.12 254.906 259.22 255.023 259.318 255.144C259.409 255.27 259.497 255.398 259.583 255.53C259.661 255.666 259.736 255.804 259.808 255.945C259.873 256.09 259.934 256.237 259.992 256.386C260.042 256.538 260.088 256.692 260.13 256.847C260.164 257.005 260.195 257.164 260.221 257.325C260.239 257.487 260.253 257.65 260.263 257.813C260.264 257.978 260.262 258.143 260.255 258.308C260.239 258.473 260.219 258.638 260.195 258.803C260.162 258.967 260.125 259.13 260.084 259.293C260.034 259.454 259.98 259.614 259.922 259.773C259.855 259.929 259.784 260.083 259.71 260.237C259.627 260.386 259.54 260.533 259.449 260.679C259.35 260.82 259.248 260.958 259.142 261.095C259.029 261.226 258.912 261.354 258.791 261.479C258.664 261.598 258.534 261.714 258.4 261.827C258.26 261.933 258.117 262.035 257.972 262.134C257.821 262.225 257.667 262.313 257.511 262.397C257.35 262.472 257.187 262.543 257.022 262.611C256.853 262.669 256.682 262.723 256.51 262.773C256.334 262.814 256.158 262.85 255.98 262.882C255.8 262.904 255.619 262.922 255.438 262.935C255.255 262.938 255.072 262.936 254.889 262.93C254.705 262.914 254.522 262.893 254.339 262.867C254.157 262.831 253.976 262.791 253.795 262.746C253.617 262.691 253.439 262.631 253.263 262.567C253.09 262.493 252.918 262.414 252.748 262.331C252.582 262.238 252.418 262.141 252.256 262.04C252.1 261.929 251.946 261.815 251.794 261.696C251.649 261.569 251.506 261.438 251.367 261.303C251.234 261.16 251.105 261.014 250.979 260.864C250.861 260.707 250.747 260.547 250.636 260.383C250.534 260.214 250.436 260.041 250.342 259.866C250.258 259.685 250.177 259.501 250.101 259.316C250.035 259.126 249.974 258.934 249.917 258.74C249.87 258.543 249.829 258.344 249.792 258.144C249.765 257.941 249.744 257.738 249.728 257.533C249.722 257.328 249.722 257.122 249.726 256.915C249.742 256.709 249.763 256.503 249.789 256.297C249.826 256.092 249.868 255.887 249.915 255.684C249.974 255.483 250.037 255.282 250.105 255.084C250.184 254.888 250.268 254.695 250.357 254.503C250.456 254.316 250.56 254.131 250.669 253.948C250.787 253.771 250.911 253.597 251.038 253.426C251.175 253.262 251.316 253.1 251.462 252.943C251.616 252.792 251.774 252.646 251.935 252.503C252.105 252.369 252.278 252.239 252.455 252.114C252.639 251.998 252.825 251.886 253.015 251.779C253.211 251.682 253.409 251.59 253.61 251.503C253.816 251.427 254.024 251.356 254.234 251.29C254.448 251.236 254.663 251.186 254.88 251.143C255.1 251.111 255.32 251.085 255.542 251.064C255.765 251.055 255.988 251.052 256.212 251.055C256.436 251.07 256.66 251.09 256.884 251.117C257.107 251.155 257.329 251.2 257.55 251.25C257.769 251.312 257.986 251.38 258.202 251.453C258.415 251.538 258.625 251.629 258.834 251.726C259.038 251.833 259.239 251.947 259.438 252.065C259.631 252.195 259.821 252.329 260.008 252.469C260.187 252.619 260.363 252.773 260.536 252.933C260.7 253.101 260.86 253.275 261.016 253.452C261.163 253.639 261.305 253.829 261.443 254.023C261.571 254.225 261.694 254.431 261.812 254.64C261.919 254.855 262.021 255.074 262.117 255.295C262.202 255.522 262.281 255.751 262.355 255.983C262.416 256.219 262.472 256.456 262.522 256.696C262.559 256.938 262.591 257.182 262.616 257.427C262.628 257.673 262.634 257.92 262.634 258.167C262.621 258.415 262.602 258.663 262.577 258.91C262.538 259.157 262.494 259.402 262.443 259.647C262.379 259.89 262.309 260.131 262.233 260.37C262.144 260.606 262.049 260.839 261.949 261.071C261.836 261.297 261.717 261.52 261.592 261.741C261.456 261.956 261.314 262.167 261.167 262.374C261.009 262.574 260.845 262.77 260.677 262.962C260.498 263.145 260.314 263.324 260.126 263.498C259.928 263.663 259.726 263.822 259.52 263.976C259.305 264.12 259.087 264.257 258.865 264.39C258.636 264.511 258.403 264.626 258.168 264.735C257.926 264.831 257.682 264.921 257.435 265.005C257.183 265.076 256.93 265.141 256.674 265.199C256.416 265.243 256.156 265.281 255.894 265.312C255.631 265.329 255.367 265.339 255.103 265.343C254.838 265.332 254.573 265.314 254.308 265.29C254.045 265.251 253.782 265.205 253.52 265.153C253.26 265.086 253.002 265.013 252.745 264.933C252.493 264.839 252.242 264.738 251.994 264.631C251.751 264.51 251.511 264.383 251.274 264.25C251.043 264.104 250.816 263.952 250.593 263.793C250.378 263.623 250.166 263.447 249.959 263.265C249.762 263.072 249.569 262.873 249.381 262.67C249.203 262.456 249.03 262.237 248.863 262.014C248.708 261.781 248.558 261.545 248.413 261.304C248.282 261.055 248.156 260.803 248.037 260.547C247.931 260.284 247.831 260.018 247.738 259.75C247.66 259.476 247.587 259.2 247.522 258.922C247.471 258.641 247.428 258.357 247.391 258.073C247.369 257.785 247.354 257.498 247.347 257.209C247.355 256.92 247.37 256.631 247.392 256.342C247.429 256.054 247.474 255.767 247.526 255.48C247.593 255.196 247.667 254.914 247.748 254.633C247.844 254.356 247.947 254.082 248.057 253.81C248.182 253.543 248.313 253.28 248.451 253.02C248.603 252.767 248.761 252.517 248.926 252.272C249.103 252.035 249.287 251.803 249.476 251.575C249.678 251.357 249.886 251.144 250.098 250.936C250.323 250.74 250.552 250.549 250.786 250.364C251.03 250.191 251.278 250.025 251.531 249.865C251.792 249.718 252.058 249.578 252.327 249.445C252.603 249.326 252.883 249.214 253.165 249.109C253.454 249.019 253.744 248.936 254.038 248.861C254.335 248.802 254.634 248.751 254.934 248.706C255.237 248.679 255.541 248.659 255.846 248.646C256.152 248.65 256.457 248.662 256.763 248.682C257.068 248.719 257.372 248.763 257.676 248.815C257.977 248.883 258.276 248.96 258.574 249.044C258.867 249.144 259.158 249.252 259.447 249.367C259.73 249.498 260.01 249.636 260.287 249.782C260.556 249.943 260.821 250.11 261.083 250.285C261.335 250.474 261.583 250.67 261.826 250.872C262.059 251.087 262.286 251.308 262.508 251.536C262.719 251.776 262.923 252.021 263.122 252.271C263.307 252.533 263.486 252.799 263.659 253.071C263.817 253.352 263.969 253.637 264.113 253.926C264.243 254.223 264.365 254.524 264.48 254.828C264.579 255.138 264.67 255.451 264.753 255.767C264.82 256.088 264.879 256.41 264.929 256.734C264.963 257.062 264.989 257.39 265.006 257.719C265.007 258.049 264.998 258.38 264.982 258.71C264.948 259.04 264.906 259.37 264.856 259.698C264.789 260.024 264.713 260.348 264.629 260.671C264.528 260.99 264.419 261.306 264.302 261.619C264.169 261.927 264.028 262.231 263.879 262.531C263.714 262.824 263.542 263.113 263.362 263.398C263.167 263.673 262.966 263.943 262.757 264.209C262.534 264.463 262.305 264.711 262.07 264.954C261.821 265.185 261.567 265.409 261.307 265.627C261.035 265.831 260.758 266.028 260.476 266.218C260.184 266.393 259.887 266.561 259.586 266.721C259.276 266.865 258.962 267.001 258.645 267.129C258.321 267.24 257.994 267.343 257.664 267.437C257.329 267.514 256.992 267.582 256.653 267.642C256.31 267.683 255.967 267.716 255.622 267.74C255.276 267.745 254.929 267.741 254.582 267.729C254.236 267.697 253.891 267.657 253.546 267.608C253.203 267.54 252.862 267.464 252.523 267.378C252.188 267.275 251.855 267.162 251.525 267.041C251.201 266.903 250.881 266.755 250.564 266.6C250.255 266.427 249.95 266.246 249.649 266.057C249.358 265.852 249.072 265.64 248.791 265.42C248.522 265.184 248.258 264.942 248.001 264.692C247.756 264.429 247.517 264.159 247.286 263.883C247.068 263.594 246.858 263.3 246.655 263C246.467 262.689 246.288 262.373 246.116 262.051C245.96 261.721 245.813 261.386 245.674 261.048C245.553 260.702 245.441 260.352 245.337 259.999C245.252 259.641 245.175 259.28 245.108 258.917C245.059 258.55 245.02 258.182 244.99 257.813C244.979 257.441 244.978 257.07 244.986 256.698C245.013 256.326 245.05 255.955 245.096 255.584C245.161 255.216 245.236 254.849 245.32 254.484C245.423 254.123 245.535 253.765 245.656 253.409C245.796 253.06 245.945 252.714 246.102 252.372C246.278 252.038 246.462 251.709 246.654 251.384C246.863 251.069 247.081 250.759 247.306 250.455C247.547 250.163 247.796 249.877 248.052 249.597C248.323 249.33 248.601 249.071 248.885 248.819C249.183 248.581 249.486 248.352 249.796 248.13C250.118 247.924 250.444 247.727 250.776 247.538C251.118 247.367 251.464 247.204 251.815 247.05C252.174 246.915 252.536 246.79 252.902 246.673C253.274 246.576 253.649 246.489 254.026 246.411C254.407 246.354 254.79 246.306 255.174 246.268C255.561 246.251 255.948 246.244 256.335 246.246C256.723 246.27 257.11 246.303 257.496 246.347C257.88 246.411 258.263 246.485 258.645 246.569C259.022 246.674 259.396 246.788 259.768 246.912C260.134 247.056 260.496 247.21 260.854 247.373C261.204 247.555 261.55 247.746 261.891 247.947C262.221 248.165 262.547 248.393 262.867 248.629C263.174 248.882 263.476 249.143 263.771 249.412C264.052 249.697 264.326 249.99 264.593 250.289C264.844 250.604 265.087 250.924 265.323 251.251C265.541 251.591 265.752 251.937 265.953 252.288C266.136 252.65 266.311 253.018 266.476 253.389C266.622 253.77 266.758 254.155 266.885 254.543C266.991 254.939 267.088 255.337 267.174 255.738C267.24 256.144 267.295 256.551 267.341 256.961C267.365 257.373 267.378 257.785 267.382 258.198C267.363 258.612 267.335 259.025 267.295 259.438C267.235 259.849 267.164 260.258 267.083 260.666C266.98 261.069 266.867 261.47 266.744 261.868C266.6 262.26 266.447 262.648 266.283 263.033C266.1 263.409 265.906 263.78 265.704 264.147C265.482 264.502 265.251 264.853 265.012 265.197C264.754 265.529 264.488 265.854 264.213 266.172C263.922 266.476 263.623 266.772 263.317 267.061C262.995 267.334 262.666 267.598 262.331 267.854C261.982 268.092 261.627 268.321 261.266 268.541C260.893 268.742 260.515 268.933 260.133 269.115C259.74 269.276 259.344 269.427 258.943 269.568C258.535 269.687 258.124 269.796 257.71 269.895C257.291 269.971 256.869 270.037 256.446 270.091C256.02 270.123 255.593 270.144 255.165 270.154C254.736 270.141 254.308 270.117 253.88 270.082C253.454 270.024 253.029 269.955 252.605 269.875C252.186 269.772 251.769 269.658 251.355 269.534C250.947 269.387 250.543 269.23 250.142 269.062C249.75 268.873 249.363 268.674 248.98 268.464C248.609 268.234 248.243 267.994 247.883 267.745C247.535 267.476 247.195 267.198 246.861 266.912C246.542 266.607 246.231 266.294 245.927 265.973C245.64 265.636 245.362 265.291 245.092 264.938C244.84 264.571 244.598 264.198 244.364 263.818C244.151 263.425 243.947 263.027 243.753 262.624C243.58 262.21 243.418 261.791 243.266 261.368C243.136 260.937 243.017 260.502 242.909 260.064C242.823 259.62 242.749 259.174 242.686 258.725C242.646 258.273 242.617 257.82 242.6 257.366C242.607 256.911 242.625 256.456 242.655 256.001C242.708 255.548 242.772 255.096 242.848 254.646C242.948 254.199 243.059 253.755 243.181 253.314C243.326 252.879 243.482 252.447 243.649 252.02C243.838 251.601 244.038 251.187 244.248 250.778C244.48 250.38 244.722 249.988 244.973 249.602C245.245 249.23 245.527 248.865 245.817 248.506C246.127 248.163 246.445 247.828 246.772 247.501C247.115 247.192 247.467 246.891 247.826 246.599C248.201 246.327 248.583 246.064 248.971 245.81C249.373 245.578 249.78 245.356 250.194 245.144C250.618 244.954 251.047 244.775 251.481 244.608C251.924 244.463 252.371 244.33 252.821 244.208C253.278 244.111 253.737 244.025 254.198 243.951C254.664 243.901 255.13 243.864 255.598 243.839C256.068 243.839 256.537 243.851 257.007 243.875C257.475 243.924 257.942 243.985 258.407 244.058C258.869 244.157 259.329 244.267 259.786 244.389C260.237 244.536 260.684 244.694 261.127 244.864C261.562 245.058 261.992 245.263 262.416 245.479C262.83 245.718 263.238 245.967 263.639 246.228C264.027 246.509 264.408 246.801 264.782 247.103C265.141 247.425 265.491 247.756 265.833 248.097C266.157 248.456 266.473 248.823 266.779 249.199C267.066 249.591 267.343 249.99 267.61 250.397C267.856 250.818 268.091 251.245 268.315 251.679C268.518 252.125 268.708 252.576 268.888 253.033C269.044 253.499 269.188 253.969 269.321 254.443C269.428 254.924 269.524 255.408 269.608 255.895C269.666 256.387 269.712 256.879 269.745 257.374C269.753 257.87 269.748 258.366 269.731 258.863C269.688 259.359 269.632 259.853 269.564 260.346C269.47 260.836 269.364 261.324 269.246 261.809C269.102 262.287 268.946 262.762 268.779 263.234C268.586 263.696 268.382 264.153 268.167 264.605C267.928 265.046 267.677 265.481 267.416 265.91C267.132 266.324 266.838 266.731 266.534 267.131C266.208 267.515 265.873 267.89 265.529 268.256C265.165 268.605 264.792 268.944 264.411 269.273C264.012 269.582 263.606 269.881 263.192 270.17C262.763 270.436 262.327 270.691 261.885 270.935C261.43 271.156 260.969 271.365 260.503 271.562C260.026 271.734 259.545 271.893 259.06 272.041C258.567 272.162 258.071 272.271 257.572 272.367C257.068 272.436 256.563 272.492 256.055 272.536C255.546 272.552 255.036 272.555 254.525 272.544C254.015 272.507 253.506 272.456 252.998 272.392C252.493 272.301 251.991 272.197 251.491 272.08C250.997 271.936 250.507 271.779 250.02 271.61C249.542 271.414 249.069 271.206 248.601 270.986C248.145 270.741 247.694 270.484 247.25 270.215C246.82 269.923 246.397 269.619 245.982 269.304C245.583 268.967 245.192 268.62 244.81 268.263C244.447 267.885 244.093 267.497 243.748 267.101C243.425 266.685 243.111 266.262 242.809 265.83C242.528 265.382 242.259 264.927 242.002 264.464C241.768 263.988 241.546 263.506 241.337 263.017C241.153 262.518 240.981 262.014 240.822 261.505C240.689 260.987 240.57 260.466 240.463 259.942C240.384 259.412 240.318 258.88 240.266 258.346C240.241 257.81 240.23 257.272 240.232 256.734C240.263 256.196 240.307 255.659 240.364 255.123C240.449 254.59 240.548 254.059 240.66 253.53C240.8 253.008 240.953 252.489 241.119 251.973C241.311 251.467 241.517 250.966 241.735 250.469C241.979 249.984 242.235 249.506 242.504 249.034C242.797 248.576 243.101 248.126 243.417 247.684C243.756 247.258 244.106 246.841 244.467 246.433C244.848 246.045 245.24 245.666 245.641 245.297C246.061 244.949 246.49 244.613 246.928 244.287C247.382 243.985 247.845 243.695 248.315 243.416C248.799 243.162 249.289 242.921 249.786 242.693C250.295 242.491 250.809 242.302 251.328 242.127C251.856 241.979 252.388 241.845 252.923 241.724C253.465 241.632 254.009 241.555 254.555 241.491C255.104 241.456 255.655 241.436 256.206 241.429C256.757 241.453 257.308 241.49 257.858 241.542C258.405 241.623 258.951 241.718 259.494 241.828C260.031 241.966 260.565 242.119 261.096 242.285C261.618 242.479 262.134 242.688 262.646 242.909C263.146 243.158 263.64 243.42 264.128 243.694C264.601 243.995 265.067 244.308 265.525 244.633C265.966 244.983 266.398 245.344 266.822 245.716C267.226 246.111 267.62 246.516 268.004 246.932C268.366 247.368 268.718 247.814 269.058 248.269C269.375 248.742 269.68 249.223 269.972 249.712C270.24 250.217 270.494 250.729 270.736 251.248C270.951 251.779 271.152 252.316 271.34 252.859C271.5 253.411 271.646 253.968 271.778 254.528C271.88 255.096 271.969 255.666 272.043 256.239C272.087 256.816 272.117 257.394 272.132 257.973C272.117 258.552 272.088 259.132 272.044 259.71C271.97 260.287 271.881 260.861 271.778 261.433C271.645 262 271.498 262.563 271.336 263.123C271.146 263.674 270.941 264.22 270.723 264.762C270.477 265.291 270.217 265.814 269.944 266.331C269.644 266.832 269.332 267.327 269.007 267.813C268.656 268.282 268.294 268.741 267.921 269.192C267.523 269.623 267.115 270.043 266.697 270.453C266.257 270.84 265.807 271.216 265.347 271.581C264.869 271.921 264.382 272.249 263.887 272.564C263.375 272.853 262.856 273.128 262.33 273.39C261.79 273.625 261.245 273.845 260.693 274.051C260.131 274.227 259.565 274.389 258.994 274.537C258.416 274.654 257.835 274.756 257.251 274.843C256.662 274.899 256.072 274.939 255.481 274.965C254.889 274.958 254.296 274.937 253.704 274.9C253.114 274.832 252.526 274.748 251.94 274.649C251.359 274.519 250.781 274.373 250.207 274.213C249.641 274.022 249.08 273.816 248.523 273.596C247.979 273.346 247.44 273.082 246.909 272.804C246.391 272.498 245.882 272.178 245.38 271.845C244.895 271.486 244.42 271.113 243.954 270.729C243.508 270.319 243.072 269.898 242.647 269.466C242.244 269.01 241.853 268.545 241.473 268.069C241.118 267.573 240.776 267.068 240.446 266.553C240.143 266.022 239.853 265.482 239.577 264.935C239.329 264.373 239.096 263.804 238.877 263.23C238.687 262.643 238.513 262.052 238.353 261.456C238.224 260.852 238.111 260.245 238.012 259.634C237.946 259.018 237.895 258.4 237.859 257.781C237.856 257.16 237.869 256.539 237.897 255.918C237.957 255.299 238.033 254.681 238.124 254.065C238.248 253.454 238.387 252.846 238.541 252.242C238.727 251.646 238.927 251.055 239.143 250.468C239.389 249.894 239.649 249.325 239.924 248.763C240.228 248.216 240.546 247.677 240.878 247.146C241.237 246.633 241.609 246.129 241.994 245.635C242.404 245.161 242.826 244.697 243.261 244.245C243.718 243.816 244.187 243.398 244.666 242.993C245.166 242.613 245.675 242.246 246.194 241.893C246.732 241.567 247.277 241.255 247.831 240.956C248.4 240.688 248.975 240.434 249.558 240.195C250.152 239.988 250.752 239.795 251.357 239.618C251.971 239.474 252.589 239.345 253.21 239.232C253.836 239.152 254.465 239.089 255.096 239.042C255.729 239.028 256.362 239.031 256.995 239.051C257.627 239.104 258.258 239.173 258.887 239.259C259.512 239.378 260.134 239.514 260.752 239.665C261.363 239.85 261.969 240.05 262.57 240.266C263.159 240.515 263.742 240.778 264.319 241.057C264.882 241.366 265.436 241.69 265.983 242.028C266.511 242.395 267.031 242.776 267.541 243.171C268.03 243.593 268.509 244.027 268.977 244.474C269.422 244.946 269.855 245.429 270.276 245.924C270.671 246.441 271.052 246.968 271.421 247.506C271.762 248.062 272.089 248.628 272.401 249.202C272.684 249.793 272.952 250.391 273.204 250.996C273.426 251.615 273.631 252.239 273.821 252.869C273.979 253.509 274.12 254.153 274.245 254.8C274.336 255.455 274.411 256.111 274.469 256.77C274.493 257.431 274.501 258.094 274.491 258.756C274.448 259.418 274.387 260.079 274.31 260.739C274.199 261.394 274.071 262.046 273.927 262.695C273.749 263.337 273.554 263.973 273.344 264.605C273.101 265.226 272.843 265.84 272.568 266.447C272.263 267.04 271.942 267.625 271.607 268.202C271.241 268.761 270.862 269.31 270.468 269.85C270.047 270.368 269.613 270.876 269.165 271.372C268.693 271.845 268.208 272.305 267.711 272.753C267.191 273.174 266.661 273.582 266.12 273.976C265.559 274.341 264.989 274.692 264.41 275.028C263.813 275.333 263.209 275.622 262.597 275.896C261.972 276.138 261.34 276.363 260.702 276.572C260.054 276.746 259.401 276.904 258.744 277.045C258.08 277.152 257.413 277.24 256.744 277.312C256.072 277.348 255.398 277.366 254.724 277.367C254.05 277.332 253.377 277.28 252.705 277.21C252.036 277.105 251.371 276.982 250.708 276.842C250.053 276.666 249.402 276.474 248.756 276.264C248.121 276.021 247.493 275.76 246.87 275.484C246.262 275.174 245.662 274.849 245.07 274.508C244.496 274.135 243.931 273.748 243.376 273.346C242.842 272.915 242.319 272.469 241.807 272.01C241.319 271.524 240.843 271.025 240.379 270.514C239.943 269.978 239.519 269.431 239.11 268.873C238.729 268.293 238.364 267.703 238.013 267.104C237.693 266.486 237.389 265.86 237.1 265.226C236.845 264.576 236.606 263.92 236.383 263.258C236.195 262.584 236.023 261.905 235.869 261.222C235.751 260.53 235.65 259.836 235.566 259.138C235.518 258.437 235.489 257.734 235.477 257.03C235.501 256.326 235.543 255.623 235.603 254.92C235.7 254.221 235.814 253.525 235.946 252.831C236.113 252.144 236.298 251.462 236.5 250.784C236.738 250.118 236.992 249.457 237.263 248.803C237.567 248.164 237.888 247.532 238.225 246.909C238.594 246.304 238.978 245.708 239.378 245.122C239.807 244.558 240.251 244.005 240.709 243.463C241.195 242.946 241.694 242.441 242.206 241.949C242.743 241.485 243.292 241.034 243.852 240.598C244.435 240.192 245.028 239.801 245.631 239.425C246.253 239.081 246.884 238.753 247.524 238.442C248.179 238.165 248.841 237.905 249.51 237.662C250.192 237.454 250.878 237.265 251.57 237.093C252.27 236.958 252.974 236.841 253.681 236.742C254.392 236.681 255.105 236.639 255.82 236.615C256.535 236.629 257.25 236.662 257.964 236.713C258.676 236.802 259.385 236.909 260.092 237.035C260.792 237.199 261.487 237.381 262.179 237.58C262.859 237.817 263.534 238.071 264.202 238.343C264.856 238.65 265.503 238.974 266.141 239.315C266.761 239.69 267.372 240.081 267.973 240.488C268.553 240.927 269.122 241.38 269.679 241.849C270.212 242.347 270.733 242.859 271.24 243.385C271.72 243.937 272.186 244.502 272.639 245.079C273.06 245.68 273.467 246.291 273.859 246.914C274.218 247.557 274.56 248.209 274.887 248.871C275.179 249.549 275.453 250.235 275.711 250.928C275.932 251.635 276.136 252.348 276.322 253.066C276.47 253.793 276.6 254.524 276.712 255.26C276.785 256 276.84 256.742 276.876 257.487C276.874 258.232 276.852 258.978 276.812 259.723C276.733 260.466 276.636 261.207 276.519 261.945C276.365 262.677 276.192 263.405 276 264.128C275.772 264.841 275.525 265.548 275.26 266.249C274.959 266.936 274.641 267.614 274.305 268.285C273.935 268.937 273.549 269.58 273.146 270.213C272.71 270.824 272.259 271.424 271.793 272.012C271.297 272.576 270.786 273.126 270.261 273.663C269.709 274.172 269.144 274.667 268.566 275.147C267.964 275.597 267.35 276.03 266.725 276.448C266.079 276.833 265.423 277.2 264.758 277.551C264.074 277.866 263.383 278.163 262.684 278.443C261.971 278.685 261.252 278.909 260.527 279.114C259.792 279.28 259.053 279.428 258.309 279.556C257.56 279.645 256.808 279.714 256.054 279.763C255.298 279.773 254.542 279.763 253.786 279.733C253.031 279.663 252.279 279.574 251.528 279.465C250.784 279.316 250.043 279.148 249.307 278.96C248.58 278.734 247.859 278.488 247.145 278.224C246.444 277.922 245.751 277.602 245.066 277.264C244.398 276.889 243.741 276.497 243.093 276.088C242.466 275.645 241.851 275.185 241.247 274.71C240.668 274.202 240.102 273.679 239.548 273.142C239.023 272.575 238.513 271.995 238.017 271.402C237.552 270.782 237.102 270.151 236.668 269.507C236.268 268.841 235.885 268.164 235.519 267.477C235.188 266.771 234.876 266.057 234.581 265.334C234.324 264.596 234.086 263.852 233.866 263.101C233.685 262.338 233.524 261.571 233.382 260.8C233.28 260.021 233.197 259.24 233.135 258.456C233.113 257.67 233.11 256.883 233.128 256.096C233.187 255.31 233.265 254.525 233.363 253.743C233.502 252.966 233.66 252.193 233.838 251.423C234.055 250.664 234.292 249.91 234.548 249.162C234.843 248.428 235.156 247.702 235.487 246.983C235.856 246.283 236.242 245.592 236.645 244.911C237.084 244.252 237.54 243.605 238.011 242.969C238.516 242.358 239.036 241.761 239.571 241.177C240.136 240.621 240.715 240.081 241.308 239.555C241.928 239.061 242.561 238.583 243.205 238.122C243.873 237.695 244.552 237.285 245.242 236.893C245.951 236.538 246.669 236.201 247.396 235.883C248.139 235.603 248.889 235.343 249.646 235.102C250.415 234.902 251.189 234.722 251.968 234.561C252.754 234.442 253.544 234.344 254.336 234.266C255.132 234.23 255.929 234.215 256.726 234.221C257.523 234.268 258.318 234.337 259.112 234.426C259.901 234.558 260.686 234.71 261.468 234.882C262.24 235.096 263.007 235.33 263.768 235.583C264.516 235.877 265.256 236.191 265.989 236.524C266.704 236.895 267.409 237.285 268.105 237.694C268.779 238.139 269.442 238.602 270.093 239.082C270.72 239.597 271.333 240.127 271.933 240.674C272.504 241.252 273.061 241.846 273.602 242.453C274.112 243.09 274.606 243.739 275.084 244.401C275.527 245.089 275.953 245.788 276.361 246.498C276.732 247.229 277.084 247.97 277.418 248.72C277.713 249.488 277.989 250.263 278.245 251.046C278.46 251.842 278.655 252.643 278.83 253.45C278.963 254.265 279.076 255.084 279.168 255.906C279.217 256.733 279.245 257.56 279.253 258.389C279.218 259.217 279.161 260.045 279.084 260.871C278.964 261.693 278.823 262.511 278.661 263.326C278.458 264.132 278.234 264.933 277.99 265.728C277.704 266.51 277.399 267.284 277.075 268.05C276.71 268.799 276.327 269.538 275.926 270.268C275.486 270.976 275.029 271.672 274.554 272.357C274.044 273.016 273.517 273.661 272.974 274.293C272.399 274.896 271.808 275.484 271.202 276.057C270.567 276.597 269.918 277.121 269.256 277.628C268.568 278.099 267.868 278.553 267.157 278.988C266.423 279.386 265.68 279.764 264.927 280.123C264.155 280.442 263.376 280.741 262.588 281.019C261.787 281.256 260.98 281.472 260.167 281.667C259.345 281.819 258.519 281.949 257.689 282.058C256.854 282.123 256.018 282.166 255.18 282.187C254.342 282.164 253.505 282.119 252.668 282.052C251.835 281.941 251.005 281.808 250.179 281.654C249.36 281.455 248.547 281.236 247.739 280.995C246.944 280.712 246.157 280.408 245.377 280.083C244.614 279.718 243.86 279.332 243.116 278.927C242.393 278.482 241.682 278.019 240.982 277.537C240.308 277.018 239.647 276.482 238.999 275.928C238.38 275.341 237.776 274.737 237.187 274.118C236.631 273.467 236.091 272.802 235.568 272.123C235.08 271.417 234.61 270.698 234.158 269.967C233.744 269.212 233.35 268.446 232.974 267.67C232.639 266.874 232.325 266.07 232.03 265.258C231.778 264.43 231.546 263.596 231.336 262.755C231.169 261.904 231.024 261.049 230.901 260.19C230.821 259.324 230.764 258.457 230.729 257.588C230.739 256.718 230.77 255.848 230.824 254.978C230.923 254.112 231.043 253.249 231.186 252.388C231.373 251.536 231.581 250.689 231.811 249.846C232.084 249.017 232.378 248.194 232.694 247.38C233.051 246.582 233.428 245.794 233.825 245.015C234.262 244.258 234.719 243.512 235.194 242.778C235.707 242.07 236.238 241.375 236.787 240.694C237.37 240.042 237.97 239.405 238.586 238.784C239.234 238.196 239.897 237.625 240.574 237.071C241.28 236.554 241.998 236.054 242.73 235.574C243.486 235.132 244.252 234.71 245.03 234.308C245.828 233.947 246.635 233.608 247.451 233.289C248.283 233.013 249.122 232.76 249.967 232.528C250.824 232.341 251.685 232.176 252.551 232.034C253.424 231.938 254.299 231.864 255.176 231.813C256.055 231.809 256.934 231.828 257.813 231.869C258.69 231.957 259.563 232.068 260.435 232.202C261.299 232.382 262.158 232.584 263.012 232.808C263.854 233.078 264.689 233.37 265.517 233.683C266.329 234.041 267.131 234.419 267.924 234.818C268.695 235.259 269.456 235.72 270.205 236.201C270.928 236.722 271.639 237.261 272.335 237.818C273.003 238.413 273.656 239.024 274.293 239.653C274.897 240.315 275.484 240.993 276.055 241.687C276.589 242.41 277.105 243.147 277.602 243.897C278.061 244.673 278.499 245.462 278.918 246.261C279.295 247.083 279.651 247.914 279.986 248.755C280.278 249.613 280.548 250.478 280.796 251.351C280.999 252.236 281.179 253.127 281.337 254.022C281.448 254.925 281.537 255.831 281.603 256.74C281.621 257.651 281.617 258.563 281.589 259.474C281.515 260.384 281.417 261.292 281.297 262.197C281.129 263.096 280.939 263.99 280.727 264.879C280.468 265.757 280.188 266.627 279.885 267.491C279.538 268.337 279.169 269.175 278.779 270.003C278.347 270.811 277.894 271.606 277.421 272.39C276.907 273.149 276.375 273.894 275.824 274.626C275.235 275.327 274.628 276.014 274.004 276.684C273.346 277.321 272.672 277.941 271.981 278.544C271.26 279.109 270.525 279.656 269.776 280.184C269 280.672 268.212 281.139 267.412 281.586C266.589 281.99 265.756 282.373 264.914 282.734C264.053 283.051 263.184 283.344 262.308 283.616C261.418 283.84 260.522 284.042 259.622 284.22C258.712 284.35 257.8 284.457 256.884 284.54C255.965 284.574 255.045 284.585 254.125 284.571C253.206 284.509 252.289 284.423 251.373 284.313C250.464 284.154 249.559 283.972 248.659 283.766C247.769 283.513 246.886 283.236 246.01 282.937C245.15 282.591 244.299 282.223 243.458 281.833C242.636 281.398 241.826 280.942 241.027 280.464C240.254 279.945 239.494 279.406 238.747 278.847C238.029 278.248 237.327 277.631 236.64 276.996C235.987 276.324 235.351 275.636 234.732 274.931C234.149 274.193 233.586 273.441 233.041 272.673C232.537 271.878 232.052 271.069 231.589 270.248C231.167 269.402 230.768 268.546 230.389 267.679C230.056 266.792 229.746 265.897 229.458 264.994C229.216 264.076 228.999 263.152 228.804 262.222C228.658 261.282 228.535 260.339 228.436 259.392C228.387 258.441 228.361 257.488 228.36 256.535C228.407 255.582 228.479 254.631 228.575 253.681C228.72 252.737 228.889 251.797 229.082 250.861C229.323 249.935 229.587 249.017 229.874 248.105C230.209 247.208 230.566 246.321 230.946 245.443C231.371 244.585 231.817 243.739 232.285 242.904C232.796 242.094 233.327 241.298 233.879 240.516C234.471 239.763 235.081 239.026 235.71 238.305C236.377 237.617 237.06 236.947 237.761 236.294C238.495 235.679 239.244 235.084 240.008 234.507C240.802 233.972 241.61 233.457 242.43 232.963C243.276 232.513 244.132 232.085 245 231.68C245.888 231.32 246.785 230.984 247.691 230.671C248.612 230.406 249.54 230.165 250.474 229.949C251.419 229.782 252.368 229.639 253.32 229.522C254.278 229.455 255.238 229.412 256.199 229.395C257.16 229.429 258.12 229.488 259.079 229.571C260.033 229.706 260.983 229.865 261.93 230.049C262.866 230.283 263.796 230.542 264.72 230.825C265.629 231.156 266.529 231.511 267.42 231.89C268.291 232.316 269.151 232.764 270.001 233.235C270.825 233.75 271.636 234.287 272.433 234.845C273.201 235.445 273.954 236.064 274.692 236.704C275.396 237.382 276.082 238.078 276.751 238.793C277.383 239.542 277.995 240.308 278.589 241.09C279.141 241.902 279.673 242.729 280.184 243.57C280.652 244.438 281.097 245.317 281.52 246.209C281.897 247.122 282.25 248.044 282.58 248.976C282.862 249.926 283.12 250.882 283.354 251.845C283.537 252.82 283.696 253.799 283.831 254.783C283.914 255.773 283.972 256.765 284.005 257.759C283.987 258.754 283.944 259.749 283.875 260.742C283.755 261.731 283.61 262.717 283.44 263.699C283.22 264.672 282.975 265.639 282.705 266.599C282.386 267.545 282.043 268.482 281.676 269.41C281.262 270.319 280.825 271.216 280.365 272.102C279.859 272.963 279.332 273.811 278.783 274.645C278.191 275.45 277.579 276.239 276.947 277.012C276.276 277.751 275.586 278.473 274.877 279.177C274.133 279.843 273.372 280.489 272.594 281.115C271.784 281.7 270.96 282.264 270.122 282.807C269.256 283.304 268.377 283.779 267.487 284.231C266.573 284.636 265.65 285.017 264.716 285.374C263.765 285.681 262.807 285.963 261.84 286.221C260.862 286.427 259.878 286.608 258.89 286.763C257.894 286.865 256.896 286.942 255.895 286.992C254.893 286.99 253.891 286.961 252.889 286.907C251.891 286.799 250.896 286.665 249.904 286.506C248.921 286.294 247.944 286.056 246.972 285.793C246.015 285.479 245.066 285.139 244.125 284.775C243.204 284.362 242.293 283.924 241.393 283.463C240.518 282.954 239.656 282.423 238.807 281.869C237.987 281.27 237.182 280.65 236.393 280.01C235.638 279.327 234.9 278.626 234.18 277.904C233.497 277.146 232.834 276.369 232.191 275.576C231.588 274.748 231.007 273.905 230.447 273.047C229.932 272.16 229.44 271.259 228.97 270.346C228.547 269.408 228.149 268.46 227.774 267.501C227.449 266.522 227.149 265.536 226.874 264.541C226.651 263.533 226.453 262.519 226.28 261.499C226.161 260.471 226.067 259.441 226 258.407C225.986 257.371 225.998 256.335 226.037 255.298C226.129 254.265 226.247 253.234 226.391 252.206C226.588 251.186 226.812 250.172 227.06 249.163C227.361 248.168 227.687 247.182 228.038 246.203C228.439 245.244 228.864 244.295 229.314 243.357C229.812 242.444 230.332 241.544 230.876 240.658C231.465 239.8 232.075 238.959 232.707 238.133C233.381 237.341 234.075 236.566 234.789 235.81C235.542 235.092 236.312 234.394 237.1 233.716C237.923 233.079 238.762 232.465 239.616 231.872C240.5 231.325 241.398 230.801 242.31 230.301C243.247 229.849 244.195 229.421 245.154 229.018C246.133 228.666 247.121 228.34 248.117 228.039C249.128 227.792 250.145 227.571 251.168 227.376Z" fill="#18B451"/>
</svg>
