<svg width="40" height="40" viewBox="0 0 40 40" fill="none" xmlns="http://www.w3.org/2000/svg">
<g clip-path="url(#clip0_154_62)">
<rect y="13.75" width="40" height="12.5" fill="#F5F8E6"/>
<path fill-rule="evenodd" clip-rule="evenodd" d="M0.915467 0.625C0.409869 0.625 0 1.03914 0 1.55V16.3501C2.02239 16.3501 3.66187 18.0066 3.66187 20.0501C3.66187 22.0935 2.02239 23.7501 0 23.7501V38.45C0 38.9609 0.409867 39.375 0.915465 39.375H39.0845C39.5901 39.375 40 38.9609 40 38.45V23.7497C38.0014 23.7218 36.3898 22.0761 36.3898 20.0501C36.3898 18.024 38.0014 16.3783 40 16.3504V1.55C40 1.03914 39.5901 0.625 39.0845 0.625H0.915467ZM19.9114 23.7501C21.9338 23.7501 23.5733 22.0935 23.5733 20.0501C23.5733 18.0066 21.9338 16.3501 19.9114 16.3501C17.889 16.3501 16.2495 18.0066 16.2495 20.0501C16.2495 22.0935 17.889 23.7501 19.9114 23.7501ZM10.0701 23.7501C12.0925 23.7501 13.732 22.0935 13.732 20.0501C13.732 18.0066 12.0925 16.3501 10.0701 16.3501C8.04774 16.3501 6.40827 18.0066 6.40827 20.0501C6.40827 22.0935 8.04774 23.7501 10.0701 23.7501ZM33.4145 20.0501C33.4145 22.0935 31.7751 23.7501 29.7527 23.7501C27.7303 23.7501 26.0908 22.0935 26.0908 20.0501C26.0908 18.0066 27.7303 16.3501 29.7527 16.3501C31.7751 16.3501 33.4145 18.0066 33.4145 20.0501Z" fill="#E02E64"/>
<path d="M40 17.2755C38.5071 17.3034 37.3053 18.5349 37.3053 20.0501C37.3053 21.5652 38.5071 22.7968 40 22.8246V17.2755Z" fill="#E02E64"/>
<path d="M2.7464 20.0501C2.7464 18.5175 1.5168 17.2751 0 17.2751V22.8251C1.5168 22.8251 2.7464 21.5827 2.7464 20.0501Z" fill="#E02E64"/>
<path d="M10.3246 19.9663C10.3246 20.1301 10.1925 20.2628 10.0295 20.2628C9.86661 20.2628 9.73452 20.1301 9.73452 19.9663C9.73452 19.8025 9.86661 19.6698 10.0295 19.6698C10.1925 19.6698 10.3246 19.8025 10.3246 19.9663Z" fill="#E02E64"/>
<path d="M9.2674 19.9663C9.2674 20.1301 9.13531 20.2628 8.97238 20.2628C8.80944 20.2628 8.67735 20.1301 8.67735 19.9663C8.67735 19.8025 8.80944 19.6698 8.97238 19.6698C9.13531 19.6698 9.2674 19.8025 9.2674 19.9663Z" fill="#E02E64"/>
<path d="M11.0867 20.2628C11.2497 20.2628 11.3817 20.1301 11.3817 19.9663C11.3817 19.8025 11.2497 19.6698 11.0867 19.6698C10.9238 19.6698 10.7917 19.8025 10.7917 19.9663C10.7917 20.1301 10.9238 20.2628 11.0867 20.2628Z" fill="#E02E64"/>
<path fill-rule="evenodd" clip-rule="evenodd" d="M7.98897 17.8906C7.93465 17.8906 7.89062 17.9349 7.89062 17.9895V19.5709C8.10787 19.5709 8.28399 19.7479 8.28399 19.9663C8.28399 20.1846 8.10787 20.3617 7.89062 20.3617V21.9324C7.89062 21.987 7.93465 22.0312 7.98897 22.0312H12.0892C12.1435 22.0312 12.1875 21.987 12.1875 21.9324V20.3616C11.9728 20.3586 11.7997 20.1828 11.7997 19.9663C11.7997 19.7498 11.9728 19.5739 12.1875 19.571V17.9895C12.1875 17.9349 12.1435 17.8906 12.0892 17.8906H7.98897ZM10.0295 20.3617C10.2468 20.3617 10.4229 20.1846 10.4229 19.9663C10.4229 19.7479 10.2468 19.5709 10.0295 19.5709C9.8123 19.5709 9.63618 19.7479 9.63618 19.9663C9.63618 20.1846 9.8123 20.3617 10.0295 20.3617ZM8.97238 20.3617C9.18963 20.3617 9.36574 20.1846 9.36574 19.9663C9.36574 19.7479 9.18963 19.5709 8.97238 19.5709C8.75513 19.5709 8.57901 19.7479 8.57901 19.9663C8.57901 20.1846 8.75513 20.3617 8.97238 20.3617ZM11.4801 19.9663C11.4801 20.1846 11.304 20.3617 11.0867 20.3617C10.8695 20.3617 10.6933 20.1846 10.6933 19.9663C10.6933 19.7479 10.8695 19.5709 11.0867 19.5709C11.304 19.5709 11.4801 19.7479 11.4801 19.9663Z" fill="#E02E64"/>
<path d="M12.1875 19.6698C12.0271 19.6728 11.898 19.8044 11.898 19.9663C11.898 20.1282 12.0271 20.2598 12.1875 20.2628V19.6698Z" fill="#E02E64"/>
<path d="M8.18565 19.9663C8.18565 19.8025 8.05356 19.6698 7.89062 19.6698V20.2628C8.05356 20.2628 8.18565 20.1301 8.18565 19.9663Z" fill="#E02E64"/>
<path fill-rule="evenodd" clip-rule="evenodd" d="M29.8685 21.2841C29.8685 21.8693 30.3443 22.3437 30.9313 22.3437C31.7167 22.3437 32.2076 21.496 31.8149 20.8179L30.0588 17.7854C30.0067 17.6953 29.8685 17.7322 29.8685 17.8363V20.3015C30.0636 20.332 30.2128 20.5003 30.2128 20.7034C30.2128 20.9065 30.0636 21.0749 29.8685 21.1054V21.2841ZM30.927 21.8733C31.2229 21.8733 31.4627 21.6342 31.4627 21.3392C31.4627 21.0443 31.2229 20.8052 30.927 20.8052C30.6312 20.8052 30.3914 21.0443 30.3914 21.3392C30.3914 21.6342 30.6312 21.8733 30.927 21.8733Z" fill="#6767F4"/>
<path fill-rule="evenodd" clip-rule="evenodd" d="M29.7409 17.8363V20.3015C29.5458 20.332 29.3966 20.5003 29.3966 20.7034C29.3966 20.9065 29.5458 21.0749 29.7409 21.1054V21.2841C29.7409 21.8693 29.2651 22.3437 28.6781 22.3437C27.8926 22.3437 27.4018 21.496 27.7945 20.8179L29.5505 17.7854C29.6027 17.6953 29.7409 17.7322 29.7409 17.8363ZM29.218 21.3392C29.218 21.6342 28.9782 21.8733 28.6823 21.8733C28.3865 21.8733 28.1467 21.6342 28.1467 21.3392C28.1467 21.0443 28.3865 20.8052 28.6823 20.8052C28.9782 20.8052 29.218 21.0443 29.218 21.3392Z" fill="#6767F4"/>
<path d="M29.4998 20.7306C29.5117 20.8651 29.6111 20.9746 29.7409 21.002C29.7615 21.0063 29.7828 21.0086 29.8047 21.0086C29.8266 21.0086 29.8479 21.0063 29.8685 21.002C30.0069 20.9727 30.1108 20.8502 30.1108 20.7034C30.1108 20.5567 30.0069 20.4341 29.8685 20.4049C29.8479 20.4005 29.8266 20.3983 29.8047 20.3983C29.7828 20.3983 29.7615 20.4005 29.7409 20.4049C29.6025 20.4341 29.4986 20.5567 29.4986 20.7034C29.4986 20.7126 29.499 20.7217 29.4998 20.7306Z" fill="#6767F4"/>
<path d="M19.6225 17.7637C19.7032 17.7528 19.7841 17.7439 19.8652 17.7371C19.9466 17.7347 20.0281 17.7343 20.1096 17.7361C20.191 17.7422 20.2722 17.7504 20.3532 17.7607C20.4336 17.7754 20.5136 17.7921 20.5932 17.8109C20.6718 17.8339 20.7498 17.8589 20.8271 17.886C20.903 17.9171 20.9781 17.9502 21.0524 17.9853C21.1248 18.0243 21.1962 18.0652 21.2666 18.1079C21.2812 18.1179 21.295 18.1271 21.3084 18.136C21.3593 18.17 21.4045 18.2002 21.4669 18.2521C21.6982 18.4442 21.8527 18.5376 21.9613 18.5827C22.0159 18.6053 22.059 18.6158 22.0945 18.6205C22.1237 18.6243 22.1475 18.624 22.1651 18.6238C22.1671 18.6238 22.1689 18.6238 22.1706 18.6238C22.1721 18.6238 22.1736 18.6238 22.175 18.6238C22.1964 18.6238 22.2138 18.6061 22.2138 18.5844C22.2138 18.5627 22.1964 18.545 22.175 18.545C22.171 18.545 22.1671 18.5451 22.1632 18.5451C22.1458 18.5453 22.1279 18.5454 22.1045 18.5424C22.0762 18.5387 22.0396 18.5301 21.9907 18.5098C21.8923 18.469 21.7447 18.381 21.5162 18.1912C21.4503 18.1365 21.4014 18.1039 21.35 18.0695C21.3367 18.0606 21.3232 18.0516 21.3091 18.042L21.3083 18.0415L21.3074 18.0409C21.2353 17.9971 21.1622 17.9553 21.088 17.9153L21.0871 17.9148L21.0862 17.9144C21.0101 17.8784 20.9331 17.8445 20.8553 17.8126L20.8544 17.8122L20.8534 17.8119C20.7742 17.7841 20.6943 17.7585 20.6138 17.7349L20.6128 17.7347L20.6118 17.7344C20.5303 17.7151 20.4483 17.698 20.3659 17.6831L20.3649 17.6829L20.3639 17.6828C20.2809 17.6722 20.1977 17.6637 20.1143 17.6575L20.1133 17.6574L20.1123 17.6574C20.0288 17.6556 19.9453 17.6559 19.8619 17.6585L19.8609 17.6585L19.8599 17.6586C19.7767 17.6655 19.6938 17.6746 19.6112 17.6858L19.6102 17.686L19.6092 17.6862C19.5273 17.7017 19.4458 17.7195 19.3649 17.7393L19.3639 17.7395L19.3629 17.7398C19.2832 17.7639 19.2041 17.79 19.1257 17.8182L19.1248 17.8185L19.1238 17.8189C19.047 17.8512 18.9711 17.8854 18.8962 17.9216L18.8952 17.922L18.8944 17.9225C18.8214 17.9626 18.7495 18.0045 18.6787 18.0484L18.6778 18.0489L18.677 18.0495C18.6085 18.0969 18.5414 18.1461 18.4755 18.1971L18.4747 18.1977L18.474 18.1983C18.4108 18.2526 18.3491 18.3085 18.2889 18.3661L18.2882 18.3668L18.2875 18.3675C18.2303 18.428 18.1747 18.49 18.1208 18.5535L18.1201 18.5542L18.1195 18.555C18.0689 18.6212 18.02 18.6886 17.9728 18.7572L17.9723 18.7581L17.9717 18.7589C17.9282 18.8299 17.8865 18.902 17.8467 18.9752L17.8462 18.976L17.8457 18.977C17.8097 19.0521 17.7756 19.128 17.7435 19.2048L17.7431 19.2058L17.7428 19.2067C17.7147 19.2851 17.6886 19.3641 17.6645 19.4438L17.6642 19.4448L17.664 19.4458C17.644 19.5265 17.6262 19.6078 17.6104 19.6894L17.6102 19.6904L17.6101 19.6915C17.5985 19.7738 17.589 19.8564 17.5817 19.9391L17.5816 19.9402L17.5815 19.9412C17.5784 20.0242 17.5774 20.1072 17.5786 20.1902L17.5786 20.1912L17.5787 20.1922C17.584 20.275 17.5915 20.3575 17.6011 20.4399L17.6012 20.4409L17.6014 20.4419C17.6152 20.5235 17.631 20.6048 17.649 20.6855L17.6492 20.6865L17.6495 20.6875C17.6715 20.7672 17.6955 20.8462 17.7215 20.9246L17.7219 20.9255L17.7222 20.9265C17.7522 21.0033 17.7842 21.0793 17.818 21.1544L17.8184 21.1553L17.8189 21.1563C17.8565 21.2294 17.896 21.3016 17.9373 21.3726L17.9378 21.3735L17.9383 21.3744C17.9832 21.4431 18.0297 21.5106 18.078 21.5769L18.0786 21.5777L18.0792 21.5785C18.1308 21.6421 18.1839 21.7043 18.2386 21.7651L18.2393 21.7658L18.24 21.7666C18.2977 21.8244 18.3568 21.8806 18.4173 21.9352L18.4181 21.9359L18.4188 21.9365C18.482 21.9879 18.5465 22.0375 18.6122 22.0855L18.613 22.0861L18.6138 22.0866C18.6819 22.131 18.7509 22.1736 18.8211 22.2143L18.822 22.2148L18.8229 22.2153C18.8949 22.2523 18.9679 22.2873 19.0417 22.3205L19.0427 22.3209L19.0436 22.3212C19.119 22.3504 19.195 22.3776 19.2717 22.4028L19.2727 22.4031L19.2737 22.4034C19.3515 22.4245 19.4298 22.4435 19.5086 22.4605L19.5096 22.4607L19.5106 22.4608C19.5901 22.4737 19.6698 22.4844 19.7498 22.493L19.7508 22.4931L19.7518 22.4931C19.832 22.4975 19.9123 22.4998 19.9926 22.5L19.9936 22.5L19.9947 22.4999C20.0748 22.4959 20.1548 22.4898 20.2346 22.4815L20.2356 22.4814L20.2366 22.4813C20.3158 22.4689 20.3947 22.4544 20.4731 22.4379L20.4741 22.4377L20.475 22.4374C20.5525 22.4168 20.6293 22.3942 20.7055 22.3695L20.7065 22.3692L20.7074 22.3689C20.7822 22.3403 20.8562 22.3098 20.9294 22.2773L20.9304 22.2769L20.9313 22.2764C21.0027 22.2402 21.0731 22.2021 21.1425 22.1622L21.1433 22.1617L21.1442 22.1612C21.2114 22.1177 21.2775 22.0725 21.3423 22.0256L21.3431 22.025L21.3439 22.0244C21.4063 21.9742 21.4673 21.9224 21.5269 21.869L21.5277 21.8683L21.5284 21.8676C21.5852 21.8112 21.6405 21.7534 21.6943 21.6941L21.695 21.6934L21.6957 21.6926C21.7463 21.6306 21.7954 21.5674 21.8428 21.5029L21.8434 21.502L21.844 21.5012C21.888 21.4343 21.9302 21.3664 21.9708 21.2973L21.9713 21.2965L21.9717 21.2955C22.0087 21.2245 22.0437 21.1526 22.0769 21.0798L22.0773 21.0788L22.0777 21.0779C22.1071 21.0035 22.1346 20.9284 22.1602 20.8526L22.1605 20.8516L22.1608 20.8506C22.1824 20.7736 22.2021 20.6961 22.2197 20.6181L22.22 20.6171L22.2201 20.6161C22.2338 20.5374 22.2454 20.4584 22.255 20.379L22.2551 20.378L22.2552 20.377C22.2607 20.2974 22.2642 20.2176 22.2656 20.1379L22.2656 20.1368L22.2656 20.1358C22.263 20.0561 22.2583 19.9766 22.2516 19.8972L22.2515 19.8962L22.2514 19.8952C22.2406 19.8163 22.2279 19.7377 22.2131 19.6596L22.2129 19.6586L22.2127 19.6576C22.194 19.5804 22.1733 19.5037 22.1507 19.4276L22.1504 19.4266L22.15 19.4257C22.1236 19.3509 22.0952 19.2769 22.065 19.2037L22.0646 19.2028L22.0642 19.2019C22.0303 19.1304 21.9946 19.0599 21.9571 18.9903L21.9566 18.9894L21.9561 18.9885C21.9151 18.9211 21.8725 18.8548 21.8281 18.7896L21.8276 18.7888L21.8269 18.788C21.7794 18.7252 21.7303 18.6638 21.6796 18.6038L21.6789 18.603L21.6782 18.6022C21.6246 18.5449 21.5695 18.4891 21.5131 18.4347L21.5123 18.434L21.5116 18.4334C21.4525 18.382 21.3921 18.3323 21.3304 18.2842L21.3297 18.2836L21.3288 18.283C21.2649 18.2383 21.1998 18.1952 21.1337 18.1539L21.1329 18.1534L21.132 18.1529C21.0639 18.1151 20.9949 18.0792 20.925 18.045L20.9241 18.0446L20.9232 18.0442C20.8517 18.0138 20.7795 17.9853 20.7066 17.9588L20.7057 17.9584L20.7047 17.9581C20.6306 17.9354 20.556 17.9147 20.4809 17.8959L20.4799 17.8957L20.4789 17.8955C20.403 17.8807 20.3268 17.8679 20.2502 17.8571L20.2492 17.857L20.2482 17.8569C20.1713 17.8502 20.0943 17.8455 20.0172 17.8428L20.0162 17.8427L20.0152 17.8428C19.9381 17.8441 19.8611 17.8475 19.7843 17.8529L19.7833 17.853L19.7823 17.8531C19.7058 17.8625 19.6297 17.8739 19.5539 17.8874L19.5529 17.8875L19.552 17.8878C19.477 17.9051 19.4026 17.9244 19.3287 17.9457L19.3277 17.946L19.3267 17.9463C19.2541 17.9714 19.1821 17.9984 19.1109 18.0272L19.1099 18.0276L19.109 18.028C19.0394 18.0606 18.9706 18.0949 18.9028 18.131L18.9019 18.1315L18.9011 18.132C18.8352 18.1716 18.7705 18.2129 18.7068 18.2559L18.7059 18.2565L18.7051 18.2571C18.6438 18.3033 18.5836 18.3511 18.5248 18.4005L18.524 18.4011L18.5232 18.4018C18.467 18.4542 18.4122 18.5079 18.3587 18.5631L18.358 18.5639L18.3574 18.5646C18.3068 18.6225 18.2578 18.6817 18.2104 18.7421L18.2098 18.7429L18.2092 18.7437C18.1649 18.8065 18.1223 18.8704 18.0813 18.9353L18.0807 18.9362L18.0803 18.9371C18.0427 19.0041 18.0068 19.072 17.9728 19.1408L17.9723 19.1417L17.9719 19.1427C17.9414 19.2132 17.9128 19.2844 17.8859 19.3563L17.8856 19.3572L17.8853 19.3582C17.8622 19.4314 17.8409 19.5051 17.8216 19.5794L17.8214 19.5804L17.8212 19.5814C17.8057 19.6565 17.7921 19.732 17.7805 19.8077L17.7804 19.8087L17.7803 19.8098C17.7725 19.886 17.7668 19.9623 17.763 20.0388L17.7629 20.0398L17.7629 20.0409C17.763 20.1174 17.7651 20.1938 17.7691 20.2702L17.7691 20.2712L17.7692 20.2722C17.7771 20.3482 17.787 20.424 17.7987 20.4994L17.7989 20.5004L17.7991 20.5014C17.8147 20.576 17.8322 20.6502 17.8516 20.7239L17.8518 20.7249L17.8521 20.7259C17.8753 20.7984 17.9002 20.8702 17.9269 20.9414L17.9273 20.9423L17.9277 20.9433C17.958 21.0129 17.9901 21.0816 18.024 21.1495L18.0244 21.1504L18.0249 21.1513C18.0622 21.2173 18.101 21.2822 18.1416 21.346L18.1421 21.3469L18.1427 21.3477C18.1864 21.4094 18.2316 21.4698 18.2784 21.529L18.279 21.5298L18.2797 21.5305C18.3294 21.5871 18.3805 21.6424 18.4329 21.6963L18.4337 21.697L18.4344 21.6977C18.4895 21.7488 18.5459 21.7983 18.6035 21.8463L18.6043 21.847L18.6051 21.8476C18.6651 21.8925 18.7261 21.9358 18.7882 21.9775L18.7891 21.9781L18.7899 21.9786C18.8541 22.0169 18.9191 22.0535 18.9851 22.0884L18.9859 22.0889L18.9869 22.0893C19.0545 22.1207 19.1228 22.1502 19.1919 22.178L19.1928 22.1784L19.1938 22.1787C19.2641 22.2028 19.335 22.225 19.4064 22.2453L19.4074 22.2456L19.4084 22.2458C19.4807 22.2624 19.5533 22.277 19.6264 22.2897L19.6274 22.2899L19.6284 22.29C19.7019 22.2989 19.7755 22.3058 19.8493 22.3108L19.8504 22.3108L19.8514 22.3108C19.9253 22.3119 19.9991 22.3111 20.073 22.3083L20.074 22.3083L20.075 22.3082C20.1485 22.3016 20.2218 22.293 20.2948 22.2825L20.2958 22.2824L20.2968 22.2822C20.3692 22.2679 20.4411 22.2517 20.5126 22.2336L20.5135 22.2334L20.5145 22.2331C20.5849 22.2113 20.6547 22.1877 20.7238 22.1623L20.7248 22.1619L20.7257 22.1615C20.7934 22.1325 20.8603 22.1018 20.9264 22.0693L20.9273 22.0688L20.9282 22.0683C20.9925 22.0325 21.0558 21.9949 21.1181 21.9557L21.1189 21.9552L21.1198 21.9546C21.18 21.9122 21.239 21.8683 21.2969 21.8229L21.2977 21.8222L21.2985 21.8216C21.3539 21.7732 21.4081 21.7234 21.461 21.6722L21.4617 21.6715L21.4624 21.6707C21.5125 21.6169 21.5613 21.5617 21.6086 21.5053L21.6092 21.5046L21.6098 21.5037C21.6541 21.445 21.6969 21.3851 21.7381 21.3242L21.7387 21.3233L21.7392 21.3225C21.7773 21.2595 21.8136 21.1955 21.8484 21.1307L21.8489 21.1298L21.8493 21.1289C21.8806 21.0623 21.9102 20.995 21.9381 20.9269L21.9385 20.926L21.9389 20.925C21.9632 20.8557 21.9858 20.7857 22.0065 20.7152L22.0068 20.7142L22.007 20.7132C22.0241 20.6418 22.0394 20.57 22.0528 20.4978L22.053 20.4968L22.0532 20.4957C22.0629 20.423 22.0707 20.35 22.0767 20.2769L22.0768 20.2759L22.0768 20.2749C22.079 20.2016 22.0794 20.1283 22.0778 20.0551L22.0778 20.0541L22.0777 20.0531C22.0725 19.9801 22.0654 19.9073 22.0564 19.8347L22.0563 19.8337L22.0561 19.8327C22.0434 19.7607 22.0289 19.6891 22.0126 19.618L22.0124 19.617L22.0121 19.616C21.9922 19.5459 21.9705 19.4763 21.947 19.4074L21.9467 19.4064L21.9463 19.4054C21.9194 19.3379 21.8908 19.2711 21.8604 19.205L21.86 19.2041L21.8596 19.2032C21.8259 19.1389 21.7907 19.0756 21.7538 19.0132L21.7533 19.0123L21.7527 19.0114C21.7128 18.9511 21.6713 18.8919 21.6284 18.8337L21.6278 18.8329L21.6271 18.8321C21.5813 18.7764 21.5341 18.7219 21.4855 18.6687L21.4848 18.6679L21.4841 18.6672C21.4328 18.6167 21.3804 18.5675 21.3267 18.5197L21.326 18.5191L21.3252 18.5184C21.2691 18.4736 21.212 18.4302 21.1539 18.3884L21.153 18.3878L21.1522 18.3873C21.092 18.3486 21.0309 18.3115 20.9688 18.2761L20.9679 18.2756L20.967 18.2751C20.9033 18.243 20.8388 18.2126 20.7736 18.1839L20.7726 18.1835L20.7717 18.1831C20.7051 18.1579 20.638 18.1345 20.5702 18.1128L20.5693 18.1125L20.5683 18.1122C20.4996 18.0941 20.4305 18.0779 20.3611 18.0634L20.3601 18.0632L20.3591 18.0631C20.289 18.0523 20.2188 18.0434 20.1483 18.0363L20.1473 18.0362L20.1463 18.0362C20.0756 18.0328 20.0049 18.0313 19.9342 18.0317L19.9332 18.0317L19.9322 18.0318C19.8617 18.0358 19.7913 18.0417 19.7211 18.0495L19.7201 18.0496L19.7191 18.0498C19.6495 18.0612 19.5802 18.0744 19.5113 18.0895L19.5103 18.0897L19.5094 18.09C19.4414 18.1086 19.3739 18.129 19.307 18.1512L19.3061 18.1515L19.3051 18.1519C19.2395 18.1775 19.1746 18.2048 19.1104 18.2338L19.1095 18.2342L19.1086 18.2347C19.046 18.267 18.9844 18.301 18.9236 18.3365L18.9227 18.337L18.9219 18.3376C18.863 18.3762 18.8052 18.4164 18.7485 18.458L18.7477 18.4586L18.7469 18.4593C18.6924 18.5038 18.6391 18.5498 18.587 18.5971L18.5862 18.5978L18.5855 18.5985C18.5359 18.6484 18.4877 18.6996 18.4407 18.7521L18.4401 18.7528L18.4394 18.7536C18.3953 18.8084 18.3526 18.8643 18.3113 18.9213L18.3107 18.9221L18.3102 18.923C18.2719 18.982 18.2352 19.042 18.2 19.1029L18.1995 19.1038L18.1991 19.1047C18.1671 19.1673 18.1367 19.2308 18.108 19.295L18.1076 19.2959L18.1072 19.2968C18.0819 19.3624 18.0582 19.4285 18.0362 19.4953L18.0359 19.4963L18.0356 19.4973C18.0171 19.565 18.0004 19.6332 17.9853 19.7018L17.9851 19.7028L17.985 19.7038C17.9735 19.773 17.9638 19.8425 17.9559 19.9122L17.9557 19.9132L17.9557 19.9142C17.9513 19.9842 17.9488 20.0542 17.948 20.1242L17.948 20.1252L17.948 20.1263C17.9509 20.1962 17.9555 20.266 17.9619 20.3356L17.9619 20.3366L17.9621 20.3377C17.972 20.4068 17.9837 20.4756 17.9971 20.5441L17.9973 20.5451L17.9976 20.5461C18.0145 20.6138 18.0331 20.6809 18.0534 20.7475L18.0537 20.7485L18.0541 20.7494C18.0778 20.8148 18.1031 20.8795 18.1301 20.9436L18.1305 20.9445L18.1309 20.9454C18.1611 21.0079 18.1929 21.0695 18.2262 21.1303L18.2267 21.1312L18.2272 21.132C18.2636 21.1909 18.3014 21.2488 18.3407 21.3056L18.3412 21.3065L18.3419 21.3073C18.384 21.3619 18.4274 21.4155 18.4722 21.4678L18.4729 21.4686L18.4736 21.4693C18.521 21.5192 18.5696 21.5678 18.6194 21.6151L18.6202 21.6158L18.6209 21.6164C18.6731 21.661 18.7263 21.7042 18.7806 21.7459L18.7814 21.7465L18.7822 21.7471C18.8386 21.7859 18.8958 21.8232 18.954 21.859L18.9549 21.8595L18.9558 21.86C19.0157 21.8926 19.0763 21.9237 19.1378 21.9531L19.1387 21.9536L19.1396 21.9539C19.2024 21.9801 19.2658 22.0046 19.3298 22.0274L19.3308 22.0277L19.3317 22.028C19.3968 22.0474 19.4622 22.0651 19.5281 22.081L19.5291 22.0812L19.5301 22.0814C19.5967 22.0939 19.6635 22.1046 19.7306 22.1135L19.7315 22.1136L19.7326 22.1137C19.7999 22.1191 19.8674 22.1227 19.9349 22.1246L19.9359 22.1246L19.9369 22.1246C20.0043 22.1229 20.0717 22.1194 20.1389 22.1142L20.1399 22.1141L20.1409 22.114C20.2077 22.1052 20.2743 22.0947 20.3405 22.0825L20.3415 22.0823L20.3425 22.0821C20.4079 22.0664 20.4729 22.049 20.5374 22.0299L20.5384 22.0297L20.5394 22.0293C20.6028 22.0069 20.6655 21.9828 20.7277 21.9571L20.7286 21.9567L20.7295 21.9563C20.7902 21.9274 20.8501 21.8969 20.9092 21.8649L20.9101 21.8644L20.9109 21.8639C20.9682 21.8288 21.0246 21.7923 21.08 21.7543L21.0808 21.7537L21.0816 21.7531C21.135 21.7123 21.1872 21.6701 21.2384 21.6266L21.2392 21.6259L21.2399 21.6252C21.2887 21.5791 21.3363 21.5317 21.3826 21.4832L21.3833 21.4824L21.384 21.4816C21.4278 21.4307 21.4702 21.3787 21.5113 21.3256L21.5119 21.3248L21.5125 21.324C21.5508 21.2688 21.5876 21.2128 21.623 21.1557L21.6235 21.1549L21.624 21.154C21.6564 21.0952 21.6873 21.0357 21.7166 20.9753L21.717 20.9744L21.7174 20.9735C21.7436 20.9117 21.7682 20.8493 21.7912 20.7863L21.7915 20.7854L21.7918 20.7844C21.8115 20.7204 21.8296 20.6558 21.8459 20.5909L21.8462 20.5899L21.8464 20.5889C21.8594 20.5232 21.8708 20.4573 21.8804 20.391L21.8806 20.39L21.8807 20.389C21.8869 20.3224 21.8915 20.2558 21.8943 20.189L21.8943 20.188L21.8943 20.1869C21.8937 20.1202 21.8915 20.0535 21.8875 19.9869L21.8874 19.9859L21.8873 19.9848C21.8799 19.9186 21.8708 19.8526 21.8601 19.7869L21.8599 19.7859L21.8597 19.7849C21.8456 19.7199 21.8299 19.6553 21.8125 19.5911L21.8122 19.5902L21.8119 19.5892C21.7913 19.5261 21.7691 19.4636 21.7453 19.4017L21.745 19.4008L21.7445 19.3999C21.7176 19.3394 21.6892 19.2797 21.6593 19.2207L21.6588 19.2198L21.6583 19.2189C21.6254 19.1617 21.5911 19.1053 21.5554 19.0499L21.5549 19.0491L21.5543 19.0482C21.5158 18.9948 21.476 18.9425 21.4348 18.8912L21.4342 18.8904L21.4335 18.8897C21.3899 18.8407 21.345 18.7928 21.2989 18.7462L21.2982 18.7455L21.2975 18.7448C21.2491 18.7007 21.1997 18.658 21.1492 18.6165L21.1484 18.6158L21.1476 18.6152C21.0951 18.5765 21.0416 18.5392 20.9872 18.5033L20.9864 18.5028L20.9855 18.5023C20.9294 18.4693 20.8726 18.4378 20.8149 18.4079L20.814 18.4074L20.8131 18.407C20.754 18.3802 20.6944 18.3549 20.6341 18.3312L20.6331 18.3308L20.6322 18.3305C20.5708 18.31 20.5089 18.2912 20.4466 18.2739L20.4457 18.2737L20.4447 18.2734C20.3816 18.2595 20.3183 18.2473 20.2547 18.2367L20.2537 18.2365L20.2527 18.2364C20.1887 18.2292 20.1246 18.2237 20.0603 18.2198L20.0593 18.2198L20.0583 18.2198C19.994 18.2193 19.9297 18.2205 19.8655 18.2234L19.8645 18.2235L19.8635 18.2236C19.7996 18.2298 19.736 18.2378 19.6725 18.2474L19.6715 18.2475L19.6705 18.2477C19.6077 18.2607 19.5453 18.2752 19.4833 18.2914L19.4823 18.2916L19.4813 18.2919C19.4203 18.3113 19.3598 18.3323 19.2998 18.3549L19.2989 18.3552L19.298 18.3556C19.2393 18.3813 19.1814 18.4085 19.1242 18.4372L19.1233 18.4376L19.1224 18.4381C19.0667 18.4697 19.012 18.5028 18.9581 18.5372L18.9572 18.5378L18.9564 18.5384C18.9044 18.5756 18.8534 18.6141 18.8034 18.654L18.8026 18.6546L18.8018 18.6553C18.754 18.6977 18.7073 18.7413 18.6617 18.7861L18.661 18.7868L18.6603 18.7876C18.6171 18.8347 18.5751 18.8829 18.5344 18.9322L18.5338 18.933L18.5332 18.9338C18.4951 18.9851 18.4583 19.0373 18.423 19.0905L18.4224 19.0914L18.4219 19.0923C18.3893 19.1472 18.3581 19.2029 18.3284 19.2595L18.3279 19.2604L18.3275 19.2613C18.3007 19.3192 18.2755 19.3778 18.2517 19.4371L18.2513 19.438L18.251 19.439C18.2303 19.4993 18.2112 19.5602 18.1937 19.6215L18.1934 19.6225L18.1932 19.6235C18.1788 19.6856 18.166 19.748 18.1549 19.8107L18.1547 19.8117L18.1546 19.8127C18.1466 19.8758 18.1403 19.9392 18.1356 20.0026L18.1355 20.0036L18.1355 20.0046C18.134 20.0682 18.1342 20.1317 18.136 20.1952L18.1361 20.1962L18.1361 20.1972C18.1412 20.2605 18.1478 20.3235 18.1561 20.3864L18.1562 20.3874L18.1564 20.3884C18.1678 20.4507 18.1809 20.5126 18.1955 20.5741L18.1957 20.5751L18.196 20.5761C18.2137 20.6367 18.233 20.6969 18.2537 20.7564L18.2541 20.7574L18.2545 20.7583C18.2782 20.8167 18.3035 20.8744 18.3302 20.9314L18.3306 20.9323L18.3311 20.9332C18.3606 20.9886 18.3916 21.0433 18.4239 21.0971L18.4244 21.0979L18.425 21.0988C18.46 21.1507 18.4963 21.2017 18.5339 21.2518L18.5345 21.2526L18.5351 21.2534C18.5752 21.3013 18.6164 21.3481 18.6588 21.3939L18.6595 21.3946L18.6602 21.3953C18.7049 21.4387 18.7506 21.4809 18.7974 21.5219L18.7981 21.5226L18.7989 21.5232C18.8477 21.5616 18.8974 21.5987 18.948 21.6345L18.9488 21.6351L18.9497 21.6357C19.002 21.6687 19.0551 21.7004 19.109 21.7306L19.1099 21.7311L19.1108 21.7315C19.1661 21.7589 19.2221 21.7847 19.2787 21.8091L19.2797 21.8095L19.2806 21.8099C19.3383 21.8312 19.3965 21.851 19.4552 21.8693L19.4562 21.8696L19.4572 21.8699C19.5167 21.885 19.5765 21.8986 19.6366 21.9106L19.6376 21.9108L19.6386 21.911C19.6992 21.9198 19.76 21.927 19.8209 21.9327L19.822 21.9327L19.823 21.9328C19.884 21.9352 19.9451 21.936 20.0062 21.9352L20.0072 21.9352L20.0082 21.9352C20.0691 21.9312 20.1299 21.9256 20.1904 21.9184L20.1914 21.9183L20.1924 21.9181C20.2525 21.9078 20.3122 21.8959 20.3716 21.8824L20.3726 21.8822L20.3736 21.8819C20.4322 21.8653 20.4903 21.8473 20.5479 21.8277L20.5488 21.8273L20.5498 21.827C20.6063 21.8044 20.6621 21.7804 20.7173 21.7549L20.7182 21.7545L20.7191 21.754C20.7729 21.7257 20.8259 21.696 20.8781 21.6649L20.879 21.6644L20.8798 21.6638C20.9303 21.63 20.9799 21.595 21.0286 21.5587L21.0294 21.5581L21.0302 21.5574C21.0769 21.5186 21.1226 21.4786 21.1672 21.4375L21.1679 21.4368L21.1687 21.4361C21.2111 21.3927 21.2524 21.3482 21.2925 21.3026L21.2931 21.3019L21.2938 21.3011C21.3315 21.2535 21.3679 21.205 21.4031 21.1556L21.4037 21.1548L21.4042 21.1539C21.4368 21.1028 21.4681 21.0508 21.498 20.9981L21.4985 20.9972L21.4989 20.9963C21.5261 20.9421 21.5518 20.8872 21.5761 20.8317L21.5765 20.8308L21.5769 20.8298C21.5983 20.7732 21.6182 20.716 21.6367 20.6584L21.637 20.6574L21.6373 20.6564C21.6528 20.5979 21.6668 20.5391 21.6792 20.4799L21.6795 20.4789L21.6796 20.4779C21.689 20.4182 21.6969 20.3583 21.7033 20.2982L21.7034 20.2972L21.7034 20.2962C21.7067 20.236 21.7084 20.1757 21.7086 20.1154L21.7086 20.1143L21.7086 20.1133C21.7057 20.0532 21.7013 19.9931 21.6953 19.9332L21.6952 19.9322L21.695 19.9312C21.686 19.8718 21.6755 19.8126 21.6635 19.7538L21.6633 19.7528L21.663 19.7518C21.648 19.6937 21.6316 19.6361 21.6136 19.579L21.6133 19.578L21.613 19.577C21.5922 19.5209 21.5699 19.4655 21.5463 19.4106L21.5459 19.4096L21.5455 19.4087C21.5191 19.3552 21.4914 19.3025 21.4623 19.2505L21.4618 19.2496L21.4613 19.2487C21.4296 19.1983 21.3967 19.1489 21.3626 19.1003L21.362 19.0994L21.3614 19.0986C21.3248 19.0519 21.2871 19.0063 21.2483 18.9616L21.2476 18.9608L21.2469 18.9601C21.2058 18.9176 21.1637 18.8762 21.1206 18.8359L21.1199 18.8352L21.1191 18.8345C21.074 18.7966 21.028 18.7599 20.9811 18.7244L20.9803 18.7238L20.9794 18.7232C20.9308 18.6903 20.8814 18.6587 20.8312 18.6284L20.8303 18.6278L20.8294 18.6274C20.7778 18.5997 20.7255 18.5735 20.6725 18.5487L20.6716 18.5482L20.6707 18.5479C20.6166 18.5259 20.562 18.5053 20.5069 18.4862L20.506 18.4858L20.505 18.4856C20.4491 18.4694 20.3928 18.4547 20.3361 18.4414L20.3351 18.4412L20.3341 18.441C20.277 18.4308 20.2196 18.4221 20.162 18.4149L20.161 18.4148L20.16 18.4147C20.1022 18.4106 20.0443 18.4079 19.9864 18.4068L19.9854 18.4068L19.9844 18.4068C19.9265 18.4088 19.8688 18.4122 19.8112 18.4171L19.8102 18.4172L19.8092 18.4174C19.752 18.4253 19.6951 18.4348 19.6384 18.4457L19.6374 18.4459L19.6364 18.4462C19.5804 18.4601 19.5248 18.4754 19.4697 18.4922L19.4687 18.4925L19.4678 18.4929C19.4136 18.5125 19.36 18.5336 19.3069 18.556L19.306 18.5564L19.3051 18.5569C19.2533 18.5821 19.2022 18.6086 19.1518 18.6364L19.151 18.6369L19.1501 18.6374C19.1013 18.6679 19.0532 18.6995 19.0061 18.7325L19.0052 18.733L19.0044 18.7337C18.959 18.769 18.9146 18.8055 18.8711 18.8431L18.8704 18.8437L18.8696 18.8444C18.8282 18.8843 18.7878 18.9251 18.7484 18.967L18.7477 18.9678L18.7471 18.9685C18.71 19.0124 18.674 19.0572 18.6392 19.1029L18.6386 19.1037L18.6381 19.1046C18.6057 19.152 18.5746 19.2002 18.5447 19.2493L18.5442 19.2501L18.5437 19.251C18.5164 19.3015 18.4904 19.3526 18.4657 19.4045L18.4653 19.4054L18.4649 19.4063C18.4429 19.4593 18.4224 19.5128 18.4032 19.5668L18.4028 19.5677L18.4025 19.5687C18.3861 19.6236 18.3712 19.6789 18.3576 19.7345L18.3574 19.7355L18.3572 19.7365C18.3465 19.7927 18.3372 19.8491 18.3294 19.9058L18.3293 19.9068L18.3292 19.9078C18.3243 19.9647 18.3209 20.0217 18.3189 20.0788L18.3189 20.0798L18.3189 20.0808C18.3199 20.1378 18.3223 20.1948 18.3262 20.2516L18.3262 20.2526L18.3264 20.2537C18.3331 20.3102 18.3413 20.3664 18.3509 20.4225L18.3511 20.4235L18.3513 20.4245C18.3638 20.4799 18.3777 20.5349 18.3929 20.5895L18.3932 20.5905L18.3935 20.5914C18.4116 20.6451 18.4309 20.6983 18.4517 20.7509L18.452 20.7518L18.4525 20.7528C18.4758 20.8042 18.5005 20.8549 18.5264 20.905L18.5269 20.9059L18.5274 20.9068C18.5558 20.9554 18.5855 21.0032 18.6163 21.0502L18.6169 21.051L18.6175 21.0518C18.6507 21.0971 18.685 21.1414 18.7204 21.1849L18.721 21.1856L18.7217 21.1864C18.7593 21.2279 18.7979 21.2683 18.8374 21.3077L18.8382 21.3084L18.8389 21.3091C18.8804 21.3463 18.9228 21.3824 18.9661 21.4174L18.9669 21.418L18.9678 21.4186C19.0128 21.4512 19.0585 21.4826 19.1051 21.5128L19.106 21.5134L19.1068 21.5139C19.1548 21.5415 19.2035 21.5679 19.2528 21.593L19.2537 21.5934L19.2546 21.5939C19.3051 21.6163 19.356 21.6374 19.4075 21.6571L19.4085 21.6575L19.4094 21.6578C19.4618 21.6748 19.5146 21.6904 19.5677 21.7046L19.5687 21.7049L19.5697 21.7051C19.6234 21.7165 19.6774 21.7265 19.7316 21.735L19.7326 21.7352L19.7336 21.7353C19.7881 21.7409 19.8427 21.7452 19.8974 21.748L19.8984 21.7481L19.8994 21.7481C19.9541 21.748 20.0087 21.7465 20.0633 21.7436L20.0643 21.7435L20.0653 21.7434C20.1196 21.7376 20.1736 21.7304 20.2275 21.7218L20.2285 21.7216L20.2295 21.7214C20.2828 21.71 20.3357 21.6972 20.3883 21.683L20.3893 21.6827L20.3902 21.6824C20.442 21.6655 20.4932 21.6472 20.544 21.6276L20.545 21.6273L20.5459 21.6268C20.5955 21.6046 20.6445 21.5811 20.6929 21.5564L20.6938 21.5559L20.6947 21.5554C20.7417 21.5281 20.788 21.4997 20.8335 21.47L20.8344 21.4695L20.8352 21.4689C20.8791 21.4369 20.9221 21.4038 20.9643 21.3696L20.965 21.369L20.9658 21.3683C21.0061 21.332 21.0455 21.2946 21.0838 21.2563L21.0845 21.2556L21.0852 21.2548C21.1215 21.2145 21.1568 21.1733 21.191 21.1312L21.1916 21.1304L21.1922 21.1296C21.2242 21.0858 21.2549 21.0413 21.2846 20.9959L21.2851 20.995L21.2857 20.9942C21.3129 20.9473 21.3389 20.8999 21.3637 20.8517L21.3642 20.8508L21.3646 20.8499C21.3869 20.8006 21.4079 20.7507 21.4276 20.7003L21.428 20.6994L21.4283 20.6984C21.4454 20.6471 21.4611 20.5954 21.4756 20.5434L21.4758 20.5424L21.4761 20.5414C21.4878 20.4887 21.4982 20.4357 21.5072 20.3825L21.5074 20.3815L21.5075 20.3805C21.5138 20.327 21.5187 20.2733 21.5222 20.2195L21.5223 20.2185L21.5223 20.2175C21.5231 20.1637 21.5225 20.1099 21.5205 20.0562L21.5205 20.0552L21.5204 20.0542C21.5157 20.0007 21.5096 19.9473 21.5022 19.8942L21.502 19.8932L21.5018 19.8922C21.4917 19.8396 21.4802 19.7873 21.4674 19.7353L21.4672 19.7344L21.4669 19.7334C21.4515 19.6822 21.4348 19.6315 21.4168 19.5813L21.4164 19.5803L21.416 19.5794C21.3955 19.5302 21.3738 19.4816 21.3508 19.4336L21.3504 19.4327L21.3499 19.4318C21.3245 19.3852 21.298 19.3392 21.2703 19.294L21.2697 19.2931L21.2691 19.2923C21.2392 19.2486 21.2082 19.2058 21.1761 19.1638L21.1754 19.163L21.1748 19.1622C21.1406 19.122 21.1055 19.0827 21.0693 19.0444L21.0686 19.0437L21.0679 19.043C21.0299 19.0066 20.991 18.9713 20.9512 18.9371L20.9504 18.9364L20.9496 18.9358C20.9082 18.9037 20.8659 18.8728 20.823 18.8429L20.8221 18.8423L20.8213 18.8418C20.7769 18.8143 20.7318 18.788 20.6861 18.7628L20.6852 18.7624L20.6843 18.7619C20.6374 18.7393 20.59 18.7179 20.5421 18.6977L20.5412 18.6973L20.5402 18.697C20.4914 18.6794 20.4421 18.6631 20.3925 18.6481L20.3915 18.6478L20.3905 18.6476C20.3403 18.6352 20.2897 18.6242 20.2389 18.6145L20.238 18.6143L20.237 18.6142C20.1858 18.6072 20.1345 18.6016 20.0831 18.5973L20.0821 18.5972L20.0811 18.5972C20.0296 18.5956 19.9781 18.5953 19.9267 18.5965L19.9257 18.5965L19.9247 18.5966C19.8734 18.6004 19.8223 18.6055 19.7713 18.612L19.7703 18.6122L19.7693 18.6123C19.7188 18.6215 19.6686 18.632 19.6187 18.6437L19.6177 18.644L19.6167 18.6442C19.5675 18.6586 19.5188 18.6743 19.4704 18.6912L19.4694 18.6915L19.4685 18.6919C19.4211 18.7113 19.3743 18.7319 19.3281 18.7538L19.3271 18.7542L19.3263 18.7547C19.2812 18.7789 19.2368 18.8043 19.1931 18.8308L19.1923 18.8314L19.1915 18.8319C19.1492 18.8607 19.1078 18.8905 19.0671 18.9214L19.0663 18.9221L19.0655 18.9227C19.0265 18.9557 18.9884 18.9896 18.9512 19.0246L18.9505 19.0253L18.9498 19.026C18.9144 19.0628 18.8801 19.1005 18.8467 19.1391L18.846 19.1398L18.8454 19.1406C18.8141 19.1809 18.7838 19.2219 18.7546 19.2636L18.754 19.2645L18.7535 19.2653C18.7265 19.3085 18.7006 19.3524 18.6759 19.3969L18.6754 19.3978L18.6749 19.3987C18.6526 19.4444 18.6314 19.4907 18.6114 19.5375L18.611 19.5384L18.6106 19.5394C18.593 19.5871 18.5767 19.6352 18.5616 19.6837L18.5613 19.6847L18.5611 19.6857C18.5485 19.7349 18.5372 19.7843 18.5272 19.8341L18.5269 19.8351L18.5268 19.8361C18.5193 19.8862 18.5132 19.9365 18.5083 19.9869L18.5082 19.9879L18.5081 19.989C18.5058 20.0395 18.5048 20.0901 18.5051 20.1406L18.5051 20.1416L18.5052 20.1427C18.508 20.1931 18.5122 20.2434 18.5176 20.2935L18.5177 20.2945L18.5179 20.2955C18.5259 20.3453 18.5351 20.3947 18.5456 20.4439L18.5458 20.4449L18.5461 20.4459C18.5591 20.4944 18.5733 20.5426 18.5887 20.5903L18.589 20.5913L18.5894 20.5922C18.6072 20.639 18.6263 20.6853 18.6464 20.7311L18.6469 20.732L18.6473 20.7329C18.6698 20.7775 18.6934 20.8215 18.7181 20.8648L18.7186 20.8657L18.7191 20.8665C18.746 20.9084 18.7739 20.9496 18.8028 20.99L18.8034 20.9908L18.804 20.9916C18.8349 21.0304 18.8668 21.0683 18.8996 21.1053L18.9003 21.1061L18.901 21.1068C18.9357 21.1421 18.9712 21.1764 19.0075 21.2097L19.0083 21.2104L19.009 21.2111C19.047 21.2424 19.0857 21.2728 19.1252 21.302L19.126 21.3026L19.1269 21.3032C19.1677 21.3304 19.2093 21.3564 19.2514 21.3814L19.2523 21.3819L19.2532 21.3823C19.2965 21.405 19.3404 21.4265 19.3848 21.4469L19.3857 21.4473L19.3867 21.4476C19.432 21.4656 19.4777 21.4824 19.5238 21.4979L19.5248 21.4982L19.5258 21.4985C19.5726 21.5116 19.6197 21.5234 19.667 21.534L19.668 21.5343L19.669 21.5344C19.7168 21.5425 19.7648 21.5493 19.8128 21.5549L19.8138 21.555L19.8149 21.5551C19.8631 21.5581 19.9114 21.5599 19.9597 21.5603L19.9607 21.5604L19.9617 21.5603C20.0099 21.5583 20.058 21.555 20.106 21.5504L20.107 21.5503L20.108 21.5501C20.1556 21.5431 20.203 21.5347 20.2501 21.5252L20.2511 21.525L20.2521 21.5247C20.2987 21.5127 20.3448 21.4995 20.3907 21.4851L20.3916 21.4848L20.3926 21.4844C20.4375 21.4677 20.482 21.4497 20.526 21.4306L20.527 21.4302L20.5279 21.4297C20.5708 21.4084 20.6131 21.3859 20.6548 21.3623L20.6557 21.3618L20.6566 21.3613C20.697 21.3356 20.7367 21.3089 20.7757 21.2811L20.7765 21.2805L20.7773 21.2799C20.8148 21.2502 20.8515 21.2195 20.8874 21.1879L20.8882 21.1872L20.8889 21.1865C20.9231 21.1531 20.9564 21.1188 20.9888 21.0836L20.9894 21.0829L20.9901 21.0821C21.0206 21.0453 21.0501 21.0078 21.0787 20.9696L21.0793 20.9687L21.0799 20.9679C21.1064 20.9282 21.1319 20.8879 21.1564 20.8469L21.1569 20.8461L21.1574 20.8452C21.1797 20.803 21.2009 20.7603 21.2209 20.7171L21.2214 20.7162L21.2218 20.7153C21.2396 20.6711 21.2563 20.6265 21.2718 20.5815L21.2721 20.5806L21.2724 20.5796C21.2856 20.5339 21.2976 20.4879 21.3085 20.4417L21.3087 20.4407L21.3089 20.4397C21.3173 20.3929 21.3246 20.3461 21.3306 20.299L21.3307 20.298L21.3308 20.297C21.3344 20.2497 21.3368 20.2024 21.338 20.1551L21.338 20.1541L21.338 20.1531C21.3368 20.1058 21.3344 20.0586 21.3307 20.0115L21.3306 20.0105L21.3305 20.0095C21.3245 19.9627 21.3173 19.9162 21.3089 19.8698L21.3087 19.8688L21.3084 19.8678C21.2977 19.822 21.2858 19.7766 21.2727 19.7314L21.2724 19.7305L21.2721 19.7295C21.2568 19.6852 21.2403 19.6413 21.2227 19.5979L21.2224 19.597L21.2219 19.596C21.2022 19.5537 21.1814 19.5119 21.1596 19.4706L21.1591 19.4697L21.1586 19.4689C21.1347 19.4289 21.1098 19.3896 21.0839 19.3509L21.0833 19.3501L21.0827 19.3493C21.0549 19.3121 21.0262 19.2757 20.9966 19.2401L20.9959 19.2393L20.9952 19.2385C20.9639 19.2046 20.9317 19.1714 20.8986 19.1392L20.8979 19.1385L20.8972 19.1378C20.8626 19.1074 20.8272 19.0779 20.7912 19.0493L20.7904 19.0487L20.7896 19.0481C20.7521 19.0215 20.7141 18.9959 20.6754 18.9714L20.6745 18.9708L20.6736 18.9703C20.6338 18.9479 20.5934 18.9265 20.5525 18.9061L20.5516 18.9057L20.5507 18.9053C20.5089 18.8872 20.4666 18.8702 20.424 18.8543L20.423 18.8539L20.4221 18.8536C20.3787 18.84 20.335 18.8275 20.2911 18.8162L20.2901 18.816L20.2891 18.8158C20.2447 18.8068 20.2001 18.799 20.1554 18.7924L20.1544 18.7923L20.1534 18.7922C20.1084 18.7879 20.0634 18.7849 20.0183 18.783L20.0173 18.7829L20.0163 18.7829C19.9712 18.7834 19.9262 18.7851 19.8812 18.788L19.8802 18.788L19.8792 18.7881C19.8346 18.7933 19.7901 18.7997 19.7458 18.8072L19.7448 18.8074L19.7438 18.8076C19.7 18.8175 19.6565 18.8284 19.6133 18.8405L19.6124 18.8408L19.6114 18.8411C19.5689 18.8555 19.5269 18.8709 19.4853 18.8875L19.4843 18.8878L19.4834 18.8882C19.4428 18.9069 19.4026 18.9266 19.363 18.9474L19.3621 18.9479L19.3612 18.9484C19.3228 18.9712 19.285 18.9949 19.2478 19.0197L19.2469 19.0203L19.2461 19.0209C19.2103 19.0475 19.1752 19.075 19.1408 19.1035L19.14 19.1041L19.1392 19.1048C19.1064 19.135 19.0744 19.166 19.0431 19.1978L19.0424 19.1985L19.0418 19.1993C19.0123 19.2327 18.9836 19.2668 18.9559 19.3016L18.9553 19.3024L18.9547 19.3033C18.9288 19.3395 18.9039 19.3763 18.8799 19.4138L18.8793 19.4147L18.8788 19.4155C18.8568 19.4542 18.8359 19.4934 18.8159 19.5331L18.8154 19.534L18.815 19.5349C18.7971 19.5755 18.7803 19.6166 18.7645 19.6581L18.7642 19.659L18.7639 19.66C18.7503 19.7022 18.7377 19.7447 18.7263 19.7875L18.7261 19.7885L18.7258 19.7895C18.7166 19.8328 18.7086 19.8763 18.7016 19.9199L18.7014 19.9209L18.7013 19.9219C18.6966 19.9659 18.693 20.0099 18.6905 20.0539L18.6905 20.0549L18.6905 20.056C18.6903 20.1 18.6912 20.144 18.6932 20.188L18.6933 20.189L18.6934 20.1901C18.6977 20.2338 18.7031 20.2774 18.7096 20.3208L18.7097 20.3218L18.7099 20.3228C18.7186 20.3658 18.7284 20.4085 18.7393 20.4509L18.7395 20.4518L18.7398 20.4528C18.7529 20.4945 18.7669 20.5359 18.782 20.5768L18.7824 20.5777L18.7828 20.5787C18.8 20.6187 18.8181 20.6582 18.8373 20.6973L18.8377 20.6982L18.8382 20.6991C18.8593 20.737 18.8814 20.7743 18.9044 20.811L18.9049 20.8119L18.9055 20.8127C18.9303 20.8481 18.956 20.8828 18.9825 20.9169L18.9832 20.9177L18.9838 20.9184C19.012 20.951 19.0411 20.9827 19.0709 21.0137L19.0716 21.0144L19.0723 21.0151C19.1036 21.0445 19.1357 21.0729 19.1684 21.1006L19.1692 21.1012L19.17 21.1018C19.204 21.1277 19.2387 21.1526 19.274 21.1765L19.2748 21.1771L19.2757 21.1776C19.3121 21.1997 19.3491 21.2208 19.3865 21.2409L19.3874 21.2413L19.3883 21.2418C19.4267 21.2598 19.4655 21.2769 19.5047 21.2929L19.5056 21.2933L19.5066 21.2936C19.5465 21.3075 19.5867 21.3204 19.6273 21.3322L19.6282 21.3325L19.6292 21.3327C19.6703 21.3423 19.7115 21.3509 19.7529 21.3583L19.7539 21.3585L19.7549 21.3586C19.7966 21.3639 19.8383 21.3681 19.8802 21.3711L19.8812 21.3712L19.8822 21.3712C19.9241 21.3721 19.966 21.3718 20.0078 21.3705L20.0088 21.3705L20.0098 21.3704C20.0514 21.3669 20.093 21.3622 20.1343 21.3565L20.1353 21.3564L20.1363 21.3562C20.1773 21.3483 20.218 21.3394 20.2584 21.3294L20.2594 21.3292L20.2604 21.3289C20.3002 21.3168 20.3397 21.3037 20.3788 21.2896L20.3798 21.2892L20.3807 21.2888C20.419 21.2727 20.4568 21.2555 20.4942 21.2374L20.4951 21.237L20.496 21.2365C20.5323 21.2164 20.5681 21.1955 20.6034 21.1736L20.6042 21.173L20.605 21.1725C20.6391 21.1488 20.6724 21.1242 20.7051 21.0988L20.7059 21.0982L20.7067 21.0976C20.738 21.0705 20.7687 21.0427 20.7985 21.014L20.7993 21.0133L20.7999 21.0126C20.8283 20.9825 20.8558 20.9517 20.8825 20.9201L20.8832 20.9194L20.8838 20.9186C20.9088 20.8857 20.933 20.8523 20.9563 20.8182L20.9569 20.8173L20.9574 20.8165C20.9789 20.7813 20.9995 20.7456 21.0191 20.7093L21.0196 20.7084L21.02 20.7075C21.0378 20.6703 21.0545 20.6327 21.0703 20.5947L21.0707 20.5938L21.071 20.5928C21.0849 20.5541 21.0977 20.5151 21.1095 20.4757L21.1097 20.4747L21.11 20.4737C21.1197 20.4339 21.1285 20.3938 21.1362 20.3535L21.1363 20.3525L21.1365 20.3515C21.1421 20.3109 21.1467 20.2703 21.1502 20.2295L21.1503 20.2285L21.1503 20.2275C21.1518 20.1867 21.1522 20.1458 21.1515 20.105L21.1515 20.104L21.1514 20.103C21.1487 20.0623 21.1449 20.0218 21.1401 19.9814L21.14 19.9804L21.1398 19.9794C21.133 19.9393 21.1251 19.8995 21.1162 19.8599L21.116 19.8589L21.1157 19.8579C21.1048 19.8189 21.093 19.7803 21.0801 19.7419L21.0798 19.741L21.0794 19.74C21.0647 19.7024 21.049 19.6653 21.0323 19.6286L21.0319 19.6277L21.0314 19.6268C21.0129 19.5911 20.9936 19.5559 20.9733 19.5213L20.9728 19.5204L20.9723 19.5195C20.9503 19.486 20.9275 19.4532 20.9039 19.4209L20.9033 19.4201L20.9026 19.4193C20.8774 19.3884 20.8515 19.3581 20.8248 19.3286L20.8241 19.3279L20.8234 19.3271C20.7952 19.2991 20.7664 19.2718 20.7369 19.2453L20.7361 19.2447L20.7353 19.244C20.7046 19.2192 20.6732 19.1951 20.6412 19.1719L20.6404 19.1713L20.6396 19.1708C20.6065 19.1493 20.5729 19.1288 20.5388 19.1091L20.538 19.1086L20.5371 19.1081C20.5021 19.0903 20.4667 19.0734 20.4309 19.0575L20.43 19.0571L20.429 19.0567C20.3925 19.0427 20.3557 19.0297 20.3185 19.0176L20.3176 19.0173L20.3166 19.017C20.2789 19.007 20.2411 18.9979 20.203 18.9898L20.202 18.9896L20.201 18.9894C20.1627 18.9834 20.1242 18.9783 20.0856 18.9743L20.0846 18.9742L20.0836 18.9741C20.0449 18.9721 20.0062 18.9712 19.9675 18.9712L19.9665 18.9712L19.9655 18.9712C19.927 18.9733 19.8885 18.9764 19.8501 18.9805L19.8491 18.9806L19.8481 18.9807C19.8101 18.9868 19.7722 18.9939 19.7346 19.002L19.7336 19.0022L19.7326 19.0024C19.6955 19.0124 19.6587 19.0234 19.6222 19.0354L19.6212 19.0357L19.6203 19.036C19.5845 19.0498 19.5491 19.0646 19.5141 19.0802L19.5132 19.0807L19.5123 19.0811C19.4782 19.0986 19.4445 19.1169 19.4114 19.1361L19.4105 19.1366L19.4097 19.1371C19.3776 19.158 19.3462 19.1797 19.3153 19.2022L19.3145 19.2028L19.3137 19.2035C19.284 19.2275 19.255 19.2523 19.2267 19.2779L19.2259 19.2786L19.2252 19.2793C19.1982 19.3062 19.172 19.3339 19.1464 19.3622L19.1458 19.3629L19.1451 19.3637C19.1211 19.3933 19.0979 19.4235 19.0755 19.4542L19.0749 19.455L19.0743 19.4559C19.0535 19.4877 19.0336 19.5201 19.0145 19.5529L19.014 19.5538L19.0135 19.5547C18.9961 19.5885 18.9796 19.6226 18.964 19.6572L18.9636 19.6581L18.9632 19.6591C18.9494 19.6944 18.9365 19.73 18.9246 19.7659L18.9242 19.7669L18.924 19.7679C18.9139 19.8043 18.9047 19.841 18.8965 19.8779L18.8963 19.8789L18.8961 19.8799C18.8898 19.9171 18.8845 19.9544 18.8801 19.9919L18.88 19.9929L18.8799 19.9939C18.8775 20.0315 18.876 20.069 18.8755 20.1066L18.8755 20.1076L18.8755 20.1087C18.8769 20.1462 18.8792 20.1836 18.8825 20.2209L18.8826 20.222L18.8828 20.223C18.888 20.26 18.8941 20.2969 18.9012 20.3336L18.9014 20.3346L18.9016 20.3356C18.9106 20.3718 18.9204 20.4077 18.9312 20.4434L18.9315 20.4443L18.9318 20.4453C18.9444 20.4803 18.9578 20.5149 18.9721 20.5491L18.9725 20.5501L18.9729 20.551C18.9889 20.5844 19.0058 20.6173 19.0234 20.6497L19.0239 20.6506L19.0244 20.6515C19.0437 20.6829 19.0638 20.7138 19.0846 20.7441L19.0852 20.745L19.0858 20.7458C19.1081 20.7749 19.1312 20.8034 19.1549 20.8313L19.1556 20.8321L19.1563 20.8328C19.1814 20.8594 19.2071 20.8853 19.2335 20.9105L19.2342 20.9112L19.235 20.9119C19.2626 20.9356 19.2908 20.9586 19.3195 20.9808L19.3203 20.9814L19.3211 20.982C19.3509 21.0026 19.3812 21.0225 19.412 21.0415L19.4128 21.042L19.4137 21.0425C19.4454 21.0599 19.4774 21.0764 19.5099 21.092L19.5108 21.0925L19.5117 21.0928C19.5449 21.1068 19.5783 21.1198 19.6121 21.1319L19.613 21.1322L19.614 21.1325C19.6483 21.1428 19.6828 21.1523 19.7175 21.1607L19.7185 21.161L19.7195 21.1612C19.7546 21.1678 19.7898 21.1735 19.8251 21.1783L19.8261 21.1785L19.8271 21.1785C19.8625 21.1815 19.898 21.1835 19.9335 21.1845L19.9345 21.1845L19.9355 21.1845C19.9709 21.1837 20.0063 21.182 20.0416 21.1793L20.0426 21.1792L20.0436 21.1791C20.0787 21.1746 20.1136 21.1692 20.1484 21.1628L20.1493 21.1627L20.1503 21.1624C20.1846 21.1543 20.2187 21.1452 20.2525 21.1353L20.2535 21.135L20.2544 21.1347C20.2876 21.123 20.3205 21.1105 20.353 21.0972L20.3539 21.0968L20.3549 21.0963C20.3866 21.0813 20.4179 21.0655 20.4488 21.0488L20.4497 21.0483L20.4505 21.0478C20.4805 21.0296 20.5099 21.0106 20.5388 20.9908L20.5397 20.9902L20.5405 20.9896C20.5683 20.9684 20.5956 20.9465 20.6222 20.9239L20.623 20.9232L20.6237 20.9225C20.6492 20.8986 20.674 20.874 20.6981 20.8488L20.6988 20.8481L20.6995 20.8473C20.7223 20.8209 20.7443 20.7939 20.7657 20.7664L20.7663 20.7656L20.7669 20.7648C20.7868 20.7362 20.806 20.7071 20.8243 20.6776L20.8249 20.6768L20.8254 20.6759C20.8422 20.6455 20.8582 20.6146 20.8735 20.5834L20.8739 20.5825L20.8743 20.5816C20.8879 20.5497 20.9006 20.5174 20.9126 20.4849L20.9129 20.484L20.9132 20.483C20.9234 20.4499 20.9328 20.4166 20.9413 20.3831L20.9416 20.3821L20.9418 20.3811C20.9485 20.3473 20.9544 20.3133 20.9594 20.2792L20.9596 20.2782L20.9597 20.2772C20.9629 20.2429 20.9653 20.2086 20.9668 20.1742L20.9669 20.1732L20.9669 20.1722C20.9666 20.1379 20.9655 20.1036 20.9635 20.0694L20.9634 20.0683L20.9633 20.0673C20.9596 20.0333 20.9549 19.9995 20.9495 19.9657L20.9493 19.9647L20.9491 19.9637C20.9419 19.9304 20.9339 19.8973 20.925 19.8645L20.9248 19.8635L20.9244 19.8625C20.9139 19.8302 20.9026 19.7982 20.8905 19.7666L20.8901 19.7656L20.8897 19.7647C20.876 19.7338 20.8615 19.7033 20.8462 19.6732L20.8458 19.6722L20.8453 19.6714C20.8285 19.6421 20.8111 19.6134 20.7929 19.5851L20.7923 19.5843L20.7917 19.5835C20.7721 19.5562 20.7519 19.5296 20.731 19.5035L20.7303 19.5027L20.7297 19.5019C20.7075 19.477 20.6847 19.4526 20.6613 19.4289L20.6606 19.4282L20.6598 19.4275C20.6353 19.4051 20.6102 19.3834 20.5846 19.3623L20.5838 19.3617L20.583 19.3611C20.5564 19.3414 20.5293 19.3225 20.5018 19.3043L20.501 19.3038L20.5001 19.3033C20.4717 19.2866 20.4429 19.2706 20.4138 19.2555L20.4129 19.255L20.412 19.2546C20.3821 19.241 20.352 19.2282 20.3216 19.2162L20.3206 19.2159L20.3197 19.2156C20.2887 19.2052 20.2575 19.1957 20.2261 19.187L20.2251 19.1867L20.2241 19.1865C20.1924 19.1795 20.1605 19.1733 20.1285 19.168L20.1275 19.1678L20.1265 19.1677C20.0943 19.1641 20.0621 19.1613 20.0298 19.1593L20.0288 19.1593L20.0278 19.1593C19.9955 19.159 19.9632 19.1596 19.931 19.1611L19.93 19.1611L19.929 19.1612C19.897 19.1644 19.8651 19.1684 19.8333 19.1732L19.8323 19.1733L19.8313 19.1735C19.7999 19.18 19.7686 19.1873 19.7376 19.1954L19.7367 19.1956L19.7357 19.1959C19.7052 19.2056 19.675 19.2161 19.6451 19.2274L19.6441 19.2277L19.6432 19.2281C19.6139 19.2409 19.585 19.2545 19.5565 19.2688L19.5556 19.2692L19.5547 19.2697C19.5271 19.2855 19.4998 19.3019 19.473 19.3191L19.4721 19.3197L19.4713 19.3202C19.4455 19.3388 19.4201 19.3579 19.3953 19.3777L19.3945 19.3784L19.3937 19.379C19.37 19.4001 19.3468 19.4217 19.3242 19.444L19.3235 19.4447L19.3228 19.4454C19.3014 19.4688 19.2807 19.4927 19.2605 19.5171L19.2599 19.5179L19.2593 19.5187C19.2405 19.5441 19.2223 19.5699 19.2048 19.5962L19.2043 19.5971L19.2038 19.5979C19.1877 19.6251 19.1723 19.6526 19.1577 19.6805L19.1572 19.6814L19.1568 19.6823C19.1436 19.7109 19.1312 19.7398 19.1195 19.769L19.1191 19.7699L19.1188 19.7709C19.1087 19.8006 19.0993 19.8305 19.0907 19.8607L19.0904 19.8617L19.0902 19.8627C19.0832 19.8932 19.0769 19.9238 19.0715 19.9546L19.0713 19.9556L19.0712 19.9566C19.0673 19.9876 19.0642 20.0186 19.062 20.0497L19.0619 20.0507L19.0619 20.0518C19.0612 20.0829 19.0613 20.1139 19.0622 20.145L19.0623 20.146L19.0623 20.147C19.0648 20.1779 19.0681 20.2087 19.0722 20.2394L19.0723 20.2404L19.0725 20.2414C19.0781 20.2718 19.0845 20.302 19.0917 20.332L19.0919 20.333L19.0922 20.3339C19.1009 20.3635 19.1103 20.3927 19.1205 20.4217L19.1208 20.4226L19.1212 20.4236C19.1328 20.4519 19.1451 20.4799 19.1581 20.5076L19.1585 20.5085L19.159 20.5094C19.1734 20.5363 19.1884 20.5627 19.2041 20.5888L19.2047 20.5897L19.2052 20.5905C19.2222 20.6157 19.2398 20.6403 19.2581 20.6645L19.2587 20.6653L19.2593 20.6661C19.2787 20.6892 19.2987 20.7118 19.3192 20.7339L19.3199 20.7346L19.3206 20.7353C19.3422 20.7562 19.3643 20.7765 19.3869 20.7962L19.3877 20.7969L19.3885 20.7975C19.412 20.816 19.4359 20.8338 19.4603 20.851L19.4612 20.8516L19.462 20.8521C19.4872 20.8679 19.5128 20.8831 19.5387 20.8976L19.5396 20.8981L19.5405 20.8985C19.5671 20.9116 19.594 20.9239 19.6211 20.9355L19.622 20.9359L19.623 20.9363C19.6507 20.9464 19.6786 20.9559 19.7067 20.9645L19.7076 20.9648L19.7086 20.9651C19.7371 20.9723 19.7657 20.9787 19.7944 20.9844L19.7954 20.9846L19.7964 20.9847C19.8253 20.9888 19.8543 20.9922 19.8834 20.9948L19.8844 20.9949L19.8854 20.9949C19.9145 20.996 19.9436 20.9963 19.9727 20.9959L19.9737 20.9959L19.9747 20.9958C20.0036 20.9938 20.0325 20.9911 20.0612 20.9876L20.0622 20.9875L20.0632 20.9873C20.0917 20.9823 20.12 20.9766 20.1482 20.9701L20.1491 20.9699L20.1501 20.9696C20.1778 20.9617 20.2053 20.953 20.2325 20.9437L20.2335 20.9434L20.2344 20.943C20.2611 20.9322 20.2874 20.9208 20.3135 20.9087L20.3144 20.9082L20.3153 20.9078C20.3406 20.8943 20.3656 20.8802 20.3901 20.8655L20.391 20.865L20.3918 20.8644C20.4156 20.8485 20.4388 20.8319 20.4617 20.8147L20.4625 20.8141L20.4633 20.8135C20.4852 20.7952 20.5066 20.7763 20.5274 20.7569L20.5282 20.7562L20.5289 20.7555C20.5487 20.7351 20.568 20.7142 20.5867 20.6927L20.5874 20.692L20.588 20.6912C20.6056 20.6689 20.6225 20.6461 20.6389 20.623L20.6395 20.6221L20.64 20.6213C20.6552 20.5973 20.6697 20.573 20.6835 20.5483L20.684 20.5474L20.6845 20.5465C20.697 20.5212 20.7089 20.4956 20.7201 20.4697L20.7205 20.4688L20.7209 20.4678C20.7308 20.4414 20.7399 20.4148 20.7484 20.388L20.7487 20.387L20.749 20.386C20.7561 20.3588 20.7625 20.3315 20.7681 20.304L20.7683 20.303L20.7685 20.302C20.7727 20.2744 20.7763 20.2466 20.7791 20.2188L20.7792 20.2178L20.7793 20.2168C20.7807 20.1889 20.7813 20.161 20.7813 20.1332L20.7813 20.1322L20.7812 20.1311C20.7798 20.1034 20.7776 20.0757 20.7748 20.0481L20.7747 20.0471L20.7745 20.0461C20.7702 20.0187 20.7653 19.9915 20.7596 19.9645L20.7594 19.9635L20.7591 19.9625C20.7521 19.9359 20.7444 19.9094 20.7361 19.8832L20.7358 19.8823L20.7354 19.8813C20.7258 19.8556 20.7155 19.8303 20.7045 19.8052L20.7041 19.8042L20.7036 19.8033C20.6915 19.7789 20.6787 19.7548 20.6653 19.7311L20.6648 19.7302L20.6642 19.7294C20.6497 19.7065 20.6345 19.684 20.6188 19.6619L20.6183 19.6611L20.6176 19.6603C20.6009 19.6391 20.5836 19.6184 20.5658 19.5981L20.5651 19.5974L20.5644 19.5966C20.5457 19.5774 20.5264 19.5587 20.5067 19.5405L20.506 19.5398L20.5052 19.5391C20.4847 19.5221 20.4637 19.5055 20.4424 19.4896L20.4416 19.489L20.4407 19.4884C20.4186 19.4736 20.3962 19.4594 20.3734 19.4458L20.3725 19.4453L20.3716 19.4449C20.3483 19.4325 20.3246 19.4208 20.3006 19.4097L20.2997 19.4093L20.2988 19.4089C20.2743 19.3992 20.2497 19.3901 20.2249 19.3816L20.2239 19.3813L20.2229 19.381C20.1977 19.3739 20.1724 19.3674 20.1469 19.3616L20.1459 19.3614L20.1449 19.3612C20.1192 19.3568 20.0935 19.3531 20.0677 19.35L20.0667 19.3499L20.0656 19.3498C20.0398 19.3481 20.0139 19.3471 19.988 19.3468L19.9869 19.3467L19.9859 19.3468C19.9601 19.3478 19.9344 19.3495 19.9087 19.3519L19.9077 19.352L19.9067 19.3521C19.8812 19.3558 19.8559 19.3602 19.8307 19.3653L19.8297 19.3655L19.8287 19.3657C19.8038 19.3721 19.7792 19.379 19.7547 19.3867L19.7538 19.387L19.7528 19.3873C19.7288 19.3962 19.7051 19.4057 19.6817 19.4158L19.6808 19.4162L19.6799 19.4167C19.657 19.428 19.6345 19.4399 19.6123 19.4523L19.6114 19.4528L19.6106 19.4534C19.5891 19.467 19.568 19.4811 19.5473 19.4958L19.5465 19.4963L19.5457 19.497C19.5258 19.5127 19.5063 19.5289 19.4873 19.5456L19.4866 19.5462L19.4858 19.5469C19.4677 19.5646 19.4501 19.5827 19.433 19.6012L19.4323 19.6019L19.4316 19.6027C19.4155 19.6221 19.3999 19.6418 19.3848 19.662L19.3842 19.6628L19.3836 19.6636C19.3696 19.6845 19.3562 19.7057 19.3433 19.7272L19.3428 19.7281L19.3423 19.729C19.3306 19.7511 19.3194 19.7735 19.3088 19.7961L19.3084 19.7971L19.308 19.798C19.2986 19.8212 19.2899 19.8445 19.2817 19.8681L19.2814 19.869L19.2811 19.87C19.2741 19.8939 19.2678 19.9179 19.2621 19.9421L19.2619 19.9431L19.2617 19.9441C19.2573 19.9685 19.2535 19.993 19.2503 20.0175L19.2502 20.0185L19.2501 20.0195C19.2482 20.0442 19.2469 20.0688 19.2463 20.0934L19.2463 20.0944L19.2463 20.0955C19.2469 20.12 19.2482 20.1446 19.25 20.169L19.2501 20.17L19.2502 20.1711C19.2534 20.1953 19.2571 20.2195 19.2614 20.2435L19.2616 20.2445L19.2618 20.2455C19.2674 20.2692 19.2736 20.2928 19.2803 20.3161L19.2806 20.3171L19.2809 20.318C19.2888 20.3409 19.2973 20.3636 19.3064 20.386L19.3068 20.3869L19.3072 20.3879C19.3174 20.4097 19.3281 20.4313 19.3393 20.4525L19.3398 20.4534L19.3403 20.4543C19.3526 20.4748 19.3654 20.4951 19.3787 20.5149L19.3793 20.5158L19.3799 20.5166C19.3942 20.5357 19.4089 20.5543 19.4241 20.5726L19.4248 20.5734L19.4255 20.5741C19.4415 20.5915 19.458 20.6085 19.4749 20.625L19.4756 20.6257L19.4764 20.6264C19.4941 20.6419 19.5121 20.657 19.5306 20.6716L19.5314 20.6722L19.5322 20.6728C19.5513 20.6863 19.5707 20.6993 19.5904 20.7118L19.5913 20.7124L19.5922 20.7129C19.6124 20.7243 19.633 20.7352 19.6538 20.7455L19.6547 20.7459L19.6556 20.7463C19.6769 20.7555 19.6983 20.7641 19.7199 20.7722L19.7209 20.7725L19.7219 20.7728C19.7438 20.7797 19.7659 20.786 19.7882 20.7917L19.7892 20.7919L19.7901 20.7921C19.8126 20.7966 19.8351 20.8005 19.8577 20.8038L19.8587 20.804L19.8597 20.8041C19.8824 20.8062 19.9051 20.8077 19.9278 20.8086L19.9288 20.8086L19.9299 20.8086C19.9525 20.8083 19.9752 20.8075 19.9977 20.806L19.9987 20.8059L19.9997 20.8058C20.0222 20.8032 20.0445 20.7999 20.0667 20.7961L20.0677 20.7959L20.0687 20.7957C20.0906 20.7907 20.1123 20.7852 20.1339 20.7791L20.1349 20.7788L20.1359 20.7785C20.1571 20.7713 20.178 20.7635 20.1988 20.7553L20.1997 20.7549L20.2006 20.7545C20.2209 20.7451 20.2409 20.7352 20.2606 20.7248L20.2615 20.7244L20.2623 20.7239C20.2814 20.7125 20.3002 20.7006 20.3186 20.6883L20.3195 20.6877L20.3203 20.6871C20.338 20.6739 20.3554 20.6602 20.3724 20.646L20.3732 20.6454L20.3739 20.6447C20.3901 20.6297 20.4059 20.6143 20.4213 20.5985L20.422 20.5978L20.4227 20.597C20.4372 20.5805 20.4513 20.5637 20.4649 20.5464L20.4655 20.5456L20.4661 20.5448C20.4788 20.5269 20.491 20.5088 20.5028 20.4903L20.5033 20.4894L20.5038 20.4885C20.5146 20.4695 20.5248 20.4503 20.5345 20.4307L20.535 20.4298L20.5354 20.4289C20.5441 20.409 20.5523 20.3888 20.5599 20.3685L20.5603 20.3675L20.5606 20.3666C20.5671 20.3459 20.5732 20.3251 20.5787 20.3042L20.5789 20.3032L20.5791 20.3022C20.5835 20.2811 20.5874 20.2599 20.5907 20.2386L20.5909 20.2376L20.591 20.2366C20.5932 20.2152 20.5948 20.1938 20.5959 20.1724L20.596 20.1714L20.596 20.1704C20.596 20.149 20.5955 20.1277 20.5944 20.1064L20.5943 20.1054L20.5942 20.1043C20.5921 20.0832 20.5894 20.0621 20.5861 20.0412L20.586 20.0401L20.5858 20.0391C20.5815 20.0184 20.5766 19.9979 20.5713 19.9775L20.571 19.9765L20.5707 19.9755C20.5644 19.9555 20.5575 19.9356 20.5502 19.916L20.5498 19.915L20.5494 19.9141C20.5411 19.8949 20.5322 19.876 20.523 19.8574L20.5225 19.8564L20.522 19.8556C20.5118 19.8375 20.5012 19.8197 20.4901 19.8022L20.4895 19.8013L20.4889 19.8005C20.477 19.7836 20.4647 19.7671 20.4519 19.751L20.4513 19.7502L20.4506 19.7494C20.4371 19.734 20.4232 19.719 20.4089 19.7043L20.4082 19.7036L20.4075 19.7029C20.3925 19.6891 20.3772 19.6757 20.3616 19.6627L20.3609 19.662L20.3601 19.6614C20.3438 19.6493 20.3274 19.6376 20.3106 19.6264L20.3098 19.6258L20.3089 19.6253C20.2916 19.615 20.2741 19.6051 20.2564 19.5958L20.2555 19.5953L20.2546 19.5949C20.2365 19.5865 20.2182 19.5786 20.1997 19.5712L20.1987 19.5708L20.1978 19.5705C20.179 19.5641 20.1601 19.5582 20.141 19.5528L20.14 19.5525L20.1391 19.5523C20.1198 19.5479 20.1005 19.544 20.0811 19.5407L20.0801 19.5405L20.0791 19.5404C20.0596 19.5381 20.0401 19.5363 20.0206 19.535L20.0196 19.535L20.0186 19.5349C19.9991 19.5347 19.9796 19.535 19.9601 19.5357L19.9591 19.5358L19.9581 19.5359C19.9388 19.5377 19.9196 19.54 19.9004 19.5428L19.8994 19.5429L19.8984 19.5431C19.8795 19.5469 19.8607 19.5512 19.842 19.556L19.841 19.5562L19.8401 19.5565C19.8217 19.5622 19.8036 19.5684 19.7856 19.5751L19.7847 19.5755L19.7837 19.5759C19.7662 19.5835 19.7488 19.5915 19.7317 19.6L19.7308 19.6004L19.7299 19.6009C19.7134 19.6103 19.697 19.62 19.681 19.6302L19.6801 19.6307L19.6793 19.6313C19.6638 19.6423 19.6487 19.6537 19.6338 19.6654L19.6331 19.666L19.6323 19.6667C19.6181 19.6792 19.6043 19.692 19.5908 19.7052L19.5901 19.7059L19.5894 19.7066C19.5766 19.7204 19.5643 19.7346 19.5523 19.749L19.5516 19.7498L19.551 19.7506C19.5398 19.7656 19.529 19.7808 19.5186 19.7964L19.5181 19.7972L19.5175 19.7981C19.508 19.8141 19.4989 19.8303 19.4902 19.8468L19.4897 19.8477L19.4893 19.8486C19.4815 19.8654 19.4741 19.8824 19.4672 19.8996L19.4668 19.9005L19.4664 19.9015C19.4604 19.9189 19.4549 19.9365 19.4498 19.9542L19.4495 19.9552L19.4493 19.9562C19.4451 19.9741 19.4414 19.9921 19.4381 20.0101L19.438 20.0111L19.4378 20.0121C19.4355 20.0302 19.4337 20.0484 19.4323 20.0666L19.4323 20.0676L19.4322 20.0686C19.4318 20.0868 19.4318 20.1049 19.4323 20.123L19.4324 20.124L19.4324 20.1251C19.4339 20.1431 19.4358 20.161 19.4381 20.1788L19.4382 20.1799L19.4384 20.1809C19.4416 20.1985 19.4453 20.216 19.4495 20.2335L19.4497 20.2344L19.45 20.2354C19.455 20.2525 19.4604 20.2695 19.4663 20.2863L19.4666 20.2872L19.467 20.2882C19.4737 20.3046 19.4808 20.3208 19.4883 20.3367L19.4887 20.3377L19.4892 20.3386C19.4975 20.3541 19.5061 20.3693 19.5152 20.3843L19.5157 20.3852L19.5163 20.3861C19.526 20.4005 19.5361 20.4147 19.5466 20.4286L19.5472 20.4294L19.5479 20.4302C19.559 20.4435 19.5704 20.4564 19.5822 20.4691L19.5829 20.4698L19.5836 20.4705C19.596 20.4825 19.6086 20.4941 19.6215 20.5054L19.6223 20.506L19.6231 20.5066C19.6365 20.5172 19.6502 20.5273 19.6641 20.5371L19.6649 20.5377L19.6658 20.5382C19.6801 20.5472 19.6946 20.5559 19.7094 20.5641L19.7103 20.5646L19.7112 20.565C19.7263 20.5724 19.7415 20.5794 19.7569 20.586L19.7579 20.5864L19.7588 20.5867C19.7745 20.5925 19.7903 20.5978 19.8062 20.6027L19.8071 20.603L19.8081 20.6032C19.8242 20.6072 19.8403 20.6108 19.8565 20.614L19.8575 20.6142L19.8585 20.6143C19.8748 20.6166 19.8911 20.6185 19.9075 20.6199L19.9085 20.62L19.9095 20.6201C19.9258 20.6206 19.9421 20.6208 19.9584 20.6205L19.9594 20.6205L19.9605 20.6204C19.9767 20.6192 19.9928 20.6177 20.0089 20.6157L20.0099 20.6156L20.0109 20.6154C20.0268 20.6126 20.0425 20.6093 20.0582 20.6057L20.0592 20.6054L20.0602 20.6052C20.0756 20.6007 20.0909 20.5959 20.106 20.5906L20.1069 20.5903L20.1079 20.5899C20.1226 20.5839 20.1372 20.5775 20.1516 20.5707L20.1526 20.5703L20.1534 20.5698C20.1674 20.5623 20.1812 20.5545 20.1947 20.5463L20.1956 20.5458L20.1964 20.5452C20.2095 20.5364 20.2223 20.5272 20.2348 20.5177L20.2357 20.517L20.2364 20.5164C20.2484 20.5063 20.2601 20.4959 20.2716 20.4852L20.2723 20.4845L20.273 20.4837C20.2838 20.4725 20.2943 20.461 20.3045 20.4492L20.3052 20.4484L20.3058 20.4476C20.3154 20.4354 20.3246 20.4229 20.3334 20.4102L20.334 20.4094L20.3346 20.4085C20.3427 20.3954 20.3506 20.3821 20.358 20.3687L20.3585 20.3678L20.359 20.3669C20.3657 20.3531 20.3721 20.3391 20.3781 20.3251L20.3785 20.3241L20.3789 20.3232C20.3841 20.3088 20.389 20.2944 20.3935 20.2799L20.3938 20.2789L20.394 20.2779C20.3978 20.2632 20.4011 20.2484 20.4041 20.2336L20.4043 20.2326L20.4044 20.2316C20.4066 20.2167 20.4084 20.2018 20.4098 20.1868L20.4099 20.1858L20.41 20.1848C20.4106 20.1698 20.4109 20.1549 20.4107 20.14L20.4107 20.1389L20.4107 20.1379C20.4098 20.1231 20.4085 20.1083 20.4069 20.0936L20.4068 20.0926L20.4066 20.0916C20.4042 20.077 20.4014 20.0626 20.3983 20.0482L20.3981 20.0472L20.3978 20.0462C20.394 20.0321 20.3898 20.0181 20.3853 20.0043L20.3849 20.0033L20.3846 20.0024C20.3793 19.9888 20.3738 19.9755 20.3679 19.9623L20.3675 19.9613L20.367 19.9604C20.3604 19.9476 20.3536 19.935 20.3464 19.9226L20.3459 19.9217L20.3454 19.9208C20.3376 19.9089 20.3295 19.8971 20.3212 19.8856L20.3206 19.8848L20.32 19.884C20.3111 19.873 20.3019 19.8623 20.2925 19.8518L20.2918 19.851L20.2911 19.8503C20.2812 19.8404 20.2711 19.8308 20.2608 19.8214L20.26 19.8207L20.2592 19.8201C20.2484 19.8113 20.2375 19.8028 20.2263 19.7947L20.2255 19.7941L20.2246 19.7935C20.2131 19.786 20.2014 19.7788 20.1896 19.7719L20.1887 19.7714L20.1878 19.771C20.1756 19.7647 20.1634 19.7589 20.151 19.7533L20.15 19.7529L20.1491 19.7525C20.1365 19.7477 20.1238 19.7431 20.1109 19.739L20.11 19.7387L20.109 19.7384C20.0961 19.7349 20.0831 19.7318 20.07 19.729L20.069 19.7288L20.068 19.7286C20.0549 19.7266 20.0417 19.7248 20.0286 19.7234L20.0275 19.7233L20.0265 19.7233C20.0134 19.7226 20.0002 19.7223 19.9871 19.7223L19.9861 19.7223L19.9851 19.7224C19.972 19.7231 19.959 19.7241 19.946 19.7255L19.945 19.7256L19.944 19.7258C19.9312 19.7279 19.9185 19.7303 19.9058 19.733L19.9049 19.7332L19.9039 19.7335C19.8914 19.7369 19.8791 19.7406 19.8669 19.7446L19.866 19.7449L19.865 19.7453C19.8531 19.7499 19.8414 19.7548 19.8297 19.7601L19.8288 19.7605L19.8279 19.761C19.8166 19.7668 19.8055 19.7729 19.7946 19.7793L19.7937 19.7798L19.7929 19.7803C19.7824 19.7873 19.772 19.7945 19.7619 19.8019L19.7611 19.8025L19.7603 19.8031C19.7506 19.8111 19.7412 19.8192 19.7319 19.8276L19.7312 19.8283L19.7305 19.829C19.7217 19.8379 19.7132 19.8469 19.705 19.8562L19.7043 19.8569L19.7037 19.8577C19.696 19.8674 19.6885 19.8772 19.6814 19.8871L19.6808 19.888L19.6802 19.8888C19.6736 19.8991 19.6672 19.9096 19.6612 19.9202L19.6607 19.9211L19.6602 19.922C19.6547 19.9328 19.6495 19.9438 19.6446 19.9549L19.6442 19.9558L19.6439 19.9568C19.6396 19.968 19.6356 19.9794 19.6319 19.9908L19.6316 19.9918L19.6313 19.9928C19.6282 20.0044 19.6254 20.016 19.6229 20.0276L19.6227 20.0286L19.6226 20.0296C19.6207 20.0414 19.6192 20.0531 19.6179 20.0648L19.6178 20.0659L19.6177 20.0669C19.6171 20.0786 19.6168 20.0904 19.6167 20.1021L19.6167 20.1031L19.6168 20.1041C19.6173 20.1158 19.6182 20.1274 19.6194 20.1389L19.6195 20.1399L19.6196 20.141C19.6214 20.1524 19.6234 20.1637 19.6257 20.175L19.6259 20.176L19.6262 20.177C19.6291 20.188 19.6322 20.199 19.6357 20.2098L19.636 20.2108L19.6364 20.2118C19.6403 20.2224 19.6446 20.2328 19.6491 20.2432L19.6495 20.2441L19.6499 20.245C19.6549 20.255 19.6602 20.2649 19.6656 20.2746L19.6661 20.2755L19.6667 20.2764C19.6726 20.2857 19.6788 20.2949 19.6852 20.3039L19.6858 20.3047L19.6864 20.3055C19.6932 20.3141 19.7002 20.3225 19.7075 20.3307L19.7081 20.3314L19.7088 20.3322C19.7164 20.3399 19.7242 20.3474 19.7321 20.3547L19.7329 20.3554L19.7337 20.3561C19.7419 20.3629 19.7503 20.3695 19.7589 20.3758L19.7597 20.3764L19.7606 20.377C19.7694 20.3829 19.7784 20.3885 19.7874 20.3938L19.7883 20.3944L19.7892 20.3948C19.7985 20.3997 19.8079 20.4042 19.8174 20.4086L19.8183 20.409L19.8193 20.4094C19.8289 20.4132 19.8386 20.4167 19.8484 20.42L19.8494 20.4203L19.8504 20.4205C19.8602 20.4233 19.8702 20.4257 19.8801 20.4279L19.8811 20.4281L19.8821 20.4283C19.8921 20.4299 19.9021 20.4313 19.9122 20.4324L19.9132 20.4325L19.9142 20.4326C19.9242 20.4331 19.9342 20.4334 19.9442 20.4335L19.9452 20.4335L19.9462 20.4334C19.9561 20.4329 19.966 20.4322 19.9758 20.4312L19.9769 20.4311L19.9779 20.4309C19.9876 20.4294 19.9972 20.4276 20.0068 20.4256L20.0078 20.4254L20.0087 20.4251C20.0181 20.4226 20.0274 20.4198 20.0366 20.4168L20.0376 20.4165L20.0386 20.4161C20.0475 20.4127 20.0564 20.409 20.0651 20.405L20.0661 20.4046L20.067 20.4042C20.0755 20.3998 20.0838 20.3952 20.092 20.3905L20.0929 20.3899L20.0938 20.3894C20.1016 20.3842 20.1094 20.3788 20.117 20.3733L20.1178 20.3727L20.1186 20.372C20.1258 20.3661 20.1329 20.36 20.1398 20.3538L20.1405 20.3531L20.1412 20.3523C20.1477 20.3458 20.1541 20.339 20.1602 20.3322L20.1609 20.3314L20.1615 20.3306C20.1672 20.3234 20.1728 20.3162 20.1781 20.3087L20.1787 20.3079L20.1792 20.307C20.1841 20.2994 20.1888 20.2917 20.1933 20.2838L20.1938 20.2829L20.1943 20.282C20.1983 20.274 20.2021 20.2659 20.2057 20.2577L20.2061 20.2568L20.2065 20.2558C20.2096 20.2475 20.2125 20.2391 20.2152 20.2307L20.2155 20.2297L20.2158 20.2287C20.218 20.2203 20.22 20.2117 20.2218 20.2032L20.222 20.2022L20.2222 20.2012C20.2223 20.2001 20.2225 20.1991 20.2226 20.1981C20.227 20.1779 20.2292 20.157 20.2292 20.1355C20.2292 19.9728 20.0991 19.841 19.9387 19.841C19.8818 19.841 19.8288 19.8575 19.7841 19.8861C19.7842 19.8859 19.7844 19.8857 19.7846 19.8855C19.7923 19.8785 19.8003 19.8717 19.8083 19.865C19.8168 19.8588 19.8255 19.8528 19.8343 19.847C19.8435 19.8416 19.8528 19.8365 19.8623 19.8316C19.872 19.8272 19.8819 19.823 19.8919 19.8191C19.9022 19.8158 19.9126 19.8126 19.923 19.8098C19.9337 19.8075 19.9444 19.8055 19.9552 19.8037C19.9662 19.8025 19.9772 19.8016 19.9882 19.801C19.9993 19.801 20.0104 19.8013 20.0216 19.8019C20.0327 19.803 20.0439 19.8045 20.055 19.8063C20.0661 19.8086 20.0771 19.8113 20.0881 19.8142C20.099 19.8178 20.1098 19.8216 20.1205 19.8257C20.131 19.8305 20.1415 19.8355 20.1518 19.8408C20.1619 19.8466 20.1719 19.8528 20.1817 19.8592C20.1912 19.8661 20.2006 19.8734 20.2098 19.8808C20.2186 19.8888 20.2273 19.8971 20.2357 19.9055C20.2438 19.9145 20.2516 19.9237 20.2592 19.9331C20.2663 19.943 20.2732 19.953 20.2799 19.9632C20.286 19.9739 20.2919 19.9847 20.2975 19.9957C20.3026 20.007 20.3074 20.0185 20.3119 20.0301C20.3158 20.042 20.3194 20.054 20.3227 20.0662C20.3253 20.0785 20.3277 20.091 20.3298 20.1035C20.3312 20.1162 20.3323 20.1289 20.3331 20.1417C20.3332 20.1545 20.3329 20.1674 20.3324 20.1803C20.3312 20.1932 20.3296 20.2061 20.3277 20.219C20.3252 20.2318 20.3223 20.2446 20.3191 20.2573C20.3151 20.2699 20.3109 20.2823 20.3064 20.2948C20.3012 20.3069 20.2957 20.319 20.2898 20.331C20.2833 20.3427 20.2765 20.3542 20.2695 20.3655C20.2617 20.3766 20.2538 20.3874 20.2455 20.398C20.2366 20.4082 20.2275 20.4183 20.2181 20.428C20.2081 20.4373 20.1979 20.4464 20.1875 20.4552C20.1766 20.4635 20.1654 20.4715 20.1541 20.4792C20.1422 20.4863 20.1302 20.4932 20.1181 20.4997C20.1055 20.5056 20.0928 20.5112 20.0799 20.5165C20.0666 20.521 20.0533 20.5253 20.0398 20.5292C20.0261 20.5323 20.0123 20.5352 19.9984 20.5377C19.9844 20.5394 19.9702 20.5408 19.9561 20.5418C19.9418 20.542 19.9275 20.5419 19.9132 20.5414C19.8989 20.5401 19.8845 20.5385 19.8703 20.5365C19.856 20.5337 19.8419 20.5305 19.8278 20.527C19.8138 20.5227 19.7999 20.518 19.7862 20.513C19.7726 20.5072 19.7592 20.5011 19.7459 20.4946C19.733 20.4873 19.7202 20.4798 19.7075 20.4719C19.6953 20.4632 19.6833 20.4543 19.6714 20.445C19.6601 20.4351 19.6489 20.4248 19.638 20.4143C19.6277 20.4031 19.6176 20.3917 19.6077 20.38C19.5985 20.3677 19.5896 20.3552 19.5809 20.3425C19.573 20.3292 19.5653 20.3157 19.558 20.302C19.5514 20.2879 19.5451 20.2735 19.5392 20.2591C19.534 20.2442 19.5292 20.2292 19.5248 20.2141C19.5211 20.1986 19.5179 20.1831 19.515 20.1675C19.5129 20.1516 19.5112 20.1358 19.51 20.1198C19.5095 20.1037 19.5095 20.0876 19.5099 20.0715C19.5111 20.0554 19.5127 20.0393 19.5148 20.0232C19.5177 20.0072 19.5209 19.9912 19.5246 19.9753C19.5292 19.9596 19.5341 19.9439 19.5395 19.9284C19.5456 19.9131 19.5522 19.898 19.5591 19.883C19.5669 19.8684 19.575 19.854 19.5835 19.8397C19.5928 19.8259 19.6024 19.8123 19.6124 19.7989C19.6231 19.7861 19.6341 19.7735 19.6454 19.7611C19.6575 19.7494 19.6698 19.738 19.6825 19.7268C19.6957 19.7163 19.7092 19.7062 19.723 19.6964C19.7374 19.6873 19.752 19.6786 19.7668 19.6702C19.7821 19.6627 19.7976 19.6555 19.8133 19.6487C19.8294 19.6427 19.8456 19.6372 19.862 19.632C19.8787 19.6278 19.8955 19.6239 19.9125 19.6205C19.9297 19.618 19.9469 19.616 19.9642 19.6144C19.9816 19.6137 19.9991 19.6134 20.0166 19.6137C20.0341 19.6148 20.0516 19.6164 20.0691 19.6185C20.0865 19.6215 20.1038 19.625 20.1211 19.6289C20.1382 19.6337 20.1552 19.639 20.172 19.6448C20.1887 19.6514 20.2051 19.6585 20.2214 19.6661C20.2373 19.6745 20.2531 19.6833 20.2686 19.6926C20.2837 19.7027 20.2985 19.7132 20.3131 19.7241C20.3271 19.7358 20.3409 19.7479 20.3543 19.7604C20.3672 19.7736 20.3797 19.7871 20.3919 19.801C20.4034 19.8155 20.4145 19.8304 20.4253 19.8456C20.4352 19.8614 20.4448 19.8774 20.454 19.8937C20.4624 19.9106 20.4704 19.9276 20.4779 19.9449C20.4845 19.9626 20.4907 19.9805 20.4965 19.9986C20.5013 20.0171 20.5056 20.0356 20.5095 20.0543C20.5124 20.0733 20.5149 20.0923 20.5169 20.1114C20.5178 20.1307 20.5183 20.15 20.5183 20.1693C20.5173 20.1887 20.5158 20.208 20.5138 20.2274C20.5108 20.2466 20.5073 20.2658 20.5033 20.2849C20.4983 20.3039 20.4929 20.3227 20.4869 20.3414C20.48 20.3598 20.4726 20.3781 20.4647 20.3961C20.4559 20.4138 20.4466 20.4313 20.4369 20.4485C20.4262 20.4653 20.4152 20.4818 20.4037 20.498C20.3913 20.5136 20.3785 20.5289 20.3654 20.5439C20.3514 20.5582 20.337 20.5722 20.3223 20.5858C20.3069 20.5986 20.2911 20.6111 20.275 20.6231C20.2582 20.6343 20.2412 20.6451 20.2238 20.6555C20.2059 20.6649 20.1877 20.6739 20.1693 20.6824C20.1505 20.6899 20.1314 20.697 20.1121 20.7036C20.0924 20.7091 20.0726 20.7141 20.0527 20.7187C20.0325 20.7221 20.0122 20.7251 19.9917 20.7275C19.9712 20.7288 19.9506 20.7296 19.9299 20.7299C19.9092 20.729 19.8885 20.7277 19.8678 20.7258C19.8472 20.7227 19.8267 20.7192 19.8062 20.7151C19.7859 20.7099 19.7658 20.7041 19.7457 20.6979C19.726 20.6905 19.7064 20.6827 19.687 20.6743C19.668 20.6649 19.6493 20.655 19.6308 20.6445C19.6127 20.6331 19.595 20.6212 19.5776 20.6089C19.5608 20.5955 19.5443 20.5818 19.5281 20.5676C19.5126 20.5525 19.4976 20.537 19.4829 20.5211C19.469 20.5044 19.4555 20.4873 19.4424 20.4698C19.4303 20.4517 19.4186 20.4332 19.4073 20.4144C19.397 20.3949 19.3872 20.3752 19.3779 20.3552C19.3696 20.3347 19.3618 20.3139 19.3546 20.293C19.3484 20.2716 19.3428 20.25 19.3377 20.2283C19.3337 20.2063 19.3303 20.1842 19.3274 20.1619C19.3257 20.1395 19.3246 20.117 19.324 20.0945C19.3246 20.0719 19.3258 20.0493 19.3275 20.0267C19.3304 20.0042 19.3339 19.9818 19.3379 19.9594C19.3432 19.9372 19.349 19.9151 19.3553 19.8932C19.3628 19.8716 19.3709 19.8501 19.3795 19.8289C19.3892 19.8081 19.3995 19.7875 19.4102 19.7672C19.4221 19.7474 19.4345 19.7279 19.4473 19.7087C19.4612 19.6902 19.4755 19.6721 19.4903 19.6543C19.5061 19.6373 19.5223 19.6206 19.5389 19.6044C19.5564 19.5891 19.5743 19.5742 19.5926 19.5597C19.6117 19.5462 19.6311 19.5332 19.6509 19.5207C19.6713 19.5092 19.692 19.4983 19.713 19.4879C19.7346 19.4786 19.7565 19.4698 19.7785 19.4616C19.8011 19.4546 19.8238 19.4482 19.8467 19.4423C19.8699 19.4377 19.8933 19.4336 19.9167 19.4302C19.9404 19.428 19.9642 19.4265 19.988 19.4255C20.0119 19.4258 20.0357 19.4268 20.0596 19.4283C20.0834 19.4311 20.1072 19.4346 20.1309 19.4387C20.1544 19.444 20.1778 19.45 20.2011 19.4565C20.224 19.4644 20.2467 19.4728 20.2693 19.4818C20.2914 19.492 20.3133 19.5028 20.3349 19.5142C20.3559 19.5268 20.3767 19.5399 20.3971 19.5535C20.4168 19.5683 20.4362 19.5836 20.4552 19.5994C20.4733 19.6162 20.4911 19.6335 20.5085 19.6512C20.5249 19.67 20.5409 19.6891 20.5564 19.7087C20.5709 19.7291 20.5849 19.75 20.5984 19.7712C20.6107 19.7931 20.6226 19.8154 20.6339 19.8379C20.644 19.8612 20.6535 19.8847 20.6625 19.9084C20.6702 19.9327 20.6773 19.9571 20.6838 19.9818C20.689 20.0069 20.6936 20.032 20.6976 20.0574C20.7002 20.0829 20.7023 20.1086 20.7036 20.1343C20.7036 20.1601 20.703 20.1859 20.7017 20.2118C20.6991 20.2375 20.6958 20.2633 20.6919 20.2889C20.6866 20.3144 20.6807 20.3397 20.6741 20.3649C20.6663 20.3898 20.6577 20.4145 20.6486 20.439C20.6382 20.463 20.6272 20.4868 20.6155 20.5103C20.6026 20.5332 20.5892 20.5557 20.5752 20.578C20.5599 20.5994 20.5442 20.6206 20.5279 20.6413C20.5105 20.6612 20.4926 20.6806 20.4742 20.6996C20.4548 20.7176 20.4349 20.7351 20.4146 20.7521C20.3934 20.768 20.3717 20.7834 20.3497 20.7983C20.3269 20.812 20.3037 20.825 20.2801 20.8376C20.2559 20.8488 20.2314 20.8594 20.2067 20.8694C20.1813 20.8781 20.1558 20.8862 20.13 20.8935C20.1038 20.8995 20.0775 20.9049 20.051 20.9095C20.0242 20.9128 19.9974 20.9153 19.9705 20.9172C19.9434 20.9176 19.9163 20.9173 19.8892 20.9163C19.8622 20.9139 19.8352 20.9107 19.8083 20.9069C19.7815 20.9016 19.7549 20.8956 19.7284 20.8889C19.7022 20.8808 19.6762 20.8721 19.6504 20.8626C19.6251 20.8518 19.6001 20.8403 19.5753 20.8281C19.5511 20.8146 19.5273 20.8005 19.5038 20.7857C19.4811 20.7697 19.4588 20.7531 19.4368 20.7359C19.4158 20.7175 19.3952 20.6986 19.375 20.6791C19.3559 20.6585 19.3373 20.6374 19.3192 20.6159C19.3022 20.5933 19.2858 20.5703 19.2699 20.5469C19.2553 20.5225 19.2412 20.4979 19.2278 20.4728C19.2156 20.447 19.2042 20.4208 19.1933 20.3944C19.1839 20.3673 19.1751 20.34 19.167 20.3125C19.1603 20.2845 19.1543 20.2563 19.1491 20.2279C19.1453 20.1993 19.1422 20.1705 19.1398 20.1416C19.139 20.1126 19.1389 20.0836 19.1395 20.0545C19.1416 20.0255 19.1445 19.9965 19.1481 19.9675C19.1532 19.9387 19.159 19.9101 19.1656 19.8816C19.1737 19.8534 19.1824 19.8254 19.1919 19.7976C19.2028 19.7703 19.2144 19.7433 19.2267 19.7166C19.2405 19.6905 19.2548 19.6647 19.2698 19.6393C19.2862 19.6147 19.3032 19.5906 19.3208 19.5668C19.3396 19.544 19.3591 19.5216 19.3791 19.4997C19.4002 19.4789 19.4219 19.4587 19.4441 19.439C19.4674 19.4204 19.4911 19.4025 19.5153 19.3851C19.5404 19.3691 19.566 19.3537 19.5919 19.3389C19.6186 19.3255 19.6457 19.3128 19.6731 19.3008C19.7011 19.2903 19.7294 19.2804 19.758 19.2713C19.787 19.2638 19.8163 19.257 19.8458 19.2509C19.8756 19.2464 19.9055 19.2427 19.9355 19.2397C19.9657 19.2384 19.9959 19.2378 20.0262 19.238C20.0565 19.2398 20.0867 19.2424 20.1169 19.2458C20.1469 19.2508 20.1768 19.2566 20.2066 19.2632C20.2361 19.2714 20.2653 19.2803 20.2944 19.29C20.3229 19.3013 20.3512 19.3133 20.3792 19.326C20.4066 19.3402 20.4336 19.3552 20.4602 19.3708C20.4861 19.3879 20.5115 19.4057 20.5365 19.4241C20.5605 19.4439 20.584 19.4643 20.6071 19.4853C20.629 19.5076 20.6504 19.5304 20.6713 19.5539C20.6909 19.5784 20.7099 19.6034 20.7284 19.629C20.7454 19.6556 20.7618 19.6826 20.7776 19.71C20.7919 19.7383 20.8055 19.767 20.8184 19.796C20.8298 19.8258 20.8405 19.8559 20.8504 19.8862C20.8587 19.9171 20.8662 19.9482 20.873 19.9795C20.8781 20.0112 20.8824 20.0431 20.886 20.0751C20.8879 20.1072 20.8889 20.1395 20.8892 20.1717C20.8878 20.2041 20.8855 20.2363 20.8825 20.2686C20.8777 20.3007 20.8722 20.3326 20.8658 20.3645C20.8578 20.396 20.849 20.4273 20.8394 20.4585C20.8282 20.4891 20.8161 20.5194 20.8034 20.5495C20.789 20.5788 20.7739 20.6078 20.7581 20.6365C20.7408 20.6643 20.7228 20.6916 20.704 20.7185C20.6839 20.7444 20.6631 20.7698 20.6417 20.7947C20.6189 20.8184 20.5956 20.8416 20.5716 20.8642C20.5465 20.8854 20.5208 20.9061 20.4946 20.9261C20.4673 20.9447 20.4396 20.9626 20.4114 20.9798C20.3823 20.9955 20.3528 21.0104 20.3229 21.0246C20.2922 21.0372 20.2612 21.049 20.2299 21.06C20.1981 21.0693 20.166 21.0778 20.1336 21.0855C20.1008 21.0915 20.0679 21.0966 20.0349 21.1009C20.0016 21.1034 19.9682 21.105 19.9348 21.1058C19.9013 21.1048 19.8678 21.1029 19.8344 21.1002C19.8011 21.0956 19.7679 21.0902 19.7348 21.084C19.702 21.0759 19.6695 21.0671 19.6371 21.0573C19.6052 21.0459 19.5736 21.0336 19.5423 21.0205C19.5117 21.0057 19.4815 20.9901 19.4516 20.9738C19.4226 20.9558 19.394 20.937 19.3658 20.9176C19.3387 20.8966 19.3121 20.8749 19.286 20.8525C19.2611 20.8287 19.2368 20.8042 19.2131 20.7791C19.1906 20.7528 19.1689 20.7258 19.1478 20.6983C19.1281 20.6696 19.1092 20.6405 19.091 20.6108C19.0743 20.5801 19.0584 20.549 19.0432 20.5175C19.0297 20.4851 19.017 20.4524 19.0052 20.4194C18.995 20.3857 18.9857 20.3517 18.9772 20.3175C18.9706 20.2828 18.9648 20.2479 18.9598 20.2129C18.9567 20.1776 18.9545 20.1422 18.9532 20.1067C18.9537 20.0712 18.9551 20.0356 18.9574 20.0001C18.9615 19.9647 18.9666 19.9294 18.9725 19.8942C18.9803 19.8593 18.989 19.8246 18.9985 19.7901C19.0098 19.7561 19.022 19.7224 19.0351 19.689C19.0498 19.6563 19.0655 19.624 19.0819 19.592C19.1 19.561 19.1189 19.5303 19.1386 19.5002C19.1598 19.4711 19.1818 19.4425 19.2045 19.4145C19.2287 19.3877 19.2535 19.3616 19.279 19.336C19.3059 19.3118 19.3334 19.2884 19.3614 19.2656C19.3907 19.2443 19.4205 19.2237 19.4509 19.2039C19.4822 19.1858 19.5141 19.1684 19.5464 19.1519C19.5795 19.137 19.6131 19.1231 19.647 19.11C19.6816 19.0987 19.7165 19.0883 19.7516 19.0788C19.7873 19.0711 19.8232 19.0644 19.8592 19.0587C19.8956 19.0548 19.9321 19.0519 19.9686 19.0499C20.0053 19.0499 20.042 19.0508 20.0786 19.0527C20.1152 19.0565 20.1517 19.0613 20.1881 19.0671C20.2242 19.0747 20.2601 19.0834 20.2958 19.0929C20.331 19.1044 20.3659 19.1167 20.4006 19.13C20.4345 19.1451 20.4681 19.1611 20.5013 19.178C20.5336 19.1967 20.5654 19.2162 20.5968 19.2365C20.6271 19.2586 20.6569 19.2814 20.6861 19.3049C20.7141 19.3301 20.7415 19.356 20.7682 19.3826C20.7935 19.4106 20.8182 19.4393 20.8421 19.4686C20.8645 19.4993 20.8861 19.5305 20.907 19.5623C20.9262 19.5952 20.9446 19.6286 20.9621 19.6624C20.9779 19.6973 20.9929 19.7325 21.0069 19.7682C21.0191 19.8046 21.0303 19.8413 21.0407 19.8784C21.0491 19.916 21.0566 19.9538 21.0631 19.9918C21.0676 20.0302 21.0712 20.0687 21.0738 20.1073C21.0744 20.1461 21.0741 20.1849 21.0727 20.2237C21.0694 20.2624 21.065 20.301 21.0597 20.3396C21.0524 20.3778 21.0441 20.4159 21.0348 20.4538C21.0236 20.4912 21.0114 20.5283 20.9983 20.5651C20.9833 20.6012 20.9674 20.637 20.9505 20.6723C20.9318 20.7067 20.9123 20.7407 20.8919 20.7742C20.8697 20.8066 20.8467 20.8384 20.8229 20.8696C20.7975 20.8996 20.7713 20.9289 20.7444 20.9575C20.716 20.9847 20.6869 21.0112 20.6571 21.037C20.626 21.0611 20.5942 21.0845 20.5619 21.107C20.5284 21.1278 20.4943 21.1477 20.4598 21.1668C20.4242 21.1841 20.3882 21.2004 20.3518 21.2157C20.3145 21.2292 20.277 21.2417 20.2391 21.2532C20.2006 21.2627 20.1618 21.2712 20.1228 21.2787C20.0835 21.2841 20.044 21.2885 20.0043 21.2918C19.9645 21.2931 19.9247 21.2933 19.8848 21.2925C19.8449 21.2896 19.8052 21.2856 19.7655 21.2806C19.7261 21.2735 19.6868 21.2654 19.6477 21.2562C19.6091 21.245 19.5708 21.2328 19.5328 21.2195C19.4955 21.2042 19.4585 21.188 19.422 21.1708C19.3863 21.1517 19.3511 21.1316 19.3164 21.1106C19.2828 21.0877 19.2498 21.064 19.2173 21.0394C19.1861 21.0131 19.1556 20.986 19.1258 20.958C19.0974 20.9285 19.0697 20.8982 19.0428 20.8672C19.0176 20.8348 18.9931 20.8017 18.9694 20.768C18.9475 20.733 18.9265 20.6974 18.9064 20.6613C18.8881 20.6241 18.8708 20.5864 18.8544 20.5482C18.8401 20.5092 18.8266 20.4698 18.8142 20.4301C18.8039 20.3896 18.7945 20.3489 18.7862 20.308C18.78 20.2666 18.7749 20.225 18.7708 20.1833C18.7688 20.1414 18.768 20.0994 18.7682 20.0574C18.7705 20.0153 18.774 19.9734 18.7784 19.9315C18.7851 19.8898 18.7928 19.8484 18.8016 19.8071C18.8125 19.7662 18.8244 19.7257 18.8374 19.6854C18.8525 19.6459 18.8685 19.6067 18.8856 19.5679C18.9046 19.53 18.9246 19.4927 18.9456 19.4558C18.9685 19.42 18.9923 19.3849 19.017 19.3503C19.0435 19.317 19.0708 19.2845 19.099 19.2526C19.1288 19.2222 19.1593 19.1926 19.1907 19.1638C19.2235 19.1367 19.257 19.1104 19.2912 19.0849C19.3268 19.0613 19.3629 19.0386 19.3996 19.0169C19.4374 18.9971 19.4757 18.9782 19.5146 18.9604C19.5543 18.9446 19.5945 18.9299 19.635 18.9161C19.6763 18.9046 19.7178 18.8941 19.7596 18.8847C19.8019 18.8775 19.8444 18.8715 19.8871 18.8665C19.93 18.8638 19.973 18.8622 20.0161 18.8617C20.0592 18.8635 20.1022 18.8664 20.1452 18.8705C20.1879 18.8768 20.2305 18.8843 20.273 18.8928C20.315 18.9036 20.3567 18.9155 20.3981 18.9285C20.4389 18.9437 20.4792 18.96 20.5192 18.9773C20.5583 18.9967 20.5969 19.0172 20.635 19.0386C20.672 19.0621 20.7084 19.0866 20.7441 19.112C20.7786 19.1393 20.8124 19.1675 20.8455 19.1966C20.877 19.2274 20.9078 19.2591 20.9378 19.2916C20.9661 19.3257 20.9936 19.3605 21.0202 19.396C21.0449 19.433 21.0687 19.4705 21.0916 19.5088C21.1125 19.5482 21.1324 19.5882 21.1512 19.6287C21.168 19.6702 21.1838 19.7122 21.1985 19.7546C21.2109 19.7977 21.2223 19.8412 21.2326 19.885C21.2407 19.9294 21.2476 19.9739 21.2534 20.0187C21.2568 20.0637 21.2591 20.1089 21.2603 20.1541C21.2592 20.1994 21.2569 20.2447 21.2534 20.2899C21.2476 20.3349 21.2407 20.3798 21.2326 20.4245C21.2223 20.4688 21.2108 20.5128 21.1981 20.5565C21.1833 20.5996 21.1673 20.6422 21.1502 20.6845C21.131 20.7259 21.1107 20.7667 21.0894 20.8071C21.066 20.8463 21.0415 20.8849 21.0162 20.9229C20.9888 20.9595 20.9605 20.9954 20.9313 21.0306C20.9003 21.0643 20.8684 21.0971 20.8357 21.1291C20.8013 21.1594 20.7662 21.1888 20.7303 21.2173C20.6929 21.2438 20.6548 21.2694 20.6161 21.2941C20.5762 21.3166 20.5356 21.3381 20.4945 21.3586C20.4524 21.3769 20.4097 21.3941 20.3667 21.4102C20.3228 21.424 20.2785 21.4367 20.2339 21.4482C20.1887 21.4573 20.1433 21.4653 20.0977 21.4721C20.0517 21.4765 20.0056 21.4796 19.9594 21.4816C19.9132 21.4811 19.8669 21.4794 19.8207 21.4766C19.7746 21.4712 19.7286 21.4647 19.6828 21.4569C19.6374 21.4468 19.5923 21.4354 19.5474 21.4229C19.5032 21.408 19.4593 21.3919 19.4159 21.3747C19.3733 21.3552 19.3313 21.3346 19.2897 21.3128C19.2493 21.2889 19.2095 21.2639 19.1703 21.2379C19.1324 21.2098 19.0953 21.1807 19.0589 21.1507C19.024 21.1187 18.99 21.0858 18.9568 21.052C18.9253 21.0164 18.8947 20.9801 18.8651 20.9429C18.8373 20.9041 18.8106 20.8647 18.7848 20.8245C18.7612 20.7829 18.7385 20.7408 18.717 20.698C18.6976 20.6541 18.6794 20.6097 18.6622 20.5648C18.6474 20.519 18.6338 20.4728 18.6213 20.4263C18.6113 20.3791 18.6024 20.3316 18.5947 20.2839C18.5895 20.2358 18.5855 20.1875 18.5828 20.1391C18.5825 20.0906 18.5835 20.0421 18.5857 19.9936C18.5904 19.9452 18.5963 19.897 18.6035 19.8488C18.6131 19.8011 18.624 19.7536 18.636 19.7064C18.6505 19.6598 18.6662 19.6136 18.683 19.5678C18.7022 19.5229 18.7226 19.4785 18.7441 19.4346C18.7678 19.3919 18.7927 19.3498 18.8186 19.3083C18.8466 19.2682 18.8757 19.2288 18.9057 19.1902C18.9378 19.1532 18.9708 19.117 19.0047 19.0816C19.0405 19.0481 19.0771 19.0155 19.1145 18.9838C19.1536 18.9541 19.1934 18.9255 19.2339 18.8979C19.2759 18.8724 19.3185 18.848 19.3618 18.8247C19.4062 18.8037 19.4512 18.7839 19.4967 18.7653C19.5432 18.749 19.59 18.734 19.6373 18.7202C19.6852 18.7089 19.7335 18.6988 19.782 18.69C19.831 18.6838 19.8801 18.6788 19.9293 18.6752C19.9788 18.6741 20.0283 18.6743 20.0777 18.6758C20.1271 18.68 20.1764 18.6854 20.2256 18.6921C20.2744 18.7014 20.3229 18.712 20.3713 18.7238C20.419 18.7383 20.4663 18.7539 20.5132 18.7708C20.5593 18.7902 20.6049 18.8108 20.6499 18.8325C20.6939 18.8567 20.7372 18.882 20.7799 18.9084C20.8212 18.9371 20.8618 18.9669 20.9016 18.9977C20.9399 19.0307 20.9773 19.0646 21.0138 19.0996C21.0486 19.1364 21.0824 19.1742 21.1153 19.2128C21.1461 19.2532 21.176 19.2944 21.2048 19.3364C21.2314 19.3799 21.2569 19.4241 21.2814 19.4689C21.3034 19.5151 21.3244 19.5618 21.3441 19.6091C21.3614 19.6574 21.3775 19.7062 21.3923 19.7554C21.4046 19.8054 21.4156 19.8557 21.4254 19.9063C21.4325 19.9574 21.4384 20.0087 21.4429 20.0601C21.4448 20.1118 21.4454 20.1636 21.4446 20.2153C21.4412 20.2671 21.4365 20.3187 21.4305 20.3702C21.4218 20.4214 21.4118 20.4723 21.4005 20.5231C21.3866 20.5732 21.3714 20.6229 21.355 20.6723C21.336 20.7207 21.3158 20.7687 21.2944 20.8162C21.2705 20.8625 21.2455 20.9082 21.2193 20.9533C21.1907 20.9969 21.1611 21.0398 21.1303 21.082C21.0974 21.1225 21.0635 21.1622 21.0285 21.201C20.9916 21.2379 20.9537 21.2738 20.9149 21.3088C20.8743 21.3417 20.8329 21.3736 20.7907 21.4044C20.7468 21.4329 20.7023 21.4603 20.657 21.4865C20.6104 21.5104 20.5632 21.533 20.5154 21.5544C20.4665 21.5733 20.4172 21.5908 20.3674 21.6072C20.3167 21.6208 20.2657 21.6332 20.2144 21.6442C20.1625 21.6525 20.1104 21.6594 20.0581 21.665C20.0056 21.6678 19.953 21.6692 19.9003 21.6693C19.8476 21.6666 19.7951 21.6625 19.7425 21.6571C19.6903 21.6488 19.6384 21.6392 19.5866 21.6282C19.5354 21.6145 19.4846 21.5995 19.4341 21.5831C19.3845 21.5641 19.3354 21.5438 19.2867 21.5222C19.2392 21.498 19.1924 21.4726 19.1461 21.4459C19.1013 21.4168 19.0571 21.3866 19.0138 21.3552C18.972 21.3214 18.9312 21.2867 18.8912 21.2508C18.853 21.2128 18.8158 21.1738 18.7796 21.1339C18.7455 21.092 18.7125 21.0493 18.6805 21.0057C18.6507 20.9604 18.6222 20.9143 18.5947 20.8675C18.5698 20.8192 18.546 20.7703 18.5234 20.7208C18.5035 20.67 18.4848 20.6188 18.4674 20.567C18.4527 20.5144 18.4393 20.4614 18.4273 20.408C18.418 20.3539 18.4101 20.2997 18.4036 20.2452C18.3999 20.1904 18.3976 20.1355 18.3966 20.0805C18.3985 20.0255 18.4018 19.9705 18.4065 19.9156C18.4141 19.861 18.423 19.8066 18.4333 19.7524C18.4463 19.6988 18.4608 19.6455 18.4766 19.5925C18.4951 19.5404 18.515 19.4888 18.5361 19.4377C18.5599 19.3878 18.585 19.3385 18.6113 19.2898C18.6401 19.2425 18.6702 19.1959 18.7014 19.1502C18.7349 19.1061 18.7696 19.0629 18.8054 19.0205C18.8434 18.9801 18.8823 18.9407 18.9223 18.9023C18.9643 18.866 19.0072 18.8308 19.0509 18.7967C19.0965 18.765 19.1428 18.7344 19.1899 18.705C19.2385 18.6782 19.2878 18.6526 19.3378 18.6283C19.389 18.6066 19.4407 18.5863 19.493 18.5673C19.5462 18.5511 19.5999 18.5363 19.6539 18.5229C19.7086 18.5123 19.7636 18.5032 19.8188 18.4955C19.8744 18.4907 19.9301 18.4874 19.9859 18.4855C20.0418 18.4866 20.0977 18.4892 20.1535 18.4932C20.2091 18.5001 20.2645 18.5085 20.3197 18.5184C20.3743 18.5312 20.4287 18.5454 20.4827 18.561C20.5359 18.5795 20.5886 18.5993 20.6408 18.6205C20.6919 18.6445 20.7424 18.6699 20.7923 18.6965C20.8407 18.7258 20.8885 18.7563 20.9354 18.7881C20.9807 18.8224 21.0252 18.8578 21.0687 18.8945C21.1103 18.9334 21.151 18.9734 21.1906 19.0144C21.2282 19.0576 21.2646 19.1017 21.2999 19.1468C21.3328 19.1937 21.3646 19.2415 21.3952 19.2901C21.4232 19.3404 21.45 19.3913 21.4755 19.443C21.4983 19.496 21.5198 19.5496 21.5399 19.6038C21.5572 19.659 21.5731 19.7147 21.5876 19.7707C21.5992 19.8276 21.6094 19.8847 21.6181 19.9421C21.6238 20 21.6281 20.058 21.6309 20.1161C21.6307 20.1744 21.6291 20.2326 21.6259 20.2909C21.6198 20.3489 21.6122 20.4068 21.6031 20.4645C21.591 20.5216 21.5775 20.5785 21.5625 20.635C21.5447 20.6907 21.5254 20.746 21.5047 20.8007C21.4812 20.8543 21.4563 20.9074 21.4301 20.9597C21.4012 21.0107 21.371 21.0609 21.3395 21.1104C21.3055 21.1581 21.2703 21.205 21.2338 21.251C21.1951 21.295 21.1552 21.338 21.1142 21.3799C21.071 21.4197 21.0269 21.4584 20.9817 21.4959C20.9347 21.531 20.8867 21.5649 20.8379 21.5975C20.7874 21.6275 20.7362 21.6563 20.6842 21.6837C20.6308 21.7083 20.5768 21.7315 20.5222 21.7533C20.4665 21.7723 20.4103 21.7898 20.3537 21.8058C20.2962 21.8188 20.2385 21.8303 20.1804 21.8403C20.1218 21.8472 20.0631 21.8526 20.0042 21.8565C19.9451 21.8573 19.8861 21.8565 19.827 21.8542C19.7681 21.8487 19.7093 21.8417 19.6507 21.8332C19.5925 21.8216 19.5346 21.8084 19.4771 21.7938C19.4203 21.7761 19.364 21.7569 19.3082 21.7363C19.2534 21.7127 19.1993 21.6877 19.1458 21.6612C19.0936 21.632 19.0422 21.6013 18.9916 21.5694C18.9426 21.5347 18.8946 21.4988 18.8474 21.4617C18.8022 21.422 18.7579 21.3812 18.7147 21.3392C18.6737 21.295 18.6338 21.2496 18.5951 21.2033C18.5587 21.1549 18.5236 21.1055 18.4897 21.0552C18.4585 21.0032 18.4285 20.9503 18.3999 20.8967C18.3741 20.8415 18.3497 20.7857 18.3267 20.7292C18.3066 20.6716 18.2879 20.6134 18.2708 20.5547C18.2567 20.4952 18.244 20.4352 18.2329 20.375C18.225 20.3141 18.2185 20.2531 18.2136 20.1919C18.2119 20.1305 18.2118 20.069 18.2131 20.0075C18.2177 19.9461 18.2238 19.8848 18.2315 19.8237C18.2423 19.7629 18.2547 19.7025 18.2686 19.6424C18.2856 19.5831 18.3041 19.5242 18.3241 19.4658C18.3471 19.4084 18.3715 19.3517 18.3974 19.2956C18.4262 19.2409 18.4564 19.1869 18.4879 19.1337C18.5222 19.0822 18.5578 19.0316 18.5946 18.9819C18.6341 18.9342 18.6747 18.8876 18.7165 18.8419C18.7606 18.7985 18.8059 18.7563 18.8522 18.7152C18.9006 18.6766 18.95 18.6393 19.0004 18.6033C19.0526 18.5699 19.1056 18.5379 19.1595 18.5073C19.2149 18.4795 19.271 18.4532 19.3278 18.4283C19.3859 18.4065 19.4445 18.3862 19.5036 18.3674C19.5637 18.3517 19.6241 18.3376 19.685 18.3251C19.7464 18.3158 19.8081 18.3081 19.87 18.302C19.9322 18.2992 19.9944 18.298 20.0567 18.2985C20.119 18.3022 20.1811 18.3076 20.2431 18.3146C20.3047 18.3248 20.3661 18.3367 20.4272 18.3502C20.4875 18.3669 20.5474 18.3851 20.6069 18.4049C20.6653 18.4279 20.7232 18.4524 20.7804 18.4784C20.8362 18.5075 20.8913 18.5379 20.9457 18.5698C20.9984 18.6046 21.0502 18.6408 21.1011 18.6783C21.15 18.7185 21.1979 18.7599 21.2447 18.8027C21.2894 18.8479 21.3329 18.8942 21.3752 18.9417C21.415 18.9914 21.4536 19.0421 21.4909 19.0939C21.5255 19.1476 21.5588 19.2022 21.5907 19.2576C21.6197 19.3148 21.6472 19.3727 21.6733 19.4313C21.6964 19.4913 21.7179 19.5518 21.7379 19.613C21.7547 19.6751 21.7699 19.7377 21.7836 19.8008C21.794 19.8645 21.8028 19.9284 21.81 19.9927C21.8138 20.0572 21.8161 20.1219 21.8166 20.1866C21.8139 20.2513 21.8095 20.316 21.8034 20.3805C21.794 20.4447 21.783 20.5087 21.7704 20.5724C21.7545 20.6353 21.737 20.6979 21.7179 20.76C21.6957 20.8211 21.6718 20.8816 21.6465 20.9414C21.618 20.9999 21.5881 21.0577 21.5567 21.1147C21.5224 21.17 21.4866 21.2244 21.4495 21.2779C21.4097 21.3293 21.3685 21.3798 21.3261 21.4292C21.2811 21.4763 21.235 21.5222 21.1877 21.5669C21.138 21.6091 21.0874 21.65 21.0356 21.6897C20.9819 21.7265 20.9272 21.7619 20.8716 21.7959C20.8143 21.827 20.7562 21.8566 20.6974 21.8846C20.6371 21.9095 20.5762 21.9329 20.5147 21.9546C20.4521 21.9731 20.3891 21.99 20.3256 22.0052C20.2613 22.0171 20.1968 22.0273 20.132 22.0358C20.0667 22.0408 20.0014 22.0442 19.936 22.0458C19.8705 22.044 19.805 22.0405 19.7397 22.0353C19.6746 22.0266 19.6098 22.0162 19.5452 22.0042C19.4813 21.9887 19.4177 21.9716 19.3546 21.9528C19.2925 21.9306 19.231 21.9069 19.17 21.8815C19.1104 21.8529 19.0516 21.8228 18.9934 21.7911C18.937 21.7564 18.8814 21.7202 18.8267 21.6826C18.7741 21.642 18.7224 21.6002 18.6718 21.5569C18.6234 21.511 18.5763 21.4638 18.5303 21.4154C18.4868 21.3646 18.4446 21.3127 18.4037 21.2596C18.3656 21.2044 18.3289 21.1483 18.2936 21.0911C18.2613 21.0322 18.2305 20.9723 18.2011 20.9117C18.175 20.8496 18.1504 20.7867 18.1274 20.7233C18.1076 20.6586 18.0896 20.5934 18.0731 20.5278C18.0601 20.4613 18.0488 20.3945 18.0391 20.3273C18.0329 20.2597 18.0285 20.192 18.0257 20.1241C18.0265 20.0561 18.0289 19.9881 18.0331 19.9202C18.0408 19.8525 18.0503 19.7851 18.0614 19.7178C18.076 19.6512 18.0923 19.585 18.1102 19.5192C18.1316 19.4544 18.1546 19.3902 18.1792 19.3265C18.2071 19.2642 18.2366 19.2026 18.2676 19.1418C18.3018 19.0826 18.3374 19.0244 18.3745 18.967C18.4146 18.9117 18.4561 18.8574 18.499 18.8042C18.5445 18.7533 18.5914 18.7035 18.6396 18.655C18.6902 18.6091 18.7419 18.5645 18.7949 18.5212C18.85 18.4807 18.9061 18.4417 18.9633 18.4042C19.0223 18.3697 19.0822 18.3367 19.143 18.3053C19.2053 18.2771 19.2684 18.2506 19.3321 18.2257C19.3971 18.2042 19.4626 18.1844 19.5287 18.1662C19.5956 18.1516 19.6629 18.1388 19.7306 18.1276C19.7987 18.1201 19.8671 18.1144 19.9356 18.1104C20.0043 18.1101 20.073 18.1115 20.1417 18.1148C20.2101 18.1217 20.2784 18.1303 20.3465 18.1408C20.4139 18.1548 20.4811 18.1706 20.5478 18.1882C20.6136 18.2092 20.6789 18.232 20.7435 18.2565C20.8069 18.2844 20.8696 18.314 20.9315 18.3452C20.9918 18.3796 21.0512 18.4156 21.1097 18.4532C21.1663 18.4939 21.2218 18.536 21.2762 18.5796C21.3284 18.626 21.3793 18.6738 21.4291 18.7229C21.4763 18.7746 21.5222 18.8276 21.5668 18.8818C21.6085 18.9383 21.6488 18.9958 21.6877 19.0545C21.7235 19.1151 21.7577 19.1767 21.7904 19.2392C21.8199 19.3034 21.8477 19.3683 21.8739 19.434C21.8967 19.501 21.9178 19.5686 21.9372 19.6368C21.953 19.706 21.9671 19.7755 21.9794 19.8455C21.9881 19.916 21.9951 19.9868 22.0002 20.0578C22.0017 20.129 22.0013 20.2002 21.9992 20.2714C21.9934 20.3425 21.9857 20.4134 21.9763 20.4842C21.9632 20.5544 21.9484 20.6242 21.9318 20.6937C21.9116 20.7622 21.8897 20.8302 21.866 20.8977C21.8389 20.9639 21.8101 21.0293 21.7796 21.094C21.7458 21.1571 21.7105 21.2192 21.6735 21.2805C21.6334 21.3398 21.5918 21.398 21.5487 21.4551C21.5027 21.5099 21.4553 21.5636 21.4066 21.616C21.3551 21.6657 21.3025 21.7142 21.2485 21.7612C21.1922 21.8054 21.1348 21.8481 21.0763 21.8894C21.0156 21.9275 20.9541 21.964 20.8916 21.9989C20.8273 22.0305 20.7622 22.0604 20.6964 22.0886C20.6291 22.1133 20.5613 22.1363 20.4928 22.1575C20.4233 22.175 20.3533 22.1908 20.2829 22.2047C20.2119 22.2149 20.1406 22.2232 20.0691 22.2297C19.9973 22.2324 19.9254 22.2332 19.8535 22.2321C19.7817 22.2273 19.71 22.2205 19.6385 22.2119C19.5675 22.1995 19.4968 22.1853 19.4264 22.1692C19.357 22.1494 19.288 22.1278 19.2196 22.1044C19.1524 22.0774 19.0859 22.0487 19.0201 22.0182C18.956 21.9842 18.8927 21.9486 18.8303 21.9113C18.7698 21.8707 18.7104 21.8286 18.6521 21.7849C18.596 21.7381 18.5412 21.6899 18.4875 21.6403C18.4365 21.5878 18.3868 21.534 18.3384 21.479C18.2929 21.4213 18.2489 21.3626 18.2064 21.3026C18.1669 21.2404 18.1291 21.1773 18.0929 21.1131C18.0599 21.047 18.0287 20.9801 17.9992 20.9124C17.9731 20.8431 17.9489 20.7732 17.9264 20.7026C17.9075 20.6309 17.8905 20.5587 17.8753 20.4861C17.8639 20.4127 17.8543 20.339 17.8466 20.265C17.8427 20.1907 17.8407 20.1163 17.8406 20.0418C17.8443 19.9673 17.8499 19.893 17.8574 19.8188C17.8688 19.745 17.8819 19.6716 17.897 19.5985C17.9158 19.5262 17.9365 19.4544 17.9589 19.3832C17.9851 19.3132 18.013 19.2438 18.0427 19.1752C18.0758 19.1082 18.1107 19.0421 18.1473 18.9769C18.1872 18.9136 18.2287 18.8514 18.2718 18.7903C18.318 18.7315 18.3657 18.6739 18.4149 18.6175C18.4669 18.5638 18.5203 18.5115 18.5751 18.4605C18.6324 18.4124 18.6909 18.3659 18.7507 18.3209C18.8127 18.279 18.8757 18.2388 18.9398 18.2002C19.0059 18.1651 19.0728 18.1317 19.1406 18.1C19.21 18.0719 19.2801 18.0456 19.3508 18.0212C19.4228 18.0005 19.4953 17.9817 19.5683 17.9647C19.6421 17.9517 19.7162 17.9406 19.7907 17.9314C19.8655 17.9261 19.9405 17.9228 20.0155 17.9215C20.0906 17.9241 20.1656 17.9287 20.2405 17.9353C20.3151 17.9458 20.3893 17.9582 20.4632 17.9726C20.5364 17.9909 20.6091 18.0111 20.6812 18.0332C20.7522 18.0591 20.8226 18.0868 20.8922 18.1164C20.9603 18.1497 21.0275 18.1847 21.0938 18.2214C21.1582 18.2617 21.2215 18.3036 21.2838 18.3472C21.3439 18.3941 21.4027 18.4425 21.4603 18.4925C21.5153 18.5455 21.5689 18.5999 21.6212 18.6557C21.6705 18.7142 21.7184 18.774 21.7647 18.8351C21.8079 18.8986 21.8495 18.9632 21.8894 19.0289C21.9259 19.0967 21.9607 19.1654 21.9937 19.235C22.0232 19.3064 22.0508 19.3785 22.0766 19.4513C22.0986 19.5254 22.1187 19.6001 22.137 19.6754C22.1514 19.7515 22.1638 19.8281 22.1743 19.9049C22.1808 19.9823 22.1853 20.0598 22.1879 20.1374C22.1865 20.2152 22.1831 20.2929 22.1777 20.3705C22.1684 20.4478 22.1571 20.5248 22.1438 20.6015C22.1266 20.6775 22.1074 20.753 22.0863 20.8281C22.0614 20.9019 22.0346 20.9751 22.006 21.0477C21.9736 21.1186 21.9394 21.1887 21.9035 21.258C21.864 21.3252 21.8228 21.3915 21.7799 21.4567C21.7337 21.5195 21.6859 21.5812 21.6365 21.6416C21.584 21.6993 21.5301 21.7557 21.4748 21.8107C21.4166 21.8627 21.3572 21.9132 21.2964 21.9621C21.2332 22.0078 21.1688 22.0519 21.1033 22.0943C21.0356 22.1331 20.967 22.1703 20.8974 22.2056C20.826 22.2372 20.7539 22.267 20.681 22.2948C20.6067 22.3188 20.5318 22.3409 20.4563 22.361C20.3798 22.3771 20.303 22.3912 20.2257 22.4033C20.1479 22.4113 20.07 22.4173 19.9918 22.4213C19.9135 22.4211 19.8352 22.4188 19.757 22.4146C19.679 22.4062 19.6013 22.3957 19.5238 22.3833C19.447 22.3667 19.3706 22.3481 19.2947 22.3276C19.2199 22.303 19.1458 22.2765 19.0723 22.2481C19.0003 22.2158 18.9291 22.1816 18.8588 22.1455C18.7904 22.1058 18.7231 22.0643 18.6568 22.021C18.5927 21.9742 18.5299 21.9258 18.4682 21.8757C18.4092 21.8224 18.3516 21.7676 18.2953 21.7113C18.242 21.652 18.1902 21.5914 18.1399 21.5293C18.0928 21.4647 18.0474 21.3989 18.0037 21.3318C17.9634 21.2625 17.925 21.1921 17.8882 21.1208C17.8552 21.0475 17.8241 20.9734 17.7948 20.8985C17.7695 20.822 17.746 20.745 17.7245 20.6673C17.7071 20.5885 17.6916 20.5093 17.6782 20.4296C17.6688 20.3493 17.6615 20.2688 17.6562 20.1881C17.6552 20.1071 17.6561 20.0261 17.6591 19.9452C17.6663 19.8644 17.6755 19.7839 17.6868 19.7036C17.7022 19.6239 17.7197 19.5447 17.7391 19.4659C17.7626 19.3881 17.788 19.3111 17.8155 19.2346C17.8468 19.1597 17.88 19.0856 17.9152 19.0123C17.954 18.941 17.9947 18.8706 18.0372 18.8014C18.0832 18.7344 18.1309 18.6686 18.1802 18.6041C18.2329 18.5422 18.2871 18.4817 18.3429 18.4227C18.4017 18.3666 18.4619 18.312 18.5235 18.259C18.5877 18.2093 18.6533 18.1613 18.72 18.115C18.7891 18.0723 18.8593 18.0313 18.9305 17.9922C19.0037 17.9569 19.0777 17.9235 19.1526 17.892C19.2291 17.8645 19.3063 17.8391 19.3841 17.8156C19.4631 17.7962 19.5426 17.7789 19.6225 17.7637Z" fill="#18B451"/>
</g>
<defs>
<clipPath id="clip0_154_62">
<rect width="40" height="40" fill="white"/>
</clipPath>
</defs>
</svg>
