<svg xmlns="http://www.w3.org/2000/svg" width="64" height="66" fill="none"><path fill="#1FB229" fill-rule="evenodd" d="M33.806.885h-.065c-1.03.034-2.058.09-3.083.17l-.033.003-.032.004a66.95 66.95 0 0 0-3.047.451l-.032.006-.031.007c-1.001.22-1.997.462-2.985.728l-.032.008-.03.01c-.974.31-1.94.642-2.898.996l-.03.012-.03.012c-.94.398-1.868.816-2.786 1.256l-.03.014-.028.015c-.896.48-1.78.982-2.65 1.503l-.028.016-.027.018a65.589 65.589 0 0 0-2.494 1.736l-.026.02-.025.02a65.395 65.395 0 0 0-2.315 1.953l-.024.021-.023.022c-.724.702-1.43 1.42-2.119 2.153l-.022.023-.02.025a64.778 64.778 0 0 0-1.905 2.332l-.02.026-.018.026a64.517 64.517 0 0 0-1.674 2.492l-.017.027-.016.028a64.333 64.333 0 0 0-1.431 2.628l-.015.029-.013.03c-.414.905-.807 1.82-1.177 2.742l-.012.03-.01.03a63.8 63.8 0 0 0-.915 2.832l-.009.031-.007.031A63.603 63.603 0 0 0 .978 28.3l-.006.031-.005.032c-.146.977-.27 1.956-.37 2.937l-.003.032-.002.032a63.184 63.184 0 0 0-.094 2.952v.032l.001.032c.038.982.098 1.962.182 2.94l.002.032.005.032c.128.972.28 1.94.454 2.905l.006.031.007.032c.218.954.459 1.901.721 2.843l.009.031.01.03c.306.928.633 1.848.982 2.76l.011.03.013.029c.39.893.801 1.776 1.232 2.65l.014.029.016.028c.47.852.961 1.691 1.47 2.52l.017.027.019.026a62.569 62.569 0 0 0 1.695 2.369l.02.025.02.025c.618.747 1.253 1.48 1.905 2.197l.021.024.023.023a62.69 62.69 0 0 0 2.097 2.008l.023.021.025.02c.743.62 1.5 1.22 2.27 1.803l.025.02.027.018a62.475 62.475 0 0 0 2.422 1.582l.027.017.029.015a62.5 62.5 0 0 0 2.553 1.35l.029.014.03.013c.878.39 1.766.758 2.661 1.107l.03.011.03.01c.91.307 1.826.592 2.748.856l.031.008.031.008c.932.22 1.869.42 2.809.597l.031.006.032.005c.947.134 1.895.246 2.846.336l.032.003.032.002c.952.046 1.905.07 2.857.073h.032l.033-.002c.95-.041 1.898-.104 2.844-.19l.033-.002.032-.004c.94-.129 1.876-.278 2.808-.45l.032-.005.03-.007a61.681 61.681 0 0 0 2.748-.704l.031-.008.031-.01a61.35 61.35 0 0 0 2.663-.951l.03-.012.03-.013a60.996 60.996 0 0 0 2.557-1.188l.029-.014.028-.015A60.84 60.84 0 0 0 49.5 60.93l.028-.017.026-.018a60.704 60.704 0 0 0 2.281-1.627l.026-.02.025-.02a60.282 60.282 0 0 0 2.113-1.825l.024-.022.023-.023a60.054 60.054 0 0 0 1.93-2.007l.022-.023.02-.025c.594-.71 1.17-1.434 1.73-2.17l.02-.026.017-.026a59.44 59.44 0 0 0 1.516-2.314l.017-.028.016-.028c.45-.803.88-1.615 1.29-2.437l.014-.029.013-.029c.372-.839.723-1.685 1.055-2.539l.011-.03.01-.03c.291-.867.562-1.74.811-2.618l.01-.031.006-.031c.209-.888.396-1.78.562-2.675l.006-.032.004-.031c.124-.901.227-1.804.309-2.708l.003-.032.001-.032c.04-.906.057-1.812.054-2.718v-.032l-.001-.032a57.967 57.967 0 0 0-.2-2.705l-.003-.031-.004-.032a57.895 57.895 0 0 0-.45-2.668l-.006-.031-.007-.031a57.89 57.89 0 0 0-.695-2.608l-.01-.031-.01-.03a57.734 57.734 0 0 0-.932-2.527l-.012-.03-.013-.029a57.667 57.667 0 0 0-1.162-2.424l-.015-.028-.016-.028a57.608 57.608 0 0 0-1.38-2.3l-.016-.028-.019-.026a57.454 57.454 0 0 0-1.584-2.159l-.02-.025-.02-.024a57.426 57.426 0 0 0-1.774-1.999l-.022-.023-.023-.023a57.569 57.569 0 0 0-1.949-1.822l-.024-.021-.025-.02a57.53 57.53 0 0 0-2.104-1.631l-.026-.02-.027-.017a57.487 57.487 0 0 0-2.241-1.427l-.028-.017-.028-.015a57.444 57.444 0 0 0-2.36-1.212l-.028-.014-.03-.012a57.417 57.417 0 0 0-2.456-.987l-.03-.011-.03-.01a57.268 57.268 0 0 0-2.53-.755l-.032-.009-.032-.007a57.208 57.208 0 0 0-2.583-.518l-.032-.005-.032-.004c-.87-.113-1.74-.205-2.613-.278l-.032-.003h-.032a56.98 56.98 0 0 0-2.622-.037h-.032l-.032.002c-.871.049-1.74.117-2.607.205l-.032.003-.032.005a56.63 56.63 0 0 0-2.569.442l-.032.006-.031.008c-.843.206-1.68.43-2.51.674l-.031.01-.03.01c-.818.281-1.628.581-2.43.9l-.03.012-.03.013c-.786.354-1.562.726-2.33 1.116l-.028.015-.028.016a55.75 55.75 0 0 0-2.21 1.321l-.026.018-.027.018c-.702.49-1.392.995-2.07 1.515l-.026.02-.024.02c-.652.551-1.29 1.116-1.915 1.695l-.024.022-.023.023a54.967 54.967 0 0 0-1.743 1.858l-.022.024-.02.024a54.7 54.7 0 0 0-1.559 2.005l-.019.026-.018.027c-.47.701-.924 1.412-1.36 2.133l-.017.028-.016.028a54.15 54.15 0 0 0-1.152 2.243l-.014.03-.013.029c-.33.77-.642 1.549-.936 2.333l-.011.03-.01.03a53.703 53.703 0 0 0-.712 2.403l-.008.03-.007.032c-.18.814-.342 1.63-.484 2.451l-.005.032-.004.031a53.28 53.28 0 0 0-.252 2.478l-.002.032-.001.032a53.127 53.127 0 0 0-.02 2.484l.001.032.002.032a53 53 0 0 0 .212 2.467l.004.032.005.032c.128.814.274 1.624.44 2.43l.006.032.008.031c.203.797.424 1.588.664 2.373l.01.03.01.031c.276.773.569 1.538.88 2.296l.012.03.014.028c.345.742.708 1.475 1.087 2.199l.015.028.016.028c.412.705.84 1.4 1.284 2.083l.018.027.018.026c.475.663.965 1.313 1.47 1.951l.02.026.02.024c.534.614 1.08 1.214 1.64 1.802l.023.023.023.023c.587.56 1.185 1.106 1.797 1.639l.024.02.025.02c.635.504 1.28.991 1.936 1.464l.026.018.027.018a52.48 52.48 0 0 0 2.059 1.275l.028.016.028.015c.713.376 1.434.735 2.163 1.077l.029.014.03.012c.742.308 1.491.598 2.247.871l.03.011.03.01c.767.237 1.538.457 2.313.659l.031.008.032.007c.783.165 1.568.313 2.357.442l.032.005.032.004c.792.093 1.586.167 2.381.223l.032.002.033.001c.795.02 1.59.02 2.384.004l.033-.001.032-.002c.791-.054 1.58-.126 2.368-.216l.032-.003.032-.006a51.56 51.56 0 0 0 2.33-.43l.032-.007.031-.008c.764-.196 1.522-.41 2.274-.641l.031-.01.03-.01c.74-.265 1.473-.547 2.198-.845l.03-.013.03-.013c.709-.331 1.41-.678 2.102-1.04l.029-.016.028-.016a50.573 50.573 0 0 0 1.99-1.225l.028-.018.026-.019a50.33 50.33 0 0 0 1.863-1.399l.025-.02.024-.02a50.217 50.217 0 0 0 1.719-1.56l.023-.022.022-.024a49.773 49.773 0 0 0 1.561-1.705l.022-.025.02-.025c.478-.602.941-1.214 1.39-1.836l.02-.026.017-.027c.419-.641.822-1.291 1.21-1.95l.016-.028.015-.029c.356-.674.696-1.357 1.02-2.047l.013-.029.012-.03c.29-.702.564-1.41.821-2.125l.011-.03.01-.03c.222-.725.428-1.453.617-2.186l.008-.03.006-.032c.154-.74.29-1.481.41-2.226l.005-.032.003-.031c.084-.748.15-1.497.2-2.247l.002-.032v-.032c.014-.75.01-1.5-.011-2.25l-.001-.031-.002-.032c-.057-.746-.13-1.49-.221-2.231l-.004-.032-.005-.032a47.68 47.68 0 0 0-.427-2.194l-.007-.031-.008-.031a47.78 47.78 0 0 0-.628-2.14l-.01-.03-.011-.03a47.671 47.671 0 0 0-.823-2.066l-.012-.03-.014-.028a47.543 47.543 0 0 0-1.009-1.975l-.015-.029-.017-.027a47.45 47.45 0 0 0-1.185-1.868l-.018-.027-.019-.026a47.591 47.591 0 0 0-1.35-1.745l-.02-.025-.022-.024a47.415 47.415 0 0 0-1.502-1.609l-.023-.023-.023-.022a47.41 47.41 0 0 0-1.642-1.46l-.024-.02-.026-.02a47.328 47.328 0 0 0-1.765-1.298l-.026-.018-.027-.017c-.616-.39-1.24-.766-1.873-1.127l-.028-.016-.029-.014a47.202 47.202 0 0 0-1.963-.947l-.03-.013-.03-.012a47.063 47.063 0 0 0-2.036-.76l-.03-.01-.032-.01a47.03 47.03 0 0 0-2.092-.567l-.031-.007-.032-.007a47.004 47.004 0 0 0-2.13-.37l-.032-.006-.032-.003a46.742 46.742 0 0 0-2.148-.173l-.032-.002h-.032a46.74 46.74 0 0 0-2.148.025h-.032l-.033.003c-.712.058-1.422.132-2.13.222l-.031.004-.032.006c-.701.122-1.399.26-2.093.415l-.031.007-.032.008c-.684.186-1.364.387-2.038.604l-.03.01-.03.011a45.99 45.99 0 0 0-1.968.786l-.03.013-.028.014a45.63 45.63 0 0 0-1.88.96l-.027.015-.028.017c-.601.362-1.193.737-1.775 1.125l-.027.018-.026.019a45.28 45.28 0 0 0-1.657 1.28l-.025.02-.024.021c-.52.462-1.028.936-1.525 1.421l-.023.023-.022.023a44.791 44.791 0 0 0-1.381 1.55l-.021.025-.02.025c-.422.547-.83 1.102-1.226 1.666l-.018.026-.018.027c-.368.58-.722 1.169-1.062 1.765l-.016.028-.014.028c-.311.61-.608 1.226-.89 1.849l-.013.029-.012.03a43.835 43.835 0 0 0-.71 1.916l-.011.03-.01.03a43.606 43.606 0 0 0-.526 1.967l-.008.031-.006.032c-.129.664-.242 1.33-.34 2l-.004.031-.003.032a43.224 43.224 0 0 0-.151 2.015l-.002.032v.032c-.003.672.01 1.343.038 2.014l.001.032.003.032c.06.667.134 1.332.225 1.994l.004.032.006.032c.121.656.257 1.309.409 1.958l.007.031.009.031c.181.64.377 1.276.588 1.906l.01.03.011.03c.24.62.494 1.232.761 1.838l.013.03.015.028c.295.592.604 1.176.926 1.753l.015.028.017.027c.348.56.709 1.112 1.082 1.655l.018.027.02.025a42.38 42.38 0 0 0 1.228 1.543l.02.025.022.023a42.3 42.3 0 0 0 1.361 1.419l.023.022.024.022c.485.44.98.867 1.483 1.282l.025.02.026.02c.522.392 1.052.77 1.59 1.137l.027.018.028.017c.554.34 1.115.667 1.684.981l.028.016.029.014c.582.287 1.169.56 1.762.82l.03.013.03.011a41.99 41.99 0 0 0 1.825.652l.03.01.032.009c.62.174 1.244.334 1.87.48l.032.007.032.006c.631.116 1.265.217 1.9.304l.033.004.032.003a41.6 41.6 0 0 0 1.914.128l.032.001h.033a41.52 41.52 0 0 0 1.91-.049l.033-.002.032-.003c.633-.06 1.263-.134 1.891-.223l.032-.005.032-.006a41.25 41.25 0 0 0 1.855-.395l.032-.007.03-.01c.607-.173 1.208-.36 1.804-.561l.031-.01.03-.012a40.819 40.819 0 0 0 1.737-.723l.03-.013.029-.014c.559-.28 1.111-.572 1.656-.877l.028-.015.027-.017c.53-.329 1.05-.67 1.561-1.021l.027-.018.026-.02c.494-.374.978-.76 1.453-1.156l.025-.02.024-.022c.455-.417.9-.843 1.334-1.28l.023-.023.022-.023c.412-.455.814-.92 1.204-1.392l.02-.025.02-.026c.367-.489.722-.986 1.065-1.49l.018-.027.017-.028c.318-.518.624-1.044.918-1.576l.015-.028.014-.029c.268-.544.523-1.093.764-1.648l.013-.03.011-.03c.215-.563.417-1.131.605-1.704l.01-.03.008-.031c.16-.58.308-1.161.44-1.746l.008-.031.005-.032c.106-.59.197-1.18.275-1.772l.004-.032.003-.032c.05-.594.085-1.188.107-1.783l.001-.032v-.032a38.024 38.024 0 0 0-.06-1.778l-.002-.032-.003-.032a37.88 37.88 0 0 0-.225-1.758l-.004-.032-.007-.031a37.86 37.86 0 0 0-.386-1.724l-.008-.03-.01-.032c-.168-.562-.349-1.12-.543-1.673l-.01-.03-.013-.03c-.219-.543-.45-1.08-.695-1.61l-.013-.03-.015-.028a37.505 37.505 0 0 0-.839-1.533l-.016-.028-.018-.027c-.314-.49-.639-.97-.975-1.444l-.018-.026-.02-.025a37.248 37.248 0 0 0-1.101-1.343l-.021-.024-.022-.023c-.397-.42-.803-.83-1.218-1.23l-.023-.023-.024-.021a37.16 37.16 0 0 0-1.322-1.109l-.025-.02-.026-.019a37.06 37.06 0 0 0-1.414-.978l-.027-.018-.027-.016c-.492-.292-.99-.572-1.493-.84l-.029-.016-.03-.014a36.99 36.99 0 0 0-1.558-.697l-.03-.012-.03-.011a36.686 36.686 0 0 0-1.61-.548l-.032-.01-.031-.008a36.69 36.69 0 0 0-1.648-.396l-.032-.007-.032-.005a36.53 36.53 0 0 0-1.67-.241l-.033-.004-.032-.003c-.56-.041-1.12-.07-1.68-.086l-.032-.001h-.033c-.559.01-1.116.033-1.673.069l-.032.002-.033.004c-.553.06-1.104.134-1.653.22l-.031.006-.032.006c-.543.111-1.083.235-1.619.371l-.031.008-.03.01c-.529.16-1.052.331-1.571.515l-.03.011-.03.012c-.51.207-1.012.426-1.51.656l-.029.013-.028.015c-.485.252-.964.515-1.435.788l-.028.016-.027.018c-.458.294-.908.598-1.35.913l-.026.018-.026.02c-.425.334-.843.677-1.252 1.03l-.025.02-.023.022c-.392.37-.774.748-1.146 1.135l-.023.023-.021.024c-.354.403-.697.813-1.031 1.23l-.02.026-.019.026c-.313.431-.615.869-.907 1.314l-.018.026-.017.028c-.27.457-.529.918-.777 1.386l-.015.028-.014.03c-.225.476-.439.958-.641 1.444l-.013.03-.01.03c-.18.494-.347.991-.502 1.491l-.01.031-.008.031c-.131.506-.25 1.014-.358 1.524l-.007.032-.005.032a33.362 33.362 0 0 0-.213 1.543l-.004.032-.002.032a33.192 33.192 0 0 0-.068 1.55v.064c.014.516.04 1.03.078 1.543l.002.032.004.032c.061.51.135 1.017.22 1.522l.005.032.007.031c.109.5.229.996.36 1.489l.008.03.01.031c.154.485.319.966.495 1.443l.011.03.013.03c.198.466.406.927.625 1.384l.014.029.015.028c.24.444.49.883.749 1.315l.016.027.018.027c.279.419.567.83.864 1.234l.02.026.02.026c.315.389.639.77.971 1.144l.022.024.022.023c.349.357.705.705 1.07 1.045l.023.022.025.02c.378.323.764.635 1.157.939l.025.02.027.018c.405.284.816.559 1.234.823l.027.018.028.016c.428.244.862.478 1.3.702l.029.015.029.014c.447.203.898.395 1.354.577l.03.012.03.01c.462.16.927.31 1.395.449l.031.009.031.008c.473.116.948.222 1.425.316l.031.006.032.005c.48.072.96.133 1.44.183l.033.003.032.002c.482.028.964.044 1.445.05h.032l.033-.001c.48-.017.958-.045 1.436-.084l.032-.003.032-.004c.474-.06.946-.132 1.415-.214l.032-.006.032-.007c.464-.103.924-.217 1.382-.342l.031-.008.03-.01c.45-.146.897-.3 1.339-.466l.03-.011.03-.013c.432-.185.86-.38 1.282-.584l.029-.014.028-.016c.411-.223.816-.455 1.216-.696l.027-.017.027-.018c.387-.258.767-.525 1.14-.8l.026-.02.025-.02c.36-.292.71-.591 1.055-.898l.024-.022.023-.023c.328-.321.649-.65.96-.986l.023-.023.02-.025c.296-.35.583-.704.861-1.066l.02-.025.018-.026c.26-.373.511-.751.753-1.135l.017-.027.016-.028c.223-.393.437-.79.64-1.193l.015-.028.013-.03c.185-.41.36-.823.524-1.24l.011-.03.01-.03c.145-.423.28-.848.404-1.276l.009-.031.007-.032c.104-.432.197-.866.28-1.3l.007-.032.004-.032a28.2 28.2 0 0 0 .157-1.315l.003-.032.001-.032c.021-.44.032-.878.033-1.316v-.033l-.002-.032c-.02-.437-.05-.872-.09-1.307l-.003-.032-.005-.031c-.06-.431-.13-.86-.21-1.287l-.007-.031-.007-.031c-.1-.421-.21-.84-.329-1.255l-.009-.03-.01-.031a27.56 27.56 0 0 0-.443-1.212l-.011-.03-.014-.03a27.46 27.46 0 0 0-.55-1.16l-.015-.028-.016-.028a27.33 27.33 0 0 0-.654-1.099l-.017-.027-.018-.026a27.315 27.315 0 0 0-.75-1.028l-.02-.026-.02-.024c-.273-.323-.552-.64-.839-.949l-.022-.024-.023-.022c-.3-.295-.606-.583-.918-.863l-.024-.022-.025-.02a26.987 26.987 0 0 0-.99-.77l-.026-.02-.027-.017a26.983 26.983 0 0 0-1.051-.672l-.028-.017-.029-.015a26.562 26.562 0 0 0-1.103-.57l-.03-.013-.03-.013c-.378-.163-.76-.317-1.145-.462l-.03-.011-.031-.01a26.63 26.63 0 0 0-1.178-.353l-.031-.008-.032-.008c-.398-.09-.797-.17-1.198-.24l-.032-.006-.032-.004a26.375 26.375 0 0 0-1.21-.129l-.032-.002-.032-.002c-.404-.014-.807-.02-1.21-.016h-.032l-.032.002c-.4.023-.8.054-1.199.095l-.032.003-.032.005c-.394.059-.787.127-1.177.204l-.032.006-.032.007a25.68 25.68 0 0 0-1.146.31l-.031.01-.03.01c-.373.129-.742.266-1.107.411l-.03.012-.03.014c-.356.161-.708.33-1.056.508l-.029.015-.028.016c-.338.193-.67.393-.999.6l-.027.018-.026.018c-.317.222-.628.45-.933.686l-.025.02-.025.02c-.292.25-.579.504-.859.765l-.023.022-.023.023a24.51 24.51 0 0 0-.778.835l-.022.024-.02.025c-.239.295-.47.594-.693.898l-.02.026-.017.027c-.208.313-.409.63-.602.952l-.017.028-.015.028c-.177.329-.346.662-.507.997l-.014.03-.012.03c-.145.34-.281.685-.41 1.032l-.01.03-.01.031c-.111.352-.214.705-.308 1.06l-.008.032-.007.03c-.077.359-.146.718-.206 1.078l-.006.032-.003.032c-.044.36-.078.722-.104 1.084l-.002.032-.001.032c-.01.362-.01.723-.002 1.083l.001.032.002.032c.025.359.058.716.1 1.072l.003.031.006.032c.058.352.123.703.198 1.05l.006.032.009.031c.09.343.188.684.294 1.021l.01.031.01.03c.121.332.25.66.386.983l.013.03.013.03c.151.316.309.628.474.936l.015.029.017.027c.178.3.363.594.555.884l.018.027.019.026c.204.28.415.554.632.823l.02.025.021.024c.229.258.463.51.702.756l.022.023.024.022c.25.234.505.462.764.683l.025.021.025.02c.27.208.542.41.82.605l.026.019.028.017c.285.182.574.356.867.524l.028.016.029.015c.299.153.6.3.905.438l.03.013.03.012c.31.125.622.241.937.35l.03.011.031.01c.319.094.638.18.96.26l.03.007.032.007c.324.064.648.12.973.169l.032.005.032.003c.326.034.651.06.977.078l.033.002h.032c.325.004.65 0 .973-.012l.032-.001.033-.003c.321-.026.642-.06.96-.102l.033-.004.032-.005c.315-.056.629-.119.94-.189l.032-.007.031-.009c.307-.084.61-.175.912-.273l.03-.01.031-.011c.295-.111.587-.229.876-.353l.03-.013.029-.014c.281-.137.559-.28.833-.43l.028-.016.028-.016c.265-.162.526-.329.782-.501l.027-.019.026-.019c.247-.184.49-.373.727-.567l.025-.02.024-.022c.227-.204.45-.413.666-.627l.023-.023.022-.024c.205-.222.405-.45.599-.68l.02-.025.02-.026c.182-.239.358-.481.529-.728l.018-.026.017-.028c.158-.252.309-.508.454-.767l.016-.028.014-.03c.133-.263.258-.53.377-.799l.013-.03.012-.03c.106-.273.205-.548.298-.824l.01-.031.009-.031c.079-.28.151-.56.217-.842l.007-.032.006-.032c.052-.283.098-.567.136-.851l.005-.032.002-.032c.025-.285.044-.57.055-.854l.001-.033v-.032c-.002-.283-.01-.566-.026-.848l-.001-.032-.003-.032c-.029-.28-.064-.559-.105-.836L43 33.821l-.006-.032a17.723 17.723 0 0 0-.181-.815l-.008-.031-.01-.031a17.54 17.54 0 0 0-.254-.789l-.011-.03-.012-.03a17.351 17.351 0 0 0-.326-.755l-.013-.03-.015-.028c-.125-.242-.256-.48-.392-.716l-.016-.028-.018-.027c-.146-.227-.297-.45-.453-.67l-.02-.027-.02-.025a17.214 17.214 0 0 0-.51-.62l-.02-.025-.023-.023c-.183-.194-.37-.382-.562-.566l-.023-.022-.025-.021a16.947 16.947 0 0 0-.607-.506l-.026-.02-.026-.02a16.662 16.662 0 0 0-.647-.443l-.027-.018-.028-.016c-.224-.132-.45-.258-.68-.379l-.029-.015-.03-.014c-.232-.109-.468-.212-.705-.31l-.03-.013-.031-.01c-.24-.087-.482-.168-.726-.242l-.03-.01-.032-.008c-.246-.063-.492-.12-.739-.171l-.032-.007-.032-.005c-.248-.04-.496-.074-.745-.101l-.032-.004-.033-.002a15.984 15.984 0 0 0-.744-.032h-.065c-.246.008-.492.02-.737.038l-.033.003-.032.004c-.242.03-.483.064-.723.105l-.032.005-.032.007c-.237.051-.471.108-.704.17l-.031.009-.031.01c-.229.072-.454.15-.678.232l-.03.012-.03.012c-.219.093-.434.19-.647.292l-.03.014-.028.016c-.207.11-.41.227-.61.347l-.028.017-.027.018c-.194.128-.383.261-.57.398l-.026.02-.025.02c-.178.145-.353.293-.523.446l-.025.021-.023.023c-.162.16-.32.322-.474.487l-.022.024-.021.025c-.145.172-.286.347-.422.524l-.02.026-.018.027c-.127.182-.25.367-.367.555l-.017.027-.016.029c-.108.191-.21.385-.309.58l-.015.03-.013.03c-.088.198-.171.399-.25.6l-.011.03-.01.032c-.069.203-.132.409-.19.614l-.01.032-.007.032a13.3 13.3 0 0 0-.129.623l-.006.032-.004.032c-.028.208-.051.417-.069.626l-.003.032-.001.033c-.008.208-.011.415-.01.622l.001.033.002.032c.012.206.028.41.05.614l.003.033.005.032c.03.201.066.401.107.6l.006.032.008.031c.05.195.103.389.161.58l.01.032.01.03c.067.188.139.374.214.557l.012.03.014.03c.084.179.17.355.262.528l.016.03.016.027c.099.168.202.333.308.495l.018.028.019.026.047.064a6.3 6.3 0 0 0 5.237 2.782c3.476 0 6.293-2.796 6.293-6.244a6.231 6.231 0 0 0-3.057-5.356c.18.056.36.115.54.18.176.073.352.15.526.231.171.09.341.185.51.283.163.108.325.219.485.334.155.123.307.25.457.38.145.14.286.282.425.428.132.153.26.31.387.47.118.166.233.336.344.509.104.179.203.36.299.545.087.19.17.382.249.577.069.2.134.4.195.604.05.207.097.415.14.626.03.213.057.427.08.643.01.217.017.435.02.654-.01.22-.024.44-.043.66-.03.221-.065.441-.105.661-.052.219-.108.437-.17.655-.072.215-.149.43-.231.642-.093.21-.192.418-.294.625-.114.202-.233.402-.356.6-.133.193-.272.383-.414.57-.153.182-.31.36-.47.536-.171.167-.346.332-.525.493-.187.153-.378.302-.573.448-.203.136-.41.268-.62.396-.216.118-.436.231-.659.34-.229.099-.46.192-.695.28-.24.078-.481.15-.725.218-.248.055-.498.105-.75.15-.254.033-.51.06-.766.081-.26.009-.519.012-.779.01a18.29 18.29 0 0 1-.782-.063c-.26-.04-.52-.084-.78-.135a18.497 18.497 0 0 1-.771-.21 18.883 18.883 0 0 1-.755-.281c-.245-.113-.49-.23-.73-.354a19.06 19.06 0 0 1-.701-.423 19.074 19.074 0 0 1-.663-.49c-.21-.18-.417-.364-.62-.554a19.38 19.38 0 0 1-.57-.614 19.556 19.556 0 0 1-.513-.669 19.768 19.768 0 0 1-.453-.72 19.66 19.66 0 0 1-.386-.764c-.11-.265-.216-.532-.315-.803a19.976 19.976 0 0 1-.24-.835 20.11 20.11 0 0 1-.163-.86c-.034-.293-.06-.586-.082-.88a20.45 20.45 0 0 1 .002-.89c.021-.297.05-.594.085-.892.05-.296.107-.592.17-.887.078-.293.163-.584.254-.875.106-.286.219-.57.338-.853.133-.278.273-.553.42-.825.16-.266.326-.53.498-.789.186-.252.377-.5.575-.745.21-.235.425-.466.646-.693.233-.217.471-.428.714-.635.254-.196.513-.386.776-.571.273-.173.55-.34.832-.5.29-.148.584-.29.882-.425.305-.121.613-.236.924-.344.317-.093.637-.18.96-.259.326-.064.655-.12.985-.17.334-.034.669-.06 1.005-.08.338-.002.676.002 1.015.014.339.029.677.065 1.016.108.337.06.673.128 1.008.203.332.091.663.19.991.296.325.123.647.253.966.39.314.153.624.313.932.48.3.182.596.371.888.567.283.21.562.428.837.651.264.238.523.481.777.73.242.263.48.53.71.804.218.286.43.576.636.872.192.306.377.617.555.932.163.325.32.653.469.986.133.34.258.684.376 1.03.101.354.194.71.28 1.069.068.363.128.728.18 1.096.034.37.06.742.077 1.114 0 .374-.01.75-.028 1.124-.036.375-.08.75-.133 1.123-.072.372-.152.743-.24 1.113-.107.366-.222.73-.345 1.093-.141.357-.29.71-.448 1.062-.175.345-.358.686-.55 1.023-.207.328-.423.653-.646.973-.239.31-.485.615-.739.915-.268.288-.544.571-.826.848-.296.264-.599.522-.907.773-.322.237-.649.467-.981.69-.345.207-.694.407-1.048.6-.364.175-.733.343-1.106.503-.38.142-.766.276-1.154.402-.395.107-.793.206-1.194.296-.406.07-.814.132-1.223.185a28.2 28.2 0 0 1-1.242.072c-.417-.005-.834-.019-1.251-.042a28.522 28.522 0 0 1-1.248-.159 28.685 28.685 0 0 1-1.235-.274c-.406-.12-.81-.25-1.21-.389a28.961 28.961 0 0 1-1.175-.501c-.38-.195-.757-.399-1.13-.61-.362-.231-.72-.47-1.073-.717a29.35 29.35 0 0 1-1.007-.816 29.47 29.47 0 0 1-.93-.91c-.29-.325-.572-.658-.847-.997a29.52 29.52 0 0 1-.754-1.076c-.226-.377-.444-.76-.653-1.147-.19-.399-.373-.802-.546-1.209a29.832 29.832 0 0 1-.432-1.26c-.115-.431-.22-.865-.315-1.301a30.065 30.065 0 0 1-.193-1.332 30.04 30.04 0 0 1-.067-1.35c.01-.453.03-.905.06-1.358a30.6 30.6 0 0 1 .186-1.353c.095-.447.2-.893.315-1.337.136-.439.283-.875.44-1.309.178-.426.366-.85.563-1.268.218-.41.446-.817.683-1.218.257-.39.523-.776.798-1.155.294-.367.596-.728.907-1.082.328-.34.665-.673 1.009-1 .36-.309.728-.61 1.103-.905.39-.277.787-.545 1.19-.805.415-.24.837-.472 1.265-.694.439-.203.882-.396 1.33-.579.459-.162.921-.313 1.387-.455.473-.12.95-.229 1.43-.328.484-.076.971-.14 1.46-.195.493-.031.986-.051 1.48-.06.495.014.99.04 1.486.076.494.06.987.131 1.48.213.488.106.975.223 1.46.351.478.151.954.313 1.426.486.465.195.926.4 1.383.617a34.2 34.2 0 0 1 1.324.746c.424.28.843.569 1.255.868.398.32.789.647 1.173.984.368.356.729.72 1.082 1.093.335.39.66.788.979 1.193.298.421.587.85.867 1.284.258.449.507.904.746 1.364.217.473.423.95.619 1.433.172.493.334.99.484 1.491.126.509.241 1.02.345 1.535.078.52.145 1.043.2 1.568.03.527.047 1.056.053 1.586-.02.53-.052 1.06-.096 1.59-.07.53-.151 1.057-.245 1.583-.119.522-.25 1.042-.393 1.56a35.918 35.918 0 0 1-.54 1.522c-.216.496-.444.987-.683 1.473-.262.476-.536.946-.82 1.41-.308.451-.626.896-.954 1.334-.35.423-.709.838-1.078 1.246-.39.39-.788.772-1.195 1.146-.426.354-.86.7-1.302 1.035-.46.315-.926.62-1.4.915-.488.273-.983.535-1.484.786-.514.227-1.034.444-1.559.648-.535.18-1.075.348-1.619.505-.552.13-1.107.248-1.665.355-.565.079-1.13.146-1.7.2a38.67 38.67 0 0 1-1.716.044 38.764 38.764 0 0 1-1.721-.115 38.949 38.949 0 0 1-1.71-.273 39.237 39.237 0 0 1-1.683-.431 39.312 39.312 0 0 1-1.642-.587 39.376 39.376 0 0 1-1.587-.738 39.436 39.436 0 0 1-1.517-.884 39.42 39.42 0 0 1-1.433-1.024c-.454-.375-.9-.76-1.337-1.156a39.538 39.538 0 0 1-1.228-1.28c-.38-.455-.749-.919-1.108-1.391-.336-.49-.662-.988-.976-1.494a39.7 39.7 0 0 1-.836-1.583c-.242-.547-.47-1.1-.687-1.659-.19-.57-.367-1.144-.532-1.722a39.979 39.979 0 0 1-.37-1.77c-.08-.6-.148-1.2-.203-1.804a40.484 40.484 0 0 1-.034-1.821c.032-.608.078-1.216.137-1.823.089-.605.191-1.209.308-1.81.145-.597.304-1.19.477-1.78.201-.584.415-1.162.643-1.736.256-.564.525-1.122.806-1.675.309-.54.63-1.073.963-1.6a41.64 41.64 0 0 1 1.112-1.51c.407-.477.825-.946 1.253-1.406.451-.44.912-.87 1.384-1.29a42.37 42.37 0 0 1 1.504-1.16 42.656 42.656 0 0 1 1.612-1.022c.561-.304 1.13-.594 1.706-.873a43.09 43.09 0 0 1 1.787-.714c.613-.196 1.23-.38 1.853-.549.63-.14 1.265-.265 1.903-.377a43.614 43.614 0 0 1 1.936-.201c.651-.022 1.302-.03 1.955-.023.652.038 1.303.09 1.955.158.648.098 1.294.21 1.938.337.639.158 1.274.33 1.906.517.623.216 1.241.447 1.855.692.602.274 1.199.561 1.79.862.575.33 1.144.672 1.706 1.027.545.382 1.081.777 1.61 1.183.508.433 1.007.876 1.496 1.331.468.479.925.968 1.371 1.468a44.72 44.72 0 0 1 1.233 1.593c.373.56.733 1.129 1.081 1.706.32.593.628 1.195.921 1.803.265.623.515 1.252.752 1.887.206.647.397 1.298.573 1.955.145.665.276 1.333.39 2.005.083.678.15 1.358.202 2.04.02.685.023 1.37.01 2.056a45.468 45.468 0 0 1-.181 2.056c-.11.681-.235 1.36-.375 2.037-.173.67-.361 1.337-.565 2a46.206 46.206 0 0 1-.752 1.946 46.369 46.369 0 0 1-.934 1.874 46.525 46.525 0 0 1-1.108 1.787c-.411.57-.836 1.13-1.274 1.683a47.123 47.123 0 0 1-1.43 1.563 47.38 47.38 0 0 1-1.577 1.43c-.559.44-1.128.868-1.708 1.283-.6.388-1.208.763-1.826 1.124-.636.332-1.279.65-1.93.955-.666.273-1.338.531-2.017.775-.69.212-1.387.408-2.087.589-.71.148-1.424.28-2.14.395-.724.082-1.449.148-2.176.198-.73.015-1.46.014-2.19-.003-.731-.052-1.46-.12-2.19-.205a49.294 49.294 0 0 1-2.166-.407 49.378 49.378 0 0 1-2.126-.605 49.395 49.395 0 0 1-2.066-.802 49.617 49.617 0 0 1-1.99-.99 49.526 49.526 0 0 1-1.894-1.174 49.673 49.673 0 0 1-1.782-1.346 49.739 49.739 0 0 1-1.654-1.509 49.673 49.673 0 0 1-1.51-1.66 49.605 49.605 0 0 1-1.353-1.796c-.409-.63-.803-1.27-1.183-1.92a49.856 49.856 0 0 1-1.002-2.026 50.027 50.027 0 0 1-.811-2.115 50.033 50.033 0 0 1-.612-2.189 50.13 50.13 0 0 1-.406-2.241 50.233 50.233 0 0 1-.196-2.276 50.381 50.381 0 0 1 .018-2.291c.06-.764.137-1.526.232-2.287.132-.757.28-1.511.446-2.262.202-.744.422-1.483.658-2.218.271-.725.56-1.443.864-2.155.339-.698.694-1.389 1.065-2.072.404-.666.823-1.323 1.257-1.971.466-.628.946-1.246 1.44-1.853a52.205 52.205 0 0 1 1.612-1.717 52.416 52.416 0 0 1 1.77-1.567 52.551 52.551 0 0 1 1.915-1.4c.672-.423 1.353-.83 2.043-1.223.71-.36 1.429-.705 2.155-1.033a53.413 53.413 0 0 1 2.249-.833c.769-.225 1.543-.433 2.323-.624.79-.154 1.582-.29 2.378-.409a54.018 54.018 0 0 1 2.414-.19c.809-.006 1.618.005 2.427.034.809.067 1.616.153 2.421.257.801.142 1.599.302 2.394.48.786.215 1.568.448 2.345.7.765.287 1.523.592 2.276.914.737.358 1.466.732 2.187 1.123.702.425 1.395.866 2.078 1.323.662.49 1.312.993 1.952 1.512.615.55 1.217 1.113 1.807 1.69a54.77 54.77 0 0 1 1.646 1.855c.505.656.995 1.323 1.47 2.003.443.701.87 1.413 1.281 2.135.377.742.736 1.492 1.079 2.25.306.775.595 1.557.866 2.346.233.802.448 1.61.645 2.423.158.822.297 1.648.418 2.477.08.836.142 1.674.185 2.513.002.842-.015 1.684-.05 2.526a55.56 55.56 0 0 1-.287 2.517 55.839 55.839 0 0 1-.522 2.487 56.027 56.027 0 0 1-.754 2.434 56.257 56.257 0 0 1-.98 2.361c-.383.765-.783 1.52-1.201 2.268a56.607 56.607 0 0 1-1.41 2.152 56.988 56.988 0 0 1-1.61 2.02 57.396 57.396 0 0 1-1.796 1.868 57.532 57.532 0 0 1-1.967 1.7 57.681 57.681 0 0 1-2.124 1.514c-.744.456-1.498.895-2.262 1.318-.785.386-1.579.755-2.382 1.106-.82.314-1.646.609-2.48.886-.849.237-1.702.455-2.56.655-.87.159-1.741.298-2.617.418-.883.079-1.766.138-2.652.177a59.34 59.34 0 0 1-2.664-.068 59.53 59.53 0 0 1-2.652-.314 59.525 59.525 0 0 1-2.62-.557 59.69 59.69 0 0 1-2.562-.797 59.654 59.654 0 0 1-2.483-1.032 59.757 59.757 0 0 1-2.383-1.26 59.717 59.717 0 0 1-2.26-1.476 59.768 59.768 0 0 1-2.118-1.682 59.867 59.867 0 0 1-1.958-1.874c-.608-.67-1.2-1.354-1.778-2.052a59.857 59.857 0 0 1-1.584-2.211A59.985 59.985 0 0 1 6.62 47.48a59.944 59.944 0 0 1-1.151-2.476 60.084 60.084 0 0 1-.917-2.577c-.245-.88-.47-1.766-.675-2.657a60.169 60.169 0 0 1-.424-2.715 60.305 60.305 0 0 1-.17-2.75c.008-.92.037-1.84.088-2.76.094-.917.21-1.832.345-2.746.18-.907.381-1.81.603-2.71.264-.888.549-1.772.854-2.649.348-.863.715-1.718 1.101-2.566.428-.83.874-1.65 1.34-2.46a61.726 61.726 0 0 1 1.566-2.332 62.11 62.11 0 0 1 1.782-2.183 62.272 62.272 0 0 1 1.983-2.015 62.55 62.55 0 0 1 2.168-1.829 62.94 62.94 0 0 1 2.335-1.625 63.23 63.23 0 0 1 2.483-1.408 63.49 63.49 0 0 1 2.61-1.176 63.678 63.678 0 0 1 2.715-.934 63.893 63.893 0 0 1 2.797-.682 64.13 64.13 0 0 1 2.856-.423 64.313 64.313 0 0 1 2.89-.16c.966.015 1.933.05 2.899.108.963.103 1.925.228 2.884.374.952.192 1.9.405 2.843.64a64.77 64.77 0 0 1 2.778.899c.904.364 1.8.748 2.688 1.153.869.447 1.727.913 2.576 1.4a64.94 64.94 0 0 1 2.44 1.633c1.685 1.302 3.171 2.066 4.876 2.356 1.289.219 2.626.151 4.142-.052.758-.1 1.268-.819 1.142-1.573-.126-.751-.836-1.253-1.59-1.155-1.35.176-2.338.207-3.224.057-1.108-.189-2.181-.686-3.658-1.83l-.026-.02-.026-.018c-.853-.601-1.72-1.181-2.6-1.741l-.027-.018-.028-.016a67.71 67.71 0 0 0-2.745-1.49l-.029-.016-.03-.013a67.592 67.592 0 0 0-2.865-1.23l-.03-.012-.03-.01a67.569 67.569 0 0 0-2.963-.96l-.03-.009-.032-.008a67.501 67.501 0 0 0-3.032-.681l-.032-.006-.032-.005a67.394 67.394 0 0 0-3.075-.4l-.032-.003L36.898 1c-1.03-.061-2.061-.1-3.093-.114Z" clip-rule="evenodd"/></svg>