<svg xmlns="http://www.w3.org/2000/svg" width="33" height="57" fill="none"><path fill="#ABA692" d="M11.903 39.667c0-7.68 4.72-11.44 8.8-14.4 3.12-2.24 5.28-4.48 5.28-8.96 0-5.92-3.76-9.44-9.12-9.44-5.36 0-9.28 4.24-9.28 10.4 0 .8.08 1.92.32 3.2l-7.36.8c-.08-1.6-.16-2.8-.16-3.84 0-9.52 6.48-17.12 16.56-17.12 9.44 0 15.92 6.4 15.92 15.68 0 8-4.64 11.84-8.48 14.72-3.36 2.56-6.56 4.8-7.04 9.6h-5.44v-.64Zm-9.92-24.32c0 1.28.96 2.24 2.24 2.24 1.28 0 2.24-.96 2.24-2.24 0-1.28-.96-2.24-2.24-2.24-1.28 0-2.24.96-2.24 2.24Zm8 35.68c0-3.04 2.16-5.28 5.12-5.28s5.12 2.24 5.12 5.28-2.16 5.28-5.12 5.28-5.12-2.24-5.12-5.28Zm2.24-46.96c0 1.28.96 2.08 2.24 1.76 1.28-.32 3.2-.32 4.48 0 1.28.32 2.24-.48 2.24-1.76 0-.96-.88-1.84-1.92-2.08-1.6-.4-3.52-.4-5.12 0-1.04.24-1.92 1.12-1.92 2.08Zm.32 46.96c0 1.44 1.12 2.56 2.56 2.56s2.56-1.12 2.56-2.56-1.12-2.56-2.56-2.56-2.56 1.12-2.56 2.56Zm.8-15.36c0 1.28.96 2.24 2.24 2.24 1.28 0 2.24-.96 2.24-2.24 0-1.28-.96-2.24-2.24-2.24-1.28 0-2.24.96-2.24 2.24Zm5.76-6.88c0 1.28.96 2.24 2.24 2.24 1.28 0 2.24-.96 2.24-2.24 0-1.28-.96-2.24-2.24-2.24-1.28 0-2.24.96-2.24 2.24Zm4.8-21.36c0 1.28.96 2.24 2.24 2.24 1.28 0 2.24-.96 2.24-2.24 0-1.28-.96-2.24-2.24-2.24-1.28 0-2.24.96-2.24 2.24Zm3.2 11.76c-.32 1.28.48 2.24 1.76 2.24.96 0 1.84-.88 2.08-1.92.4-1.6.4-3.52 0-5.12-.24-1.04-1.12-1.92-2.08-1.92-1.28 0-2.08.96-1.76 2.24.32 1.28.32 3.2 0 4.48Z"/></svg>